<svg width="29" height="26" viewBox="0 0 29 26" fill="none" xmlns="http://www.w3.org/2000/svg">
<path d="M23.2813 7.00801V5.87301C23.2813 4.28387 23.2813 3.48928 22.972 2.88231C22.7 2.34839 22.2659 1.91431 21.732 1.64228C21.125 1.33301 20.3304 1.33301 18.7413 1.33301H6.54C4.95084 1.33301 4.15627 1.33301 3.5493 1.64228C3.01539 1.91431 2.5813 2.34839 2.30927 2.88231C2 3.48928 2 4.28387 2 5.87301V7.00801M2 7.00801V19.493C2 21.0821 2 21.8768 2.30927 22.4837C2.5813 23.0176 3.01539 23.4517 3.5493 23.7237C4.15627 24.033 4.95084 24.033 6.54 24.033H22.9975C24.5866 24.033 25.3813 24.033 25.9882 23.7237C26.5221 23.4517 26.9562 23.0176 27.2282 22.4837C27.5375 21.8768 27.5375 21.0821 27.5375 19.493V11.548C27.5375 9.95887 27.5375 9.16428 27.2282 8.55731C26.9562 8.02339 26.5221 7.58931 25.9882 7.31728C25.3813 7.00801 24.5866 7.00801 22.9975 7.00801H2ZM27.5375 12.683H24.7C23.1329 12.683 21.8625 13.9534 21.8625 15.5205C21.8625 17.0877 23.1329 18.358 24.7 18.358H27.5375" stroke="#42C2FF" stroke-width="2.2" stroke-linecap="round" stroke-linejoin="round"/>
</svg>
