<svg width="15" height="14" viewBox="0 0 15 14" fill="none" xmlns="http://www.w3.org/2000/svg">
<path d="M7.11617 8.438L9.73592 5.78759L10.0364 6.0916L6.76056 9.40579L4.96359 7.58779L5.26408 7.28378L6.40496 8.438L6.76056 8.79777L7.11617 8.438ZM7.5 13.5C6.68568 13.5 5.93012 13.3439 5.22786 13.0347C4.5145 12.7207 3.89832 12.2989 3.37497 11.7694C2.85158 11.2399 2.43404 10.6159 2.12305 9.89279C1.81677 9.18062 1.66197 8.41403 1.66197 7.58779C1.66197 6.76154 1.81677 5.99495 2.12305 5.28279C2.43404 4.5597 2.85158 3.93571 3.37497 3.4062C3.89832 2.87672 4.5145 2.45485 5.22786 2.14083C5.93012 1.83169 6.68568 1.67557 7.5 1.67557C8.31432 1.67557 9.06988 1.83169 9.77214 2.14083C10.4855 2.45485 11.1017 2.87672 11.625 3.4062C12.1484 3.93571 12.566 4.5597 12.8769 5.28279C13.1832 5.99495 13.338 6.76154 13.338 7.58779C13.338 8.41403 13.1832 9.18062 12.8769 9.89279C12.566 10.6159 12.1484 11.2399 11.625 11.7694C11.1017 12.2989 10.4855 12.7207 9.77214 13.0347C9.06988 13.3439 8.31432 13.5 7.5 13.5ZM0.703028 3.02799L2.99296 0.711257L3.27585 0.997455L0.985915 3.31419L0.703028 3.02799ZM11.7242 0.997455L12.007 0.711257L14.297 3.02799L14.0141 3.31419L11.7242 0.997455ZM7.5 13.0751C9.00547 13.0751 10.2989 12.5387 11.3503 11.4749C12.4016 10.4114 12.9296 9.10561 12.9296 7.58779C12.9296 6.06997 12.4016 4.76421 11.3503 3.70067C10.2989 2.6369 9.00547 2.10051 7.5 2.10051C5.99453 2.10051 4.70115 2.6369 3.64968 3.70067C2.59844 4.76421 2.07042 6.06997 2.07042 7.58779C2.07042 9.10561 2.59844 10.4114 3.64968 11.4749C4.70115 12.5387 5.99453 13.0751 7.5 13.0751Z" stroke="#B9E8FF"/>
</svg>
