<svg width="35" height="27" viewBox="0 0 35 27" fill="none" xmlns="http://www.w3.org/2000/svg">
<path d="M12.6854 24.9028L12.6884 24.8986M12.6884 24.8986C12.9375 24.4375 13.873 23.0364 14.8454 21.249C16.9451 17.437 18.4816 14.1508 19.4442 11.3957C20.4154 8.64261 20.9155 6.17035 20.9155 3.99013C20.9155 3.16384 20.8005 2.41891 20.4393 1.92675C20.0605 1.39724 19.4501 1.22395 18.8017 1.22395C18.5378 1.22395 18.2616 1.26264 17.9752 1.33438C17.6858 1.40684 17.3746 1.51889 17.043 1.66607L16.5642 1.87865L16.7311 2.42729C16.8337 2.76438 16.9115 3.12381 16.9637 3.50651C17.0162 3.89002 17.0426 4.291 17.0426 4.70997C17.0426 6.49967 16.7432 8.41217 16.134 10.451L16.1335 10.4528C15.5335 12.4811 14.5202 14.9224 13.0822 17.7824L12.6884 18.6551M12.6884 24.8986L12.0034 26C11.6569 26 11.3585 25.809 11.1195 25.5768C10.8768 25.3409 10.6439 25.0132 10.4169 24.621L10.415 24.6176C9.96076 23.8213 9.47261 22.6587 8.94805 21.154L2 3.21124L2.34374 2.72994C2.68561 2.25125 3.05788 1.87166 3.46629 1.62053C3.87674 1.35747 4.32182 1.22395 4.79283 1.22395C5.55255 1.22395 6.16128 1.88586 6.64994 2.7367C7.15928 3.62355 7.65343 4.91385 8.14045 6.57536C8.23836 6.8811 8.31729 7.13894 8.37599 7.34631L8.38512 7.3566L8.42543 7.49095C9.74016 11.872 10.7699 15.1496 11.5156 17.3287L12.1562 19.75L12.6884 18.6551M12.5469 18.9688L12.6884 18.6551M23.4556 20.8272L23.0189 20.5639L22.7498 21.0326C22.5254 21.4236 22.349 21.8053 22.2279 22.1771L22.2245 22.1882C22.1138 22.5499 22.0531 22.9103 22.0531 23.2658C22.0531 24.0517 22.3284 24.7106 22.8937 25.155L22.9056 25.164C23.4486 25.5674 24.1819 25.7281 25.0328 25.7281C26.2985 25.7281 27.4833 25.4444 28.5803 24.8721L28.5824 24.8711C29.6887 24.2877 30.6171 23.4606 31.3609 22.3927L31.3645 22.3876C31.7993 21.7492 32.1306 21.0887 32.3507 20.4053C32.5802 19.7219 32.6965 19.0213 32.6965 18.307C32.6965 17.2914 32.3105 16.2337 31.633 15.15C30.9529 14.0624 29.9498 12.9017 28.6432 11.6674L28.6403 11.6646C28.4234 11.4627 28.2588 11.309 28.1462 11.2033C27.3959 10.4934 26.9249 9.92132 26.6863 9.48389C26.465 9.06101 26.3518 8.58879 26.3518 8.05323C26.3518 7.15328 26.6299 6.499 27.1696 6.01746C27.735 5.51108 28.5539 5.22067 29.6884 5.22067C30.047 5.22067 30.3953 5.26394 30.7341 5.34984L30.7417 5.35175L30.7492 5.35341C31.1022 5.43104 31.4469 5.54749 31.7835 5.70316L32.2036 5.89741L32.4444 5.46341C32.6883 5.02342 32.8818 4.62982 33.0184 4.28629L33.0211 4.27935C33.1534 3.93534 33.25 3.58763 33.25 3.2703C33.25 2.53903 32.9939 1.92134 32.4567 1.5178C31.9581 1.14319 31.2784 1 30.4975 1C29.3972 1 28.329 1.26451 27.2975 1.78843C26.2676 2.30085 25.3117 3.04808 24.4293 4.0202L24.425 4.02504C23.8241 4.70241 23.3546 5.45555 23.0232 6.28429C22.6912 7.11448 22.5215 7.96694 22.5215 8.83704C22.5215 9.85234 22.8879 10.8852 23.5395 11.9229C24.1909 12.9603 25.1499 14.0392 26.3958 15.1619C26.4354 15.1989 26.476 15.236 26.5148 15.2683L26.5173 15.2711L26.5391 15.2912C27.3639 16.044 27.9583 16.7303 28.3429 17.3478C28.7283 17.9665 28.8804 18.4791 28.8804 18.8988C28.8804 19.704 28.6228 20.302 28.1078 20.7564C27.589 21.2116 26.8357 21.4754 25.785 21.4754C25.3522 21.4754 24.9463 21.4218 24.566 21.3172C24.196 21.2128 23.8261 21.0505 23.4556 20.8272Z" stroke="#42C2FF" stroke-width="2"/>
</svg>
