<svg id="Layer_1" height="512" fill="#5DB3DC" viewBox="0 0 48 48" width="512" xmlns="http://www.w3.org/2000/svg" data-name="Layer 1"><rect height="6" rx="2" width="4" x="11" y="3"/><rect height="6" rx="2" width="4" x="33" y="3"/><path d="m4 18v23c0 2.209 1.791 4 4 4h32c2.209 0 4-1.791 4-4v-23zm12 20c0 1.105-.895 2-2 2h-2c-1.105 0-2-.895-2-2v-2c0-1.105.895-2 2-2h2c1.105 0 2 .895 2 2zm0-11c0 1.105-.895 2-2 2h-2c-1.105 0-2-.895-2-2v-2c0-1.105.895-2 2-2h2c1.105 0 2 .895 2 2zm11 11c0 1.105-.895 2-2 2h-2c-1.105 0-2-.895-2-2v-2c0-1.105.895-2 2-2h2c1.105 0 2 .895 2 2zm0-11c0 1.105-.895 2-2 2h-2c-1.105 0-2-.895-2-2v-2c0-1.105.895-2 2-2h2c1.105 0 2 .895 2 2zm11 11c0 1.105-.895 2-2 2h-2c-1.105 0-2-.895-2-2v-2c0-1.105.895-2 2-2h2c1.105 0 2 .895 2 2zm0-11c0 1.105-.895 2-2 2h-2c-1.105 0-2-.895-2-2v-2c0-1.105.895-2 2-2h2c1.105 0 2 .895 2 2z"/><path d="m44 16v-6c0-2.209-1.791-4-4-4h-1v1c0 2.206-1.794 4-4 4s-4-1.794-4-4v-1h-14v1c0 2.206-1.794 4-4 4s-4-1.794-4-4v-1h-1c-2.209 0-4 1.791-4 4v6z"/></svg>
