<svg width="28" height="25" viewBox="0 0 28 25" fill="none" xmlns="http://www.w3.org/2000/svg">
<path d="M13.852 7.14258C10.1223 7.14258 7.08789 10.1769 7.08789 13.9066C7.08789 17.6364 10.1223 20.6707 13.852 20.6707C17.5817 20.6707 20.616 17.6364 20.616 13.9066C20.616 10.1769 17.5817 7.14258 13.852 7.14258ZM13.852 18.5062C11.3158 18.5062 9.25239 16.4428 9.25239 13.9066C9.25239 11.3704 11.3158 9.30708 13.852 9.30708C16.3882 9.30708 18.4515 11.3704 18.4515 13.9066C18.4515 16.4428 16.3882 18.5062 13.852 18.5062Z" fill="#42C2FF"/>
<path d="M24.4589 3.8961H20.4775C20.3515 3.8961 20.2379 3.82733 20.1795 3.71607L19.078 1.40152C19.075 1.39518 19.072 1.38891 19.0688 1.38263C18.6424 0.529816 17.7852 0 16.8317 0H10.9511C9.99757 0 9.14031 0.529816 8.71396 1.38268C8.71077 1.38896 8.70774 1.39524 8.70471 1.40157L7.60319 3.71623C7.54475 3.82733 7.43122 3.8961 7.3052 3.8961H3.24675C1.45649 3.8961 0 5.3526 0 7.14286V21.7532C0 23.5435 1.45649 25 3.24675 25H24.4589C26.2491 25 27.7056 23.5435 27.7056 21.7532V7.14286C27.7056 5.3526 26.2491 3.8961 24.4589 3.8961ZM25.5411 21.7532C25.5411 22.3499 25.0556 22.8354 24.4589 22.8354H3.24675C2.65 22.8354 2.1645 22.3499 2.1645 21.7532V7.14286C2.1645 6.5461 2.65 6.06061 3.24675 6.06061H7.3052C8.25866 6.06061 9.11591 5.53084 9.54232 4.67803C9.54551 4.67175 9.54854 4.66542 9.55162 4.65909L10.6531 2.34443C10.7115 2.23328 10.8251 2.1645 10.9511 2.1645H16.8317C16.9577 2.1645 17.0712 2.23328 17.1296 2.34437L18.2311 4.65904C18.2342 4.66537 18.2372 4.6717 18.2404 4.67798C18.6668 5.53079 19.5241 6.06055 20.4775 6.06055H24.4589C25.0556 6.06055 25.5411 6.54605 25.5411 7.1428V21.7532Z" fill="#42C2FF"/>
<path d="M23.3774 8.22559H21.2129V10.3901H23.3774V8.22559Z" fill="#42C2FF"/>
</svg>
