<svg width="42" height="42" viewBox="0 0 42 42" fill="none" xmlns="http://www.w3.org/2000/svg">
<path d="M14 29.75C13.0375 29.75 12.2135 29.4073 11.5281 28.7219C10.8427 28.0365 10.5 27.2125 10.5 26.25V15.75C10.5 14.7875 10.8427 13.9635 11.5281 13.2781C12.2135 12.5927 13.0375 12.25 14 12.25H15.75L17.5 10.5H24.5L26.25 12.25H28C28.9625 12.25 29.7865 12.5927 30.4719 13.2781C31.1573 13.9635 31.5 14.7875 31.5 15.75V26.25C31.5 27.2125 31.1573 28.0365 30.4719 28.7219C29.7865 29.4073 28.9625 29.75 28 29.75H14ZM14 26.25H28V15.75H14V26.25ZM21 24.5C21.9625 24.5 22.7865 24.1573 23.4719 23.4719C24.1573 22.7865 24.5 21.9625 24.5 21C24.5 20.0375 24.1573 19.2135 23.4719 18.5281C22.7865 17.8427 21.9625 17.5 21 17.5C20.0375 17.5 19.2135 17.8427 18.5281 18.5281C17.8427 19.2135 17.5 20.0375 17.5 21C17.5 21.9625 17.8427 22.7865 18.5281 23.4719C19.2135 24.1573 20.0375 24.5 21 24.5ZM14.9625 0.875C15.9542 0.554167 16.9531 0.328125 17.9594 0.196875C18.9656 0.065625 19.9792 0 21 0C23.7417 0 26.3302 0.488542 28.7656 1.46563C31.201 2.44271 33.3594 3.79896 35.2406 5.53438C37.1219 7.26979 38.6604 9.31146 39.8563 11.6594C41.0521 14.0073 41.7667 16.5375 42 19.25H38.5C38.2958 17.15 37.7417 15.1885 36.8375 13.3656C35.9333 11.5427 34.774 9.93854 33.3594 8.55313C31.9448 7.16771 30.3187 6.0375 28.4812 5.1625C26.6437 4.2875 24.675 3.7625 22.575 3.5875L25.2875 6.3L22.8375 8.75L14.9625 0.875ZM27.0375 41.125C26.0458 41.4458 25.0469 41.6719 24.0406 41.8031C23.0344 41.9344 22.0208 42 21 42C18.2583 42 15.6698 41.5115 13.2344 40.5344C10.799 39.5573 8.64063 38.201 6.75938 36.4656C4.87812 34.7302 3.33958 32.6885 2.14375 30.3406C0.947917 27.9927 0.233333 25.4625 0 22.75H3.5C3.73333 24.85 4.29479 26.8115 5.18438 28.6344C6.07396 30.4573 7.22604 32.0615 8.64062 33.4469C10.0552 34.8323 11.6813 35.9625 13.5188 36.8375C15.3563 37.7125 17.325 38.2375 19.425 38.4125L16.7125 35.7L19.1625 33.25L27.0375 41.125Z" fill="#D9D9D9"/>
</svg>
