<svg xmlns="http://www.w3.org/2000/svg" version="1.1" xmlns:xlink="http://www.w3.org/1999/xlink" width="512" height="512" x="0" y="0" viewBox="0 0 66 66" style="enable-background:new 0 0 512 512" xml:space="preserve" class=""><g><linearGradient id="a"><stop offset="0" stop-color="#e9f4ff"></stop><stop offset="1" stop-color="#cce8ff"></stop></linearGradient><linearGradient xlink:href="#a" id="c" x1="39.245" x2="39.245" y1="61.769" y2="55.2" gradientTransform="matrix(1 0 0 -1 0 66)" gradientUnits="userSpaceOnUse"></linearGradient><linearGradient id="b"><stop offset="0" stop-color="#588fbc"></stop><stop offset="1" stop-color="#369"></stop></linearGradient><linearGradient xlink:href="#b" id="d" x1="39.245" x2="39.245" y1="58.873" y2="57.705" gradientTransform="matrix(1 0 0 -1 0 66)" gradientUnits="userSpaceOnUse"></linearGradient><linearGradient xlink:href="#b" id="e" x1="33" x2="33" y1="54.565" y2="4.88" gradientTransform="matrix(1 0 0 -1 0 66)" gradientUnits="userSpaceOnUse"></linearGradient><linearGradient xlink:href="#a" id="f" x1="25.149" x2="36.973" y1="39.105" y2="24.558" gradientTransform="matrix(1 0 0 -1 0 66)" gradientUnits="userSpaceOnUse"></linearGradient><linearGradient id="g" x1="27.759" x2="37.789" y1="35.415" y2="23.989" gradientTransform="matrix(1 0 0 -1 0 66)" gradientUnits="userSpaceOnUse"><stop offset="0" stop-color="#9cc2ff"></stop><stop offset="1" stop-color="#69f"></stop></linearGradient><linearGradient id="h" x1="30.069" x2="34.652" y1="32.545" y2="27.696" gradientTransform="matrix(1 0 0 -1 0 66)" gradientUnits="userSpaceOnUse"><stop offset="0" stop-color="#666"></stop><stop offset="1" stop-color="#4c4947"></stop></linearGradient><linearGradient id="i" x1="53.487" x2="55.371" y1="45.08" y2="42.887" gradientTransform="matrix(1 0 0 -1 0 66)" gradientUnits="userSpaceOnUse"><stop offset="0" stop-color="#ffdea4"></stop><stop offset="1" stop-color="#fc6"></stop></linearGradient><linearGradient id="j" x1="15.439" x2="23.38" y1="57.36" y2="57.36" gradientTransform="matrix(1 0 0 -1 0 66)" gradientUnits="userSpaceOnUse"><stop stop-opacity="1" stop-color="#6eb8ff" offset="0"></stop><stop stop-opacity="1" stop-color="#77c5f4" offset="1"></stop></linearGradient><path fill="url(#c)" d="m48.558 7.025 1.076 4.41H28.856l1.075-4.41a3.544 3.544 0 0 1 3.443-2.704h11.741a3.544 3.544 0 0 1 3.443 2.704z" opacity="1" data-original="url(#c)" class=""></path><path fill="url(#d)" d="M43.379 8.646H35.11a.768.768 0 0 1 0-1.536h8.269a.768.768 0 0 1 0 1.536z" opacity="1" data-original="url(#d)"></path><path fill="url(#e)" d="M1 23.247v26.62C1 56.391 6.288 61.68 12.812 61.68h40.376C59.712 61.68 65 56.391 65 49.867v-26.62c0-6.523-5.288-11.812-11.812-11.812H12.812C6.288 11.435 1 16.724 1 23.247z" opacity="1" data-original="url(#e)" class=""></path><path fill="url(#f)" d="M51.496 36.557c0 10.212-8.278 18.49-18.49 18.49-10.212 0-18.502-8.278-18.502-18.49 0-10.212 8.29-18.49 18.502-18.49s18.49 8.278 18.49 18.49z" opacity="1" data-original="url(#f)"></path><path fill="url(#g)" d="M46.023 36.557c0 7.19-5.828 13.02-13.019 13.02-7.19 0-13.027-5.83-13.027-13.02 0-7.19 5.837-13.019 13.027-13.019 7.19 0 13.02 5.829 13.02 13.02z" opacity="1" data-original="url(#g)"></path><path fill="url(#h)" d="M39.717 36.557a6.715 6.715 0 0 1-6.715 6.715 6.718 6.718 0 0 1-6.719-6.715 6.718 6.718 0 0 1 6.72-6.714 6.715 6.715 0 0 1 6.714 6.714z" opacity="1" data-original="url(#h)"></path><path fill="url(#i)" d="M57.378 22.015a2.949 2.949 0 0 1-2.947 2.948c-1.638 0-2.959-1.32-2.959-2.948s1.32-2.958 2.959-2.958a2.958 2.958 0 0 1 2.947 2.958z" opacity="1" data-original="url(#i)"></path><path fill="url(#j)" d="M23.38 7.755v3.678h-7.941V7.755c0-1.054.854-1.909 1.909-1.909h4.123c1.054 0 1.909.855 1.909 1.91z" opacity="1" data-original="url(#j)" class=""></path></g></svg>