<svg width="25" height="23" viewBox="0 0 25 23" fill="none" xmlns="http://www.w3.org/2000/svg">
<path d="M24.6117 4.13208L18.5305 7.87896L12.6992 0.100833C12.6758 0.0695277 12.6453 0.0441169 12.6103 0.0266147C12.5754 0.00911245 12.5368 0 12.4977 0C12.4585 0 12.42 0.00911245 12.385 0.0266147C12.35 0.0441169 12.3195 0.0695277 12.2961 0.100833L6.46796 7.87896L0.38359 4.13208C0.205465 4.02271 -0.0257853 4.16958 0.00233969 4.37896L2.38984 22.5227C2.42421 22.7696 2.63671 22.9602 2.88984 22.9602H22.1117C22.3617 22.9602 22.5773 22.7727 22.6086 22.5227L24.9961 4.37896C25.0211 4.16958 24.793 4.02271 24.6117 4.13208ZM12.4992 18.4352C10.5586 18.4352 8.98046 16.8571 8.98046 14.9165C8.98046 12.9758 10.5586 11.3977 12.4992 11.3977C14.4398 11.3977 16.018 12.9758 16.018 14.9165C16.018 16.8571 14.4398 18.4352 12.4992 18.4352ZM12.4992 13.4071C11.668 13.4071 10.993 14.0821 10.993 14.9165C10.993 15.7477 11.668 16.4258 12.4992 16.4258C13.3305 16.4258 14.0055 15.7508 14.0055 14.9165C14.0055 14.0852 13.3305 13.4071 12.4992 13.4071Z" fill="#42C2FF"/>
</svg>
