<svg width="27" height="25" viewBox="0 0 27 25" fill="none" xmlns="http://www.w3.org/2000/svg">
<path d="M26.4451 16.9696L22.8125 13.337L22.8882 13.2613C23.7691 12.3805 23.7694 10.9472 22.8894 10.0658C22.8884 10.0648 22.8874 10.0638 22.8863 10.0628C22.6686 9.8452 22.4142 9.67751 22.1372 9.56559C22.3772 8.95873 22.4293 7.93163 21.6325 7.1349C21.6305 7.13287 21.6285 7.13083 21.6262 7.1286C21.4095 6.91329 21.1567 6.74722 20.8816 6.63591C21.1211 6.03007 21.1734 5.00216 20.3775 4.20584C20.3769 4.20543 20.3765 4.20482 20.3761 4.20441C20.1581 3.98646 19.9035 3.81856 19.6262 3.70623C19.7293 3.44472 19.7835 3.16368 19.7835 2.87409C19.7835 2.27029 19.5482 1.70271 19.1215 1.27575C19.1213 1.27555 19.1213 1.27534 19.1211 1.27534C19.1209 1.27514 19.1207 1.27494 19.1204 1.27473C18.2391 0.393345 16.805 0.393345 15.9236 1.27473L15.8481 1.35044L14.7265 0.228912C14.4888 -0.0089869 14.1252 -0.0678003 13.8246 0.0823875L10.9643 1.51263C10.0886 0.823558 8.80226 0.865887 7.97501 1.69029C7.97359 1.69151 7.97237 1.69294 7.97094 1.69416C7.78168 1.88342 7.18154 2.55581 7.33193 3.61485C6.9528 3.71193 6.59402 3.90811 6.29791 4.20421C6.29771 4.20461 6.2973 4.20482 6.2971 4.20502C6.2971 4.20523 6.2971 4.20523 6.2969 4.20523C5.50119 5.00094 5.55105 6.02437 5.79301 6.63591C5.51747 6.74722 5.2643 6.91329 5.04737 7.1288C5.04533 7.13083 5.0433 7.13287 5.04126 7.1349C4.24576 7.93061 4.29561 8.95405 4.53738 9.56559C4.26041 9.67751 4.00582 9.8448 3.78807 10.0623C3.78664 10.0636 3.78542 10.0648 3.7842 10.0662C2.90302 10.9492 2.90221 12.3776 3.78583 13.2613L3.86153 13.337L0.228945 16.9696C-0.0763149 17.2748 -0.0763149 17.7695 0.228945 18.0748C0.534001 18.3801 1.02893 18.3799 1.33398 18.0748L5.15909 14.2497C5.73746 14.421 6.6687 14.4141 7.40214 13.6807C7.40336 13.6795 7.40479 13.678 7.40601 13.6766C7.79267 13.2887 8.0206 12.7851 8.05865 12.2439C8.6012 12.2057 9.1063 11.9765 9.49459 11.5882C9.4948 11.588 9.495 11.5878 9.4952 11.5876C9.49541 11.5874 9.49541 11.5874 9.49561 11.5872C9.88431 11.1985 10.1133 10.693 10.1513 10.1501C10.6743 10.1128 11.1867 9.89547 11.5858 9.4968C11.5873 9.49558 11.5885 9.49436 11.5897 9.49314C11.9882 9.09386 12.2053 8.58163 12.2427 8.05882C12.7851 8.02077 13.29 7.79223 13.6787 7.40414C13.6799 7.40292 13.6811 7.4017 13.6821 7.40048C14.4138 6.66765 14.4215 5.73926 14.2497 5.15906L17.029 2.37977C17.3009 2.10789 17.7435 2.10789 18.0154 2.37977C18.0158 2.38018 18.016 2.38038 18.0164 2.38079C18.2889 2.65328 18.2891 3.09449 18.0164 3.36719L16.1517 5.23192C15.8464 5.53717 15.8464 6.0319 16.1517 6.33716C16.4568 6.64222 16.9515 6.64242 17.2567 6.33716L18.2875 5.3066C18.56 5.03716 18.9988 5.03757 19.2706 5.30904C19.2712 5.30965 19.2719 5.31027 19.2725 5.31088C19.5444 5.58317 19.5446 6.02417 19.2719 6.29686L17.8066 7.76211C17.5016 8.06737 17.5016 8.5621 17.8066 8.86735C18.1119 9.17261 18.6066 9.17241 18.9119 8.86735L19.5401 8.23913C19.8126 7.96664 20.2538 7.96623 20.5265 8.23913C20.5279 8.24055 20.5293 8.24178 20.5307 8.2432C20.7998 8.5157 20.7994 8.95466 20.5275 9.22654L19.0622 10.6918C18.7572 10.9968 18.757 11.4918 19.0622 11.797C19.3673 12.1021 19.8622 12.1021 20.1675 11.797L20.798 11.1664C21.0707 10.8963 21.51 10.8967 21.7821 11.1688C21.7823 11.1688 21.7825 11.169 21.7825 11.1692C21.7827 11.1692 21.7829 11.1694 21.7831 11.1696C22.055 11.4417 22.055 11.8841 21.7831 12.1562L16.4791 17.46C15.8635 18.0756 15.045 18.4147 14.1742 18.4149C14.174 18.4149 14.174 18.4149 14.1736 18.4149H12.5C12.2926 18.4149 12.0938 18.4971 11.9475 18.6438L6.92512 23.6659C6.62006 23.971 6.62006 24.4659 6.92512 24.771C7.23038 25.0764 7.72531 25.0762 8.03036 24.771L12.8238 19.9778H13.8502L18.6436 24.771C18.9489 25.0762 19.4438 25.0762 19.7489 24.771C20.0539 24.4659 20.0539 23.9712 19.7489 23.6659L15.7856 19.7029C16.4545 19.4664 17.0679 19.0818 17.5844 18.5653L21.7074 14.4422L25.34 18.0748C25.6451 18.3801 26.14 18.3799 26.4451 18.0748C26.7503 17.7695 26.7503 17.2748 26.4451 16.9696ZM14.0198 1.73242L14.743 2.45548L13.337 3.8615L12.1451 2.66957L14.0198 1.73242ZM6.29791 12.5746C6.2969 12.5756 6.29588 12.5767 6.29486 12.5777C6.0244 12.8459 5.58462 12.85 5.3103 12.5756L4.89107 12.1562C4.61858 11.8837 4.61817 11.4425 4.89087 11.1696C4.89107 11.1694 4.89128 11.1692 4.89148 11.1692C4.89148 11.169 4.89168 11.1688 4.89189 11.1688C5.16438 10.8963 5.60559 10.8959 5.87828 11.1686L6.29791 11.588C6.57041 11.8605 6.57061 12.3019 6.29791 12.5746ZM8.39037 10.4822C8.39016 10.4824 8.38976 10.4828 8.38955 10.483C8.11706 10.7555 7.67586 10.7559 7.40295 10.483L6.14651 9.22654C5.87462 8.95466 5.87421 8.5157 6.14325 8.2432C6.14467 8.24198 6.1461 8.24055 6.14752 8.23913C6.41981 7.96664 6.86102 7.96643 7.13392 8.23913L8.39037 9.49558C8.66286 9.76807 8.66327 10.2093 8.39037 10.4822ZM10.483 8.38952C10.4828 8.38973 10.4828 8.38973 10.4826 8.38993C10.4824 8.39013 10.4822 8.39034 10.482 8.39034C10.2101 8.66242 9.7675 8.66242 9.49561 8.39034L7.40194 6.29686C7.12944 6.02437 7.12924 5.58317 7.40194 5.31047C7.40234 5.31006 7.40255 5.30986 7.40295 5.30945C7.67464 5.03777 8.11665 5.03757 8.38874 5.30884L10.483 7.40292V7.40313C10.7551 7.67521 10.7549 8.11764 10.483 8.38952ZM12.5757 6.29686C12.5755 6.29707 12.5753 6.29727 12.5751 6.29748C12.5749 6.29748 12.5749 6.29768 12.5747 6.29788C12.3022 6.57038 11.861 6.57058 11.5881 6.29788L9.07618 3.7858C8.80349 3.5133 8.8041 3.07353 9.07415 2.80123C9.07517 2.80022 9.07618 2.7994 9.0772 2.79838C9.34949 2.52589 9.7907 2.52548 10.0636 2.79838L12.5755 5.31027C12.8482 5.58276 12.8484 6.02417 12.5757 6.29686Z" fill="#42C2FF"/>
</svg>
