<svg width="21" height="21" viewBox="0 0 21 21" fill="none" xmlns="http://www.w3.org/2000/svg">
<path d="M10.2038 20.2232L8.72425 18.7905C7.00661 17.119 5.58658 15.6771 4.46416 14.4648C3.34175 13.2525 2.44891 12.1642 1.78567 11.1999C1.12242 10.2356 0.658996 9.34933 0.395397 8.54114C0.131799 7.73295 0 6.90638 0 6.06145C0 4.33486 0.5357 2.89297 1.6071 1.73578C2.6785 0.578593 4.0135 0 5.61209 0C6.49642 0 7.33824 0.202048 8.13753 0.606145C8.93683 1.01024 9.62559 1.57965 10.2038 2.31437C10.782 1.57965 11.4708 1.01024 12.2701 0.606145C13.0694 0.202048 13.9112 0 14.7955 0C16.3941 0 17.7291 0.578593 18.8005 1.73578C19.8719 2.89297 20.4076 4.33486 20.4076 6.06145C20.4076 6.90638 20.2758 7.73295 20.0122 8.54114C19.7486 9.34933 19.2852 10.2356 18.6219 11.1999C17.9587 12.1642 17.0659 13.2525 15.9434 14.4648C14.821 15.6771 13.401 17.119 11.6834 18.7905L10.2038 20.2232ZM10.2038 17.2476C11.8364 15.6679 13.1799 14.3133 14.2343 13.1837C15.2887 12.054 16.122 11.0713 16.7342 10.2356C17.3465 9.39985 17.7716 8.65594 18.0097 8.00388C18.2478 7.35181 18.3668 6.70434 18.3668 6.06145C18.3668 4.95937 18.0267 4.04097 17.3465 3.30625C16.6662 2.57153 15.8159 2.20417 14.7955 2.20417C13.9962 2.20417 13.2564 2.44754 12.5762 2.9343C11.8959 3.42105 11.4283 4.04097 11.1732 4.79406H9.23444C8.97935 4.04097 8.51167 3.42105 7.83142 2.9343C7.15117 2.44754 6.41139 2.20417 5.61209 2.20417C4.59171 2.20417 3.7414 2.57153 3.06114 3.30625C2.38089 4.04097 2.04076 4.95937 2.04076 6.06145C2.04076 6.70434 2.15981 7.35181 2.39789 8.00388C2.63598 8.65594 3.06114 9.39985 3.67337 10.2356C4.2856 11.0713 5.11891 12.054 6.1733 13.1837C7.2277 14.3133 8.5712 15.6679 10.2038 17.2476Z" fill="#42C2FF"/>
</svg>
