<svg id="fi_2147142" fill="#42C2FF" enable-background="new 0 0 512 512" height="512" viewBox="0 0 512 512" width="512" xmlns="http://www.w3.org/2000/svg"><path d="m467.074 122.927 28.758-28.751c10.418-10.417 16.154-24.271 16.154-39.007 0-14.738-5.738-28.592-16.154-39.004-10.42-10.424-24.275-16.165-39.014-16.165-14.736 0-28.59 5.739-39.006 16.158l-28.756 28.754-40.521-40.519c-2.812-2.813-6.627-4.393-10.605-4.393h-152.631c-30.414 0-55.16 24.746-55.164 55.165 0 14.736 5.738 28.59 16.158 39.01s24.273 16.157 39.008 16.156l113.143.002 12.598 12.598-294.896 294.895c-21.511 21.507-21.513 56.504-.003 78.017 10.419 10.419 24.273 16.157 39.01 16.157h.001c14.735 0 28.59-5.738 39.008-16.156l294.896-294.895 12.594 12.594.002 113.145c0 30.415 24.748 55.164 55.166 55.17h.006c30.42-.006 55.164-24.756 55.158-55.17l.004-152.637c0-3.979-1.58-7.794-4.393-10.607zm-394.125 351.704c-4.753 4.752-11.072 7.369-17.797 7.369-6.724 0-13.045-2.618-17.797-7.369-9.813-9.813-9.813-25.779.001-35.59l294.896-294.896 35.59 35.592zm366.076-437.26c4.752-4.753 11.07-7.371 17.793-7.371s13.043 2.619 17.801 7.378c4.75 4.75 7.367 11.068 7.367 17.791s-2.615 13.042-7.367 17.793l-28.758 28.753-35.59-35.59zm42.957 289.318c.004 13.873-11.285 25.164-25.162 25.168-13.877-.004-25.168-11.295-25.168-25.17l-.002-119.357c0-3.979-1.58-7.794-4.395-10.606l-70.195-70.197-14.201-14.201c-.002-.004-.006-.006-.01-.01l-27.588-27.588c-2.814-2.813-6.629-4.394-10.607-4.394l-119.354-.002c-6.723 0-13.041-2.617-17.795-7.37-4.752-4.753-7.371-11.073-7.371-17.795.002-13.877 11.291-25.166 25.164-25.166h146.418l46.703 46.701c.012.01.02.021.029.031l56.803 56.803c.018.018.037.032.057.05l46.68 46.678z"></path></svg>
