<svg width="25" height="25" viewBox="0 0 25 25" fill="none" xmlns="http://www.w3.org/2000/svg">
<path d="M22.8068 6.0023L24.2111 4.59844C24.7198 4.0898 24.9999 3.41333 24.9999 2.6938C24.9999 1.97417 24.7197 1.29771 24.2111 0.789307C23.7023 0.280322 23.0257 0 22.306 0C21.5865 0 20.91 0.280225 20.4014 0.788965L18.9972 2.19297L17.0185 0.214502C16.8812 0.0771484 16.6949 0 16.5007 0H9.04765C7.56253 0 6.35417 1.2083 6.35397 2.6936C6.35397 3.41313 6.63416 4.0896 7.14297 4.59839C7.65179 5.10718 8.32823 5.3873 9.04775 5.38726L14.5726 5.38735L15.1877 6.00249L0.787848 20.4017C-0.262543 21.4518 -0.26264 23.1606 0.787701 24.2111C1.29646 24.7198 1.97296 25 2.69257 25C3.41209 25 4.08868 24.7198 4.5974 24.2111L18.9973 9.81196L19.6123 10.4269L19.6123 15.9516C19.6123 17.4367 20.8208 18.6451 22.3061 18.6454H22.3064C23.7918 18.6451 25.0001 17.4366 24.9998 15.9516L25 8.49858C25 8.3043 24.9228 8.11802 24.7855 7.98066L22.8068 6.0023ZM3.56156 23.1753C3.32947 23.4074 3.02091 23.5352 2.69253 23.5352C2.36419 23.5352 2.05553 23.4073 1.82349 23.1753C1.34432 22.6962 1.34432 21.9166 1.82354 21.4375L16.2234 7.03833L17.9613 8.77622L3.56156 23.1753ZM21.4372 1.82476C21.6692 1.59268 21.9777 1.46484 22.306 1.46484C22.6343 1.46484 22.9429 1.59272 23.1753 1.8251C23.4072 2.05703 23.535 2.36553 23.535 2.6938C23.535 3.02207 23.4073 3.33062 23.1753 3.5626L21.771 4.96655L20.0331 3.22876L21.4372 1.82476ZM23.5348 15.9516C23.535 16.629 22.9837 17.1803 22.3061 17.1805C21.6285 17.1803 21.0772 16.629 21.0772 15.9515L21.0771 10.1235C21.0771 9.92925 20.9999 9.74297 20.8625 9.60566L17.4348 6.17808L16.7414 5.48467C16.7413 5.48447 16.7411 5.48438 16.7409 5.48418L15.3937 4.13711C15.2563 3.99976 15.07 3.92256 14.8758 3.92256L9.0477 3.92246C8.71941 3.92246 8.4109 3.79468 8.17877 3.5626C7.94672 3.33052 7.81884 3.02192 7.81884 2.6937C7.81893 2.01611 8.37018 1.46489 9.0476 1.46489H16.1973L18.4778 3.74522C18.4784 3.7457 18.4788 3.74624 18.4792 3.74673L21.2529 6.52031C21.2538 6.52119 21.2547 6.52187 21.2557 6.52275L23.5351 8.80195L23.5348 15.9516Z" fill="#42C2FF"/>
</svg>
