<svg xmlns="http://www.w3.org/2000/svg" version="1.1" xmlns:xlink="http://www.w3.org/1999/xlink" width="512" height="512" x="0" y="0" viewBox="0 0 512 512" style="enable-background:new 0 0 512 512" xml:space="preserve" class=""><g transform="matrix(0.9199999999999998,0,0,0.9199999999999998,20.479999084472666,20.48000091552737)"><linearGradient id="a"><stop offset="0" stop-color="#62dbfb"></stop><stop offset=".191" stop-color="#57d5fa"></stop><stop offset=".523" stop-color="#3bc5f7"></stop><stop offset=".954" stop-color="#0dabf2"></stop><stop offset="1" stop-color="#08a9f1"></stop></linearGradient><linearGradient xlink:href="#a" id="e" x1="170.521" x2="333.164" y1="197.584" y2="483.17" gradientUnits="userSpaceOnUse"></linearGradient><linearGradient id="b"><stop offset="0" stop-color="#0593fc" stop-opacity="0"></stop><stop offset=".683" stop-color="#0389fc" stop-opacity=".683"></stop><stop offset="1" stop-color="#0182fc"></stop></linearGradient><linearGradient xlink:href="#b" id="f" x1="256" x2="256" y1="455.176" y2="502.869" gradientUnits="userSpaceOnUse"></linearGradient><linearGradient xlink:href="#b" id="g" x1="378.106" x2="458.654" y1="347.677" y2="347.677" gradientUnits="userSpaceOnUse"></linearGradient><linearGradient xlink:href="#b" id="h" x1="256" x2="256" y1="315.992" y2="245.149" gradientUnits="userSpaceOnUse"></linearGradient><linearGradient xlink:href="#a" id="i" x1="256" x2="256" y1="141.177" y2="183.424" gradientUnits="userSpaceOnUse"></linearGradient><linearGradient xlink:href="#b" id="j" x1="379.955" x2="469.807" y1="188.548" y2="188.548" gradientUnits="userSpaceOnUse"></linearGradient><linearGradient xlink:href="#b" id="k" x1="256" x2="256" y1="212.687" y2="249.47" gradientUnits="userSpaceOnUse"></linearGradient><linearGradient xlink:href="#b" id="l" x1="362.731" x2="305.035" y1="316.793" y2="316.793" gradientUnits="userSpaceOnUse"></linearGradient><linearGradient xlink:href="#b" id="m" x1="281.05" x2="278.585" y1="200.874" y2="135.782" gradientUnits="userSpaceOnUse"></linearGradient><linearGradient id="c"><stop offset="0" stop-color="#fef0ae"></stop><stop offset="1" stop-color="#fbc56d"></stop></linearGradient><linearGradient xlink:href="#c" id="n" x1="222.56" x2="295.898" y1="316.793" y2="316.793" gradientUnits="userSpaceOnUse"></linearGradient><linearGradient id="d"><stop offset="0" stop-color="#dc8758" stop-opacity="0"></stop><stop offset=".215" stop-color="#dd8654" stop-opacity=".215"></stop><stop offset=".429" stop-color="#e28448" stop-opacity=".429"></stop><stop offset=".642" stop-color="#ea8034" stop-opacity=".642"></stop><stop offset=".854" stop-color="#f47b18" stop-opacity=".854"></stop><stop offset="1" stop-color="#fe7701"></stop></linearGradient><linearGradient xlink:href="#d" id="o" x1="256" x2="256" y1="478.364" y2="510.384" gradientUnits="userSpaceOnUse"></linearGradient><linearGradient xlink:href="#d" id="p" x1="284.324" x2="311.692" y1="316.793" y2="316.793" gradientUnits="userSpaceOnUse"></linearGradient><linearGradient xlink:href="#d" id="q" x1="256" x2="256" y1="201.806" y2="153.932" gradientUnits="userSpaceOnUse"></linearGradient><linearGradient xlink:href="#c" id="r" x1="135.078" x2="146.629" y1="41.64" y2="128.687" gradientUnits="userSpaceOnUse"></linearGradient><linearGradient xlink:href="#d" id="s" x1="147.292" x2="52.407" y1="93.839" y2="71.975" gradientUnits="userSpaceOnUse"></linearGradient><linearGradient xlink:href="#c" id="t" x1="77.465" x2="177.026" y1="53.162" y2="119.719" gradientUnits="userSpaceOnUse"></linearGradient><linearGradient xlink:href="#d" id="u" x1="155.914" x2="155.914" y1="110.4" y2="150.298" gradientUnits="userSpaceOnUse"></linearGradient><linearGradient xlink:href="#c" id="v" x1="206.831" x2="218.382" y1="41.64" y2="128.687" gradientTransform="matrix(-1 0 0 1 583.753 0)" gradientUnits="userSpaceOnUse"></linearGradient><linearGradient xlink:href="#d" id="w" x1="219.045" x2="124.16" y1="93.839" y2="71.975" gradientTransform="matrix(-1 0 0 1 583.753 0)" gradientUnits="userSpaceOnUse"></linearGradient><linearGradient xlink:href="#c" id="x" x1="333.696" x2="413.089" y1="70.794" y2="140.817" gradientUnits="userSpaceOnUse"></linearGradient><linearGradient xlink:href="#d" id="y" x1="420.36" x2="453.399" y1="70.366" y2="63.462" gradientUnits="userSpaceOnUse"></linearGradient><linearGradient xlink:href="#d" id="z" x1="227.668" x2="227.668" y1="110.4" y2="150.298" gradientTransform="matrix(-1 0 0 1 583.753 0)" gradientUnits="userSpaceOnUse"></linearGradient><linearGradient xlink:href="#d" id="A" x1="347.918" x2="309.085" y1="93.437" y2="103.053" gradientUnits="userSpaceOnUse"></linearGradient><linearGradient xlink:href="#c" id="B" x1="244.801" x2="268.471" y1="99.334" y2="146.674" gradientUnits="userSpaceOnUse"></linearGradient><linearGradient xlink:href="#d" id="C" x1="279.484" x2="248.417" y1="117.082" y2="81.207" gradientUnits="userSpaceOnUse"></linearGradient><linearGradient xlink:href="#d" id="D" x1="292.3" x2="318.189" y1="119.056" y2="116.837" gradientUnits="userSpaceOnUse"></linearGradient><linearGradient xlink:href="#d" id="E" x1="238.908" x2="249.263" y1="137.657" y2="165.395" gradientUnits="userSpaceOnUse"></linearGradient><linearGradient xlink:href="#d" id="F" x1="256" x2="256" y1="133.754" y2="160.753" gradientUnits="userSpaceOnUse"></linearGradient><path fill="url(#e)" d="M437.332 506.805H74.668c-12.326 0-22.318-9.992-22.318-22.318V210.866c0-12.326 9.992-22.318 22.318-22.318h362.663c12.326 0 22.318 9.992 22.318 22.318v273.621c.001 12.326-9.991 22.318-22.317 22.318z" opacity="1" data-original="url(#e)"></path><path fill="url(#f)" d="M52.35 364.711v119.776c0 12.326 9.992 22.318 22.318 22.318h362.663c12.326 0 22.318-9.992 22.318-22.318V364.711z" opacity="1" data-original="url(#f)"></path><path fill="url(#g)" d="M437.332 188.548H247.345v318.258h189.986c12.326 0 22.318-9.992 22.318-22.318V210.866c.001-12.326-9.991-22.318-22.317-22.318z" opacity="1" data-original="url(#g)"></path><path fill="url(#h)" d="M437.332 188.548H74.668c-12.326 0-22.318 9.992-22.318 22.318v127.807h407.3V210.866c0-12.326-9.992-22.318-22.318-22.318z" opacity="1" data-original="url(#h)"></path><path fill="url(#i)" d="M426.701 126.781H85.299a18.4 18.4 0 0 0-11.56 4.085l-8.682 7.012a67.058 67.058 0 0 0-24.926 52.17v41.868c0 10.161 8.237 18.399 18.399 18.399h394.94c10.161 0 18.399-8.237 18.399-18.399v-41.868a67.058 67.058 0 0 0-24.926-52.17l-8.682-7.012a18.4 18.4 0 0 0-11.56-4.085z" opacity="1" data-original="url(#i)"></path><path fill="url(#j)" d="m446.943 137.878-8.682-7.012a18.4 18.4 0 0 0-11.56-4.085H210.152v123.534H453.47c10.161 0 18.399-8.237 18.399-18.399v-41.868a67.058 67.058 0 0 0-24.926-52.17z" opacity="1" data-original="url(#j)"></path><path fill="url(#k)" d="M40.131 201.812v30.103c0 10.161 8.237 18.399 18.399 18.399h394.94c10.161 0 18.399-8.237 18.399-18.399v-30.103z" opacity="1" data-original="url(#k)"></path><path fill="url(#l)" d="M272.489 506.805h161.252V128.198a18.391 18.391 0 0 0-7.04-1.417H272.489z" opacity="1" data-original="url(#l)"></path><path fill="url(#m)" d="m446.943 137.878-8.682-7.012a18.4 18.4 0 0 0-11.56-4.085H98.583l-11.192 11.192 363.907 363.908c5.088-4.091 8.351-10.357 8.351-17.393v-235.26c7.116-2.542 12.219-9.322 12.219-17.312v-41.868a67.054 67.054 0 0 0-24.925-52.17z" opacity="1" data-original="url(#m)"></path><path fill="url(#n)" d="M313.173 192.808v309.947a9.245 9.245 0 0 1-9.245 9.245h-95.856a9.245 9.245 0 0 1-9.245-9.245V192.808c0-22.807 2.428-44.4 6.599-58.729l2.303-7.896c.861-2.978 1.951-4.597 3.061-4.597h90.418c1.11 0 2.2 1.619 3.061 4.597l2.303 7.896c4.173 14.33 6.601 35.923 6.601 58.729z" opacity="1" data-original="url(#n)" class=""></path><path fill="url(#o)" d="M198.827 402.176v100.579a9.245 9.245 0 0 0 9.245 9.245h95.856a9.245 9.245 0 0 0 9.245-9.245V402.176z" opacity="1" data-original="url(#o)"></path><path fill="url(#p)" d="M304.27 126.183c-.861-2.978-1.951-4.597-3.061-4.597h-62.006V512h64.725a9.245 9.245 0 0 0 9.245-9.245V192.808c0-22.807-2.428-44.4-6.599-58.729z" opacity="1" data-original="url(#p)"></path><path fill="url(#q)" d="M304.27 126.183c-.861-2.978-1.951-4.597-3.061-4.597h-90.418c-1.11 0-2.2 1.619-3.061 4.597l-2.303 7.896c-4.171 14.33-6.599 35.922-6.599 58.729v103.677h114.346V192.808c0-22.807-2.428-44.4-6.599-58.729z" opacity="1" data-original="url(#q)" class=""></path><path fill="url(#r)" d="M214.512 114.151v19.971a3.85 3.85 0 0 1-3.851 3.851h-89.426a42.475 42.475 0 0 1-36.794-21.254l-7.257-12.583a48.017 48.017 0 0 1-3.894-39.365l11.187-33.096a3.85 3.85 0 0 1 2.21-2.339c2.663-1.072 5.505 1.04 5.265 3.9-1.786 21.257 6.078 42.606 22.086 57.688a71.395 71.395 0 0 0 22.546 14.352 71.198 71.198 0 0 0 26.25 5.023h47.827a3.852 3.852 0 0 1 3.851 3.852z" opacity="1" data-original="url(#r)"></path><path fill="url(#s)" d="M214.512 114.151v19.971a3.85 3.85 0 0 1-3.851 3.851h-89.426a42.475 42.475 0 0 1-36.794-21.254l-7.257-12.583a48.017 48.017 0 0 1-3.894-39.365l11.187-33.096a3.85 3.85 0 0 1 2.21-2.339c2.663-1.072 5.505 1.04 5.265 3.9-1.786 21.257 6.078 42.606 22.086 57.688a71.395 71.395 0 0 0 22.546 14.352 71.198 71.198 0 0 0 26.25 5.023h47.827a3.852 3.852 0 0 1 3.851 3.852z" opacity="1" data-original="url(#s)"></path><path fill="url(#t)" d="M132.828 15.116C116.995-8.229 81.312-3.669 71.67 22.836L60.119 54.537c-9.722 26.69-2.627 56.609 18.044 76.088a71.395 71.395 0 0 0 22.546 14.352 71.198 71.198 0 0 0 26.25 5.023H256v-43.067c-32.801-8.958-82.662-32.083-123.172-91.817zm-14.889 117.283a41.255 41.255 0 0 1-15.208-2.91 41.2 41.2 0 0 1-23.517-52.398l6.692-18.367c5.586-15.356 28.057-19.056 35.433-4.473 20.322 40.184 55.148 61.205 79.238 71.36 3.557 1.5 2.501 6.788-1.359 6.788z" opacity="1" data-original="url(#t)" class=""></path><path fill="url(#u)" d="M200.577 125.611c3.557 1.5 2.501 6.788-1.359 6.788h-81.279a41.255 41.255 0 0 1-15.208-2.91 41.358 41.358 0 0 1-13.063-8.315c-11.757-11.079-15.91-27.982-10.73-43.227H55.834c-.252 19.564 7.579 38.78 22.329 52.679a71.395 71.395 0 0 0 22.546 14.352 71.198 71.198 0 0 0 26.25 5.023H256v-43.067c-17.185-4.693-39.054-13.289-61.806-28.987h-57.709c19.891 25.161 45.269 39.729 64.092 47.664z" opacity="1" data-original="url(#u)"></path><path fill="url(#v)" d="M297.488 114.151v19.971a3.85 3.85 0 0 0 3.851 3.851h89.426a42.475 42.475 0 0 0 36.794-21.254l7.257-12.583a48.02 48.02 0 0 0 3.894-39.365l-11.187-33.096a3.85 3.85 0 0 0-2.21-2.339c-2.663-1.072-5.505 1.04-5.265 3.9 1.786 21.257-6.078 42.606-22.086 57.688a71.395 71.395 0 0 1-22.546 14.352 71.198 71.198 0 0 1-26.25 5.023h-47.827a3.852 3.852 0 0 0-3.851 3.852z" opacity="1" data-original="url(#v)"></path><path fill="url(#w)" d="M297.488 114.151v19.971a3.85 3.85 0 0 0 3.851 3.851h89.426a42.475 42.475 0 0 0 36.794-21.254l7.257-12.583a48.02 48.02 0 0 0 3.894-39.365l-11.187-33.096a3.85 3.85 0 0 0-2.21-2.339c-2.663-1.072-5.505 1.04-5.265 3.9 1.786 21.257-6.078 42.606-22.086 57.688a71.395 71.395 0 0 1-22.546 14.352 71.198 71.198 0 0 1-26.25 5.023h-47.827a3.852 3.852 0 0 0-3.851 3.852z" opacity="1" data-original="url(#w)" class=""></path><path fill="url(#x)" d="M256 106.934v43.067h129.04a71.198 71.198 0 0 0 26.25-5.023 71.384 71.384 0 0 0 22.546-14.352c20.671-19.479 27.766-49.398 18.044-76.088l-11.55-31.702c-9.641-26.505-45.324-31.065-61.158-7.72C338.662 74.85 288.801 97.975 256 106.934zm56.782 25.465c-3.86 0-4.916-5.289-1.359-6.788 24.091-10.155 58.916-31.175 79.238-71.36 7.375-14.584 29.847-10.883 35.433 4.473l6.692 18.367a41.199 41.199 0 0 1-23.517 52.398 41.235 41.235 0 0 1-15.208 2.91z" opacity="1" data-original="url(#x)"></path><path fill="url(#y)" d="M440.33 22.836c-9.641-26.505-45.325-31.065-61.158-7.72-10.816 15.949-22.3 29.266-33.947 40.422v51.166c16.74-12.049 33.563-28.976 45.436-52.453 7.376-14.584 29.847-10.883 35.433 4.473l6.692 18.367a41.199 41.199 0 0 1-23.517 52.398 41.255 41.255 0 0 1-15.208 2.91h-48.836v17.602h39.815a71.198 71.198 0 0 0 26.25-5.023 71.384 71.384 0 0 0 22.546-14.352c20.672-19.479 27.766-49.398 18.044-76.088z" opacity="1" data-original="url(#y)"></path><path fill="url(#z)" d="M311.423 125.611c-3.557 1.5-2.501 6.788 1.359 6.788h81.279c5.25 0 10.407-1.006 15.208-2.91a41.358 41.358 0 0 0 13.063-8.315c11.757-11.079 15.91-27.982 10.73-43.227h23.103c.252 19.564-7.579 38.78-22.329 52.679a71.395 71.395 0 0 1-22.546 14.352 71.198 71.198 0 0 1-26.25 5.023H256v-43.067c17.185-4.693 39.054-13.289 61.806-28.987h57.709c-19.891 25.161-45.269 39.729-64.092 47.664z" opacity="1" data-original="url(#z)"></path><path fill="url(#A)" d="M372.262 132.399h-59.48c-3.86 0-4.917-5.289-1.359-6.788 17.813-7.509 41.49-20.97 60.839-43.715V24.817C333.114 77.385 286.96 98.478 256 106.934v43.067h116.262z" opacity="1" data-original="url(#A)"></path><path fill="url(#B)" d="M293.915 77.947c-11.395 0-25.524 4.91-37.915 13.102-12.39-8.192-26.52-13.102-37.915-13.102-26.433 0-28.133 26.404-28.133 58.974 0 20.506 37.939 28.097 66.048 22.782 28.109 5.315 66.048-2.276 66.048-22.782 0-32.57-1.7-58.974-28.133-58.974z" opacity="1" data-original="url(#B)"></path><path fill="url(#C)" d="M322.044 136.925c0 20.503-37.935 28.099-66.044 22.786 16.54-3.123 29.676-10.719 29.676-22.786 0-18.532-13.323-35.061-29.676-45.873 12.389-8.197 26.511-13.105 37.915-13.105 26.428 0 28.129 26.407 28.129 58.978z" opacity="1" data-original="url(#C)"></path><path fill="url(#D)" d="M322.044 136.925c0 20.503-37.935 28.099-66.044 22.786 16.54-3.123 29.676-10.719 29.676-22.786 0-18.532-13.323-35.061-29.676-45.873 12.389-8.197 26.511-13.105 37.915-13.105 26.428 0 28.129 26.407 28.129 58.978z" opacity="1" data-original="url(#D)"></path><path fill="url(#E)" d="M285.676 136.925c0 12.057-13.116 19.652-29.645 22.776H256c-28.109 5.313-66.044-2.272-66.044-22.776 0-32.571 1.702-58.978 28.13-58.978 11.393 0 25.525 4.908 37.915 13.105 16.352 10.812 29.675 27.341 29.675 45.873z" opacity="1" data-original="url(#E)"></path><path fill="url(#F)" d="M322.044 136.925c0 20.503-37.935 28.088-66.044 22.776-28.109 5.313-66.044-2.272-66.044-22.776 0-6.018.062-11.818.322-17.276h131.445c.259 5.458.321 11.258.321 17.276z" opacity="1" data-original="url(#F)"></path></g></svg>