<svg id="Capa_1" enable-background="new 0 0 512 512" height="512" viewBox="0 0 512 512" width="512" xmlns="http://www.w3.org/2000/svg" xmlns:xlink="http://www.w3.org/1999/xlink"><linearGradient id="lg1"><stop offset="0" stop-color="#c8effe"/><stop offset="1" stop-color="#62dbfb"/></linearGradient><linearGradient id="SVGID_1_" gradientTransform="matrix(0 1 1 0 419.149 -419.149)" gradientUnits="userSpaceOnUse" x1="699.779" x2="916.885" xlink:href="#lg1" y1="-218.086" y2="-113.08"/><linearGradient id="lg2"><stop offset="0" stop-color="#07b2cd" stop-opacity="0"/><stop offset=".4553" stop-color="#05a5ce" stop-opacity=".455"/><stop offset="1" stop-color="#0290cf"/></linearGradient><linearGradient id="SVGID_00000092415391799856353040000009846652251320239024_" gradientUnits="userSpaceOnUse" x1="354.005" x2="450.242" xlink:href="#lg2" y1="394.613" y2="402.098"/><linearGradient id="SVGID_00000090291438907794312510000012727978717695498664_" gradientUnits="userSpaceOnUse" x1="434.657" x2="350.063" xlink:href="#lg2" y1="371.421" y2="334.352"/><linearGradient id="SVGID_00000165921895096415566640000009836468296151646112_" gradientUnits="userSpaceOnUse" x1="153.517" x2="326.745" xlink:href="#lg2" y1="363.181" y2="511.814"/><linearGradient id="SVGID_00000064350586991954541100000012911583657319066037_" gradientUnits="userSpaceOnUse" x1="167.256" x2="146.582" xlink:href="#lg2" y1="342.745" y2="294.983"/><linearGradient id="SVGID_00000147207072039971211410000018075450789944520371_" gradientUnits="userSpaceOnUse" x1="238.228" x2="208.575" xlink:href="#lg2" y1="394.216" y2="394.216"/><linearGradient id="SVGID_00000044868731975458827350000013167497501623716031_" gradientUnits="userSpaceOnUse" x1="256" x2="256" xlink:href="#lg2" y1="444.831" y2="508.246"/><linearGradient id="lg3"><stop offset="0" stop-color="#fdb4ba"/><stop offset="1" stop-color="#fe5694"/></linearGradient><linearGradient id="SVGID_00000176009514437028426910000018097148922502736785_" gradientUnits="userSpaceOnUse" x1="173.48" x2="219.104" xlink:href="#lg3" y1="391.854" y2="398.507"/><linearGradient id="lg4"><stop offset="0" stop-color="#fd3581" stop-opacity="0"/><stop offset=".2815" stop-color="#fa317d" stop-opacity=".282"/><stop offset=".5604" stop-color="#f02571" stop-opacity=".56"/><stop offset=".8375" stop-color="#df115e" stop-opacity=".838"/><stop offset="1" stop-color="#d2024e"/></linearGradient><linearGradient id="SVGID_00000021839171029848507810000017890547818099186331_" gradientUnits="userSpaceOnUse" x1="199.822" x2="173.446" xlink:href="#lg4" y1="351.424" y2="290.117"/><linearGradient id="SVGID_00000040548100137003614790000006936348785862467456_" gradientUnits="userSpaceOnUse" x1="189.351" x2="189.351" xlink:href="#lg4" y1="495.21" y2="509.248"/><linearGradient id="SVGID_00000137093889944634228770000009614555882106942083_" gradientTransform="matrix(.906 -.423 .423 .906 -81.086 73.957)" gradientUnits="userSpaceOnUse" x1="88.417" x2="120.791" xlink:href="#lg3" y1="222.232" y2="253.959"/><linearGradient id="SVGID_00000170994330302942030070000015891428858193478311_" gradientTransform="matrix(.906 -.423 .423 .906 -81.086 73.957)" gradientUnits="userSpaceOnUse" x1="95.344" x2="113.15" xlink:href="#lg4" y1="260.019" y2="231.853"/><linearGradient id="SVGID_00000139265602143741638550000008212625470053948049_" gradientTransform="matrix(.906 -.423 .423 .906 -81.086 73.957)" gradientUnits="userSpaceOnUse" x1="119.372" x2="110.955" xlink:href="#lg4" y1="269.563" y2="224.563"/><linearGradient id="SVGID_00000132778476150698051040000012975642029742950540_" gradientTransform="matrix(.906 -.423 .423 .906 -81.086 73.957)" gradientUnits="userSpaceOnUse" x1="102.271" x2="102.271" xlink:href="#lg4" y1="256.706" y2="286.842"/><linearGradient id="SVGID_00000055705848259839513200000009469995148099132838_" gradientTransform="matrix(.906 -.423 .423 .906 -81.086 73.957)" gradientUnits="userSpaceOnUse" x1="81.277" x2="120.773" xlink:href="#lg3" y1="171.657" y2="205.974"/><linearGradient id="SVGID_00000097458393491660618180000013420090077983996054_" gradientTransform="matrix(.906 -.423 .423 .906 -81.086 73.957)" gradientUnits="userSpaceOnUse" x1="108.775" x2="139.207" xlink:href="#lg4" y1="202.821" y2="195.051"/><linearGradient id="SVGID_00000038373226597304451000000015214182498485530523_" gradientTransform="matrix(.906 -.423 .423 .906 -81.086 73.957)" gradientUnits="userSpaceOnUse" x1="104.406" x2="130.629" xlink:href="#lg4" y1="220.339" y2="209.979"/><linearGradient id="SVGID_00000097462465872842222400000013402657351209901204_" gradientTransform="matrix(-.906 .423 .423 .906 4116.538 -1883.427)" gradientUnits="userSpaceOnUse" x1="4436.342" x2="4468.717" xlink:href="#lg3" y1="222.232" y2="253.959"/><linearGradient id="SVGID_00000015348954030800896000000015033881860973455028_" gradientTransform="matrix(-.906 .423 .423 .906 4116.538 -1883.427)" gradientUnits="userSpaceOnUse" x1="4443.269" x2="4461.075" xlink:href="#lg4" y1="260.019" y2="231.853"/><linearGradient id="SVGID_00000149380884754257074830000014632118253703900828_" gradientTransform="matrix(-.906 .423 .423 .906 4116.538 -1883.427)" gradientUnits="userSpaceOnUse" x1="4467.298" x2="4458.881" xlink:href="#lg4" y1="269.563" y2="224.563"/><linearGradient id="SVGID_00000051375077621553891560000002602719219078862783_" gradientTransform="matrix(-.906 .423 .423 .906 4116.538 -1883.427)" gradientUnits="userSpaceOnUse" x1="4450.197" x2="4450.197" xlink:href="#lg4" y1="256.706" y2="286.842"/><linearGradient id="SVGID_00000096049249283221199360000002479491845492499073_" gradientTransform="matrix(-.906 .423 .423 .906 4116.538 -1883.427)" gradientUnits="userSpaceOnUse" x1="4429.202" x2="4468.699" xlink:href="#lg3" y1="171.657" y2="205.974"/><linearGradient id="SVGID_00000023253353409730925160000015460385854656490925_" gradientTransform="matrix(-.906 .423 .423 .906 4116.538 -1883.427)" gradientUnits="userSpaceOnUse" x1="4456.701" x2="4487.133" xlink:href="#lg4" y1="202.821" y2="195.051"/><linearGradient id="SVGID_00000053527689586554380670000012243885167133105803_" gradientTransform="matrix(-.906 .423 .423 .906 4116.538 -1883.427)" gradientUnits="userSpaceOnUse" x1="4452.332" x2="4478.555" xlink:href="#lg4" y1="220.339" y2="209.979"/><linearGradient id="SVGID_00000116917890858382201200000005751992922047473294_" gradientTransform="matrix(.906 -.423 .423 .906 -2097.162 2062.248)" gradientUnits="userSpaceOnUse" x1="2798.471" x2="2820.249" xlink:href="#lg3" y1="-737.649" y2="-719.761"/><linearGradient id="SVGID_00000132062660749643109030000015228485211482511761_" gradientTransform="matrix(.906 -.423 .423 .906 -2097.162 2062.248)" gradientUnits="userSpaceOnUse" x1="2801.689" x2="2814.133" xlink:href="#lg4" y1="-735.991" y2="-750.38"/><linearGradient id="SVGID_00000136387687140155037040000018208569245205918609_" gradientTransform="matrix(.906 -.423 .423 .906 -2097.162 2062.248)" gradientUnits="userSpaceOnUse" x1="2809.294" x2="2809.294" xlink:href="#lg4" y1="-722.115" y2="-702.531"/><linearGradient id="SVGID_00000149343796626632645990000016962119496861134733_" gradientTransform="matrix(.423 .906 .906 -.423 121.652 -483.06)" gradientUnits="userSpaceOnUse" x1="625.899" x2="751.901" xlink:href="#lg1" y1="-309.213" y2="-248.271"/><linearGradient id="SVGID_00000000927731785751659480000006121217356630377369_" gradientTransform="matrix(.906 -.423 .423 .906 -81.086 73.957)" gradientUnits="userSpaceOnUse" x1="240.331" x2="328.606" xlink:href="#lg2" y1="273.107" y2="279.973"/><linearGradient id="SVGID_00000000210162042184214200000001631270688887863962_" gradientTransform="matrix(.906 -.423 .423 .906 -81.086 73.957)" gradientUnits="userSpaceOnUse" x1="196.523" x2="155.925" xlink:href="#lg2" y1="272.673" y2="272.673"/><linearGradient id="SVGID_00000160904977783353324070000014160057511484818076_" gradientTransform="matrix(.906 -.423 .423 .906 -81.086 73.957)" gradientUnits="userSpaceOnUse" x1="141.82" x2="141.82" xlink:href="#lg2" y1="288.579" y2="308.432"/><linearGradient id="SVGID_00000090990157118364664920000007690706172482891965_" gradientTransform="matrix(.906 -.423 .423 .906 -81.086 73.957)" gradientUnits="userSpaceOnUse" x1="122.968" x2="161.225" xlink:href="#lg3" y1="256.865" y2="288.944"/><linearGradient id="SVGID_00000062172386193233197540000016760682670799328404_" gradientTransform="matrix(.906 -.423 .423 .906 -81.086 73.957)" gradientUnits="userSpaceOnUse" x1="141.82" x2="141.82" xlink:href="#lg4" y1="294.456" y2="308.494"/><linearGradient id="lg5"><stop offset="0" stop-color="#8bc727"/><stop offset=".1318" stop-color="#83c528"/><stop offset=".343" stop-color="#6bbd2b"/><stop offset=".6071" stop-color="#45b131"/><stop offset=".9112" stop-color="#11a038"/><stop offset="1" stop-color="#009b3a"/></linearGradient><linearGradient id="SVGID_00000100344055130337688400000013010504558977133727_" gradientUnits="userSpaceOnUse" x1="341.634" x2="378.241" xlink:href="#lg5" y1="27.16" y2="63.767"/><linearGradient id="SVGID_00000005230933358012744320000007013487807246612906_" gradientUnits="userSpaceOnUse" x1="459.97" x2="496.578" y1="310.17" y2="346.777"><stop offset="0" stop-color="#fd4755"/><stop offset="1" stop-color="#a72b2b"/></linearGradient><linearGradient id="SVGID_00000053539007781929888210000001732470248831007623_" gradientTransform="matrix(.707 .707 -.707 .707 -331.721 -774.185)" gradientUnits="userSpaceOnUse" x1="1100.462" x2="1193.18" xlink:href="#lg3" y1="96.475" y2="96.475"/><linearGradient id="SVGID_00000018925799823464440150000014437970037007745462_" gradientTransform="matrix(.707 .707 -.707 .707 -331.721 -774.185)" gradientUnits="userSpaceOnUse" x1="1139.175" x2="1169.957" xlink:href="#lg4" y1="178.652" y2="148.63"/><linearGradient id="SVGID_00000024722305480294888820000004232539315228800700_" gradientTransform="matrix(.707 .707 -.707 .707 -331.721 -774.185)" gradientUnits="userSpaceOnUse" x1="1162.226" x2="1162.226" xlink:href="#lg4" y1="190.483" y2="204.185"/><linearGradient id="SVGID_00000078726909172048709910000003861146075543342759_" gradientTransform="matrix(.707 .707 -.707 .707 -331.721 -774.185)" gradientUnits="userSpaceOnUse" x1="1162.226" x2="1162.226" xlink:href="#lg4" y1="183.643" y2="201.189"/><linearGradient id="SVGID_00000039117120648244897570000013952096679192360111_" gradientTransform="matrix(.707 .707 -.707 .707 -331.721 -774.185)" gradientUnits="userSpaceOnUse" x1="1149.379" x2="1120.497" xlink:href="#lg4" y1="8.824" y2="57.467"/><linearGradient id="SVGID_00000021805639161762100330000005237433105933775266_" gradientTransform="matrix(.707 -.707 .707 .707 152.58 190.212)" gradientUnits="userSpaceOnUse" x1="66.912" x2="144.155" xlink:href="#lg5" y1="-31.634" y2="-31.634"/><linearGradient id="lg6"><stop offset="0" stop-color="#026841" stop-opacity="0"/><stop offset=".2376" stop-color="#026441" stop-opacity=".238"/><stop offset=".4745" stop-color="#015840" stop-opacity=".475"/><stop offset=".7111" stop-color="#01443f" stop-opacity=".711"/><stop offset=".9463" stop-color="#00283d" stop-opacity=".946"/><stop offset="1" stop-color="#00213d"/></linearGradient><linearGradient id="SVGID_00000062886205232172383330000000255880242484856977_" gradientTransform="matrix(.707 -.707 .707 .707 152.58 190.212)" gradientUnits="userSpaceOnUse" x1="99.164" x2="124.808" xlink:href="#lg6" y1="36.827" y2="11.816"/><linearGradient id="SVGID_00000152985247410580885150000003700962815468607389_" gradientTransform="matrix(.707 -.707 .707 .707 152.58 190.212)" gradientUnits="userSpaceOnUse" x1="118.367" x2="118.367" xlink:href="#lg6" y1="46.683" y2="58.098"/><linearGradient id="SVGID_00000016776741772717350920000013892005237231314847_" gradientTransform="matrix(.707 -.707 .707 .707 152.58 190.212)" gradientUnits="userSpaceOnUse" x1="118.367" x2="118.367" xlink:href="#lg6" y1="40.984" y2="55.603"/><linearGradient id="SVGID_00000102527304058700199900000000857335056038082717_" gradientTransform="matrix(.707 -.707 .707 .707 152.58 190.212)" gradientUnits="userSpaceOnUse" x1="107.664" x2="83.603" xlink:href="#lg6" y1="-104.656" y2="-64.132"/><linearGradient id="SVGID_00000022537806370563329620000017325329023098947234_" gradientUnits="userSpaceOnUse" x1="227.621" x2="210.397" xlink:href="#lg1" y1="19.722" y2="51.414"/><linearGradient id="SVGID_00000119809878918609810380000007044748402773059258_" gradientUnits="userSpaceOnUse" x1="251.115" x2="214.945" xlink:href="#lg2" y1="34.47" y2="48.249"/><linearGradient id="SVGID_00000168799112950906337330000007521932851548839615_" gradientUnits="userSpaceOnUse" x1="461.226" x2="461.226" xlink:href="#lg1" y1="96.42" y2="136.126"/><linearGradient id="SVGID_00000145755421929037697790000016988505652939564208_" gradientTransform="matrix(-.707 .707 -.707 -.707 948.005 -2361.568)" gradientUnits="userSpaceOnUse" x1="2132.826" x2="2091.342" xlink:href="#lg2" y1="-1407.545" y2="-1391.741"/><linearGradient id="SVGID_00000069366512890842882020000000284783117924145811_" gradientTransform="matrix(0 1 -1 0 141.765 -1644.438)" gradientUnits="userSpaceOnUse" x1="1956.39" x2="1956.39" xlink:href="#lg3" y1="-238.941" y2="-191.178"/><linearGradient id="SVGID_00000111898544248707417580000004597426675131046813_" gradientTransform="matrix(-.707 -.707 .707 -.707 2503.332 -696.433)" gradientUnits="userSpaceOnUse" x1="848.709" x2="798.808" xlink:href="#lg4" y1="-2230.427" y2="-2211.418"/><linearGradient id="lg7"><stop offset="0" stop-color="#fef0ae"/><stop offset="1" stop-color="#fac600"/></linearGradient><linearGradient id="SVGID_00000062874934435470931720000015123352835437206158_" gradientUnits="userSpaceOnUse" x1="415.138" x2="424.762" xlink:href="#lg7" y1="189.833" y2="217.635"/><linearGradient id="SVGID_00000144322919495942828680000014777106290239999928_" gradientTransform="matrix(-.768 -.641 -.641 .768 460.732 166.898)" gradientUnits="userSpaceOnUse" x1="166.807" x2="176.431" xlink:href="#lg7" y1="18.052" y2="45.854"/><g><g><path d="m427.802 484.545v-180.655c0-14.059-11.397-25.456-25.456-25.456h-292.692c-14.059 0-25.456 11.397-25.456 25.456v180.655c0 14.059 11.397 25.456 25.456 25.456h292.692c14.059 0 25.456-11.397 25.456-25.456z" fill="url(#SVGID_1_)"/><path d="m294.496 278.433h107.85c14.059 0 25.456 11.397 25.456 25.456v180.655c0 14.059-11.397 25.456-25.456 25.456h-107.85z" fill="url(#SVGID_00000092415391799856353040000009846652251320239024_)"/><path d="m427.802 303.89c0-14.059-11.397-25.456-25.456-25.456h-53.541v92.159l78.997 78.997z" fill="url(#SVGID_00000090291438907794312510000012727978717695498664_)"/><path d="m294.501 302.818v182.792c0 13.47-10.919 24.389-24.389 24.389h-160.461c-14.056 0-25.45-11.394-25.45-25.45v-180.66c0-14.061 11.399-25.46 25.46-25.46h160.451c13.47 0 24.389 10.919 24.389 24.389z" fill="url(#SVGID_00000165921895096415566640000009836468296151646112_)"/><path d="m294.501 302.818v182.792c0 13.47-10.919 24.389-24.389 24.389h-160.461c-14.056 0-25.45-11.394-25.45-25.45v-180.66c0-14.061 11.399-25.46 25.46-25.46h160.451c13.47 0 24.389 10.919 24.389 24.389z" fill="url(#SVGID_00000064350586991954541100000012911583657319066037_)"/><path d="m294.5 302.821v182.79c0 13.47-10.92 24.39-24.39 24.39h-70.85v-231.57h70.85c13.47 0 24.39 10.92 24.39 24.39z" fill="url(#SVGID_00000147207072039971211410000018075450789944520371_)"/><path d="m84.198 484.545v-99.12h343.604v99.12c0 14.059-11.397 25.456-25.456 25.456h-292.692c-14.059 0-25.456-11.397-25.456-25.456z" fill="url(#SVGID_00000044868731975458827350000013167497501623716031_)"/></g><g><path d="m207.767 511.999h-36.832c-2.718 0-4.921-2.203-4.921-4.921v-225.819c0-2.718 2.203-4.921 4.921-4.921h36.832c2.718 0 4.921 2.203 4.921 4.921v225.819c0 2.718-2.203 4.921-4.921 4.921z" fill="url(#SVGID_00000176009514437028426910000018097148922502736785_)"/><path d="m207.767 276.338h-36.832c-2.718 0-4.921 2.203-4.921 4.921v92.673h46.673v-92.673c.001-2.718-2.202-4.921-4.92-4.921z" fill="url(#SVGID_00000021839171029848507810000017890547818099186331_)"/><path d="m166.015 469.546v37.532c0 2.718 2.203 4.921 4.921 4.921h36.832c2.718 0 4.921-2.203 4.921-4.921v-37.532z" fill="url(#SVGID_00000040548100137003614790000006936348785862467456_)"/></g><g><g><g><g><g><path d="m129.546 201.671 15.186 32.567c7.419 15.91 5.044 34.667-6.106 48.227-14.259 17.34-41.83 13.362-50.606-7.302-7.039-16.573-2.524-35.796 11.157-47.503z" fill="url(#SVGID_00000137093889944634228770000009614555882106942083_)"/><path d="m129.546 201.671 15.186 32.567c7.419 15.91 5.044 34.667-6.106 48.227-14.259 17.34-41.83 13.362-50.606-7.302-7.039-16.573-2.524-35.796 11.157-47.503z" fill="url(#SVGID_00000170994330302942030070000015891428858193478311_)"/><path d="m137.15 217.978c-.54.225-1.079.454-1.614.704-21.134 9.855-30.278 34.977-20.423 56.111 3.033 6.504 7.515 11.867 12.879 15.896 3.942-1.804 7.592-4.524 10.634-8.223 11.15-13.559 13.525-32.316 6.106-48.227z" fill="url(#SVGID_00000139265602143741638550000008212625470053948049_)"/><path d="m86.116 269.589c.499 1.881 1.127 3.744 1.904 5.574 8.776 20.663 36.347 24.642 50.606 7.302 9.588-11.659 12.681-27.161 8.644-41.392z" fill="url(#SVGID_00000132778476150698051040000012975642029742950540_)"/></g><g><path d="m143.093 230.723-17.806-38.186c-8.699-18.656-27.337-30.66-47.921-30.864-26.322-.261-43.529 27.502-31.583 50.959 9.581 18.813 30.251 29.247 51.077 25.782z" fill="url(#SVGID_00000055705848259839513200000009469995148099132838_)"/><path d="m69.047 191.817c-10.115 4.717-17.932 12.352-22.935 21.432 9.717 18.421 30.152 28.592 50.748 25.166l43.842-7.294c-.66-4.999-2.079-9.985-4.323-14.797-11.827-25.361-41.972-36.333-67.332-24.507z" fill="url(#SVGID_00000097458393491660618180000013420090077983996054_)"/><path d="m140.701 231.121c-.66-4.999-2.079-9.985-4.323-14.797-.399-.856-.823-1.693-1.263-2.516-11.15-8.965-26.852-11.394-40.695-4.939-11.586 5.403-19.242 15.804-21.607 27.438 7.535 2.663 15.777 3.483 24.047 2.108z" fill="url(#SVGID_00000038373226597304451000000015214182498485530523_)"/></g></g><g><g><path d="m138.423 197.532 15.186 32.567c7.419 15.91 23.314 26.148 40.869 26.322 22.449.223 37.124-23.455 26.935-43.46-8.171-16.045-25.799-24.943-43.561-21.988z" fill="url(#SVGID_00000097462465872842222400000013402657351209901204_)"/><path d="m138.423 197.532 15.186 32.567c7.419 15.91 23.314 26.148 40.869 26.322 22.449.223 37.124-23.455 26.935-43.46-8.171-16.045-25.799-24.943-43.561-21.988z" fill="url(#SVGID_00000015348954030800896000000015033881860973455028_)"/><path d="m146.026 213.839c.52-.269 1.041-.535 1.576-.784 21.134-9.855 46.256-.711 56.111 20.423 3.033 6.504 4.26 13.385 3.898 20.083-3.915 1.86-8.346 2.908-13.135 2.861-17.554-.174-33.45-10.411-40.869-26.322z" fill="url(#SVGID_00000149380884754257074830000014632118253703900828_)"/><path d="m218.367 207.919c1.12 1.591 2.144 3.27 3.046 5.041 10.188 20.005-4.487 43.683-26.935 43.46-15.095-.15-28.957-7.745-37.264-19.985z" fill="url(#SVGID_00000051375077621553891560000002602719219078862783_)"/></g><g><path d="m151.969 226.584-17.806-38.186c-8.699-18.656-5.915-40.649 7.16-56.548 16.72-20.332 49.048-15.667 59.339 8.562 8.253 19.433 2.959 41.973-13.082 55.7z" fill="url(#SVGID_00000096049249283221199360000002479491845492499073_)"/><path d="m169.762 144.853c10.115-4.717 20.989-5.796 31.16-3.793 7.865 19.284 2.522 41.476-13.342 55.051l-33.768 28.897c-3.406-3.719-6.312-8.01-8.557-12.823-11.826-25.361-.854-55.506 24.507-67.332z" fill="url(#SVGID_00000023253353409730925160000015460385854656490925_)"/><path d="m153.812 225.007c-3.406-3.719-6.312-8.01-8.557-12.823-.399-.856-.768-1.719-1.115-2.585.299-14.304 8.532-27.894 22.375-34.349 11.586-5.403 24.475-4.582 34.908 1.085-2.803 7.483-7.473 14.325-13.842 19.776z" fill="url(#SVGID_00000053527689586554380670000012243885167133105803_)"/></g></g></g><g><path d="m159.748 191.196c-5.953-6.742-16.334-7.264-23.044-1.276-1.641 1.464-3.488 2.696-5.533 3.649-2.044.953-4.175 1.577-6.352 1.893-8.901 1.291-15.174 9.58-13.835 18.473.637 4.232 1.918 8.549 3.885 12.766 1.906 4.087 4.297 7.741 7.021 10.882 5.994 6.913 16.482 7.663 23.31 1.572 1.64-1.463 3.486-2.693 5.529-3.646 2.044-.953 4.175-1.577 6.352-1.893 8.901-1.291 15.174-9.58 13.835-18.473-.637-4.232-1.918-8.549-3.885-12.766s-4.45-7.973-7.283-11.181z" fill="url(#SVGID_00000116917890858382201200000005751992922047473294_)"/><path d="m131.11 226.565c-5.779-12.393-3.334-26.505 5.084-36.207-1.511 1.272-3.187 2.354-5.023 3.21-2.044.953-4.175 1.577-6.352 1.893-8.901 1.291-15.174 9.579-13.835 18.473.637 4.232 1.918 8.549 3.885 12.766 1.906 4.087 4.297 7.741 7.021 10.882 5.473 6.313 14.692 7.483 21.452 3.002-5.147-3.311-9.454-8.062-12.232-14.019z" fill="url(#SVGID_00000132062660749643109030000015228485211482511761_)"/><path d="m114.868 226.701c1.906 4.087 4.297 7.741 7.021 10.882 5.994 6.913 16.482 7.663 23.31 1.572 1.64-1.463 3.486-2.693 5.529-3.646 2.044-.953 4.175-1.577 6.352-1.893 8.901-1.291 15.174-9.579 13.835-18.473-.637-4.232-1.918-8.549-3.885-12.766-.925-1.984-1.968-3.861-3.105-5.632l-51.377 23.957c.628 2.009 1.395 4.015 2.32 5.999z" fill="url(#SVGID_00000136387687140155037040000018208569245205918609_)"/></g></g><g><path d="m322.975 198.376-9.173-19.672c-5.942-12.742-21.088-18.255-33.829-12.313l-265.269 123.697c-12.742 5.942-18.254 21.088-12.313 33.83l9.173 19.672c5.942 12.742 21.088 18.255 33.829 12.313l265.269-123.697c12.742-5.942 18.255-21.088 12.313-33.83z" fill="url(#SVGID_00000149343796626632645990000016962119496861134733_)"/><path d="m182.228 211.971 97.745-45.579c12.742-5.942 27.888-.429 33.829 12.313l9.173 19.672c5.942 12.742.429 27.888-12.313 33.829l-97.745 45.579z" fill="url(#SVGID_00000000927731785751659480000006121217356630377369_)"/><path d="m188.41 289.213 68.485-31.935-30.69-65.814-68.485 31.935z" fill="url(#SVGID_00000000210162042184214200000001631270688887863962_)"/><path d="m11.564 343.59-5.724-12.276 311.411-145.213 5.724 12.276c5.942 12.742.429 27.888-12.313 33.829l-265.268 123.697c-12.742 5.941-27.888.429-33.83-12.313z" fill="url(#SVGID_00000160904977783353324070000014160057511484818076_)"/></g><g><path d="m195.675 288.323-33.381 15.566c-2.463 1.149-5.391.083-6.539-2.38l-28.444-60.998c-1.149-2.463-.083-5.391 2.38-6.539l33.381-15.566c2.463-1.149 5.391-.083 6.539 2.38l28.444 60.998c1.149 2.463.083 5.391-2.38 6.539z" fill="url(#SVGID_00000090990157118364664920000007690706172482891965_)"/><path d="m139.893 267.493 15.862 34.016c1.149 2.463 4.076 3.529 6.539 2.38l33.381-15.566c2.463-1.149 3.529-4.076 2.38-6.539l-15.862-34.016z" fill="url(#SVGID_00000062172386193233197540000016760682670799328404_)"/></g></g><g><path d="m352.079 70.195c-6.543-12.886-17.347-23.242-30.562-29.208-1.464-.661-1.464-2.756 0-3.417 13.215-5.966 24.018-16.322 30.562-29.208.697-1.372 2.651-1.372 3.347 0 6.543 12.886 17.347 23.242 30.562 29.208 1.464.661 1.464 2.756 0 3.417-13.215 5.966-24.018 16.322-30.562 29.208-.696 1.371-2.651 1.371-3.347 0z" fill="url(#SVGID_00000100344055130337688400000013010504558977133727_)"/></g><g><path d="m470.415 353.205c-6.543-12.886-17.347-23.242-30.562-29.208-1.464-.661-1.464-2.756 0-3.417 13.215-5.966 24.018-16.322 30.562-29.208.697-1.372 2.651-1.372 3.347 0 6.543 12.886 17.347 23.242 30.562 29.208 1.464.661 1.464 2.756 0 3.417-13.215 5.966-24.018 16.322-30.562 29.208-.696 1.371-2.65 1.371-3.347 0z" fill="url(#SVGID_00000005230933358012744320000007013487807246612906_)"/></g><g><g><path d="m362.617 207.571-19.781-19.781c-3.125-3.125-3.125-8.192 0-11.317l27.023-27.023c11.561-11.561 17.928-26.932 17.928-43.282 0-28.097 10.942-54.513 30.809-74.381l29.442-29.442c3.125-3.125 8.192-3.125 11.317 0l19.781 19.781c3.125 3.125 3.125 8.192 0 11.317l-29.442 29.442c-11.561 11.561-17.928 26.932-17.928 43.282-.001 28.098-10.942 54.513-30.81 74.381l-27.023 27.023c-3.124 3.125-8.191 3.125-11.316 0z" fill="url(#SVGID_00000053539007781929888210000001732470248831007623_)"/></g><path d="m387.787 106.168c0 16.35-6.367 31.721-17.928 43.282l-27.023 27.023c-3.125 3.125-3.125 8.192 0 11.317l19.781 19.781c3.125 3.125 8.192 3.125 11.317 0 8.87-8.87 13.853-20.9 13.853-33.444z" fill="url(#SVGID_00000018925799823464440150000014437970037007745462_)"/><path d="m387.787 106.168c0 16.35-6.367 31.721-17.928 43.282l-27.023 27.023c-3.125 3.125-3.125 8.192 0 11.317l19.781 19.781c3.125 3.125 8.192 3.125 11.317 0 8.87-8.87 13.853-20.9 13.853-33.444z" fill="url(#SVGID_00000024722305480294888820000004232539315228800700_)"/><path d="m373.934 207.571c8.87-8.87 13.853-20.9 13.853-33.444v-67.959" fill="url(#SVGID_00000078726909172048709910000003861146075543342759_)"/><path d="m431.767 106.167c-.001-16.35 6.367-31.721 17.928-43.282l29.442-29.442c3.125-3.125 3.125-8.192 0-11.317l-19.782-19.781c-3.125-3.125-8.192-3.125-11.317 0l-4.843 4.843c-7.317 7.317-11.428 17.241-11.428 27.589z" fill="url(#SVGID_00000039117120648244897570000013952096679192360111_)"/></g><g><g><path d="m290.321 133.515-16.48 16.48c-2.603 2.603-6.825 2.603-9.428 0l-22.513-22.513c-9.631-9.631-22.437-14.936-36.058-14.936-23.408 0-45.415-9.115-61.966-25.667l-24.528-24.528c-2.603-2.603-2.603-6.825 0-9.428l16.48-16.48c2.603-2.603 6.825-2.603 9.428 0l24.528 24.528c9.631 9.631 22.437 14.936 36.058 14.935 23.408 0 45.415 9.116 61.966 25.667l22.513 22.513c2.603 2.605 2.603 6.826 0 9.429z" fill="url(#SVGID_00000021805639161762100330000005237433105933775266_)"/></g><path d="m205.842 112.546c13.621 0 26.427 5.304 36.058 14.936l22.513 22.513c2.603 2.603 6.824 2.603 9.428 0l16.48-16.48c2.603-2.603 2.603-6.825 0-9.428-7.389-7.389-17.412-11.541-27.862-11.541z" fill="url(#SVGID_00000062886205232172383330000000255880242484856977_)"/><path d="m205.842 112.546c13.621 0 26.427 5.304 36.058 14.936l22.513 22.513c2.603 2.603 6.824 2.603 9.428 0l16.48-16.48c2.603-2.603 2.603-6.825 0-9.428-7.389-7.389-17.412-11.541-27.862-11.541z" fill="url(#SVGID_00000152985247410580885150000003700962815468607389_)"/><path d="m290.321 124.087c-7.389-7.389-17.412-11.541-27.862-11.541h-56.616" fill="url(#SVGID_00000016776741772717350920000013892005237231314847_)"/><path d="m205.841 75.907c-13.621 0-26.427-5.304-36.058-14.935l-24.528-24.528c-2.603-2.603-6.824-2.603-9.428 0l-16.48 16.48c-2.603 2.603-2.603 6.825 0 9.428l4.035 4.035c6.096 6.096 14.364 9.52 22.984 9.52z" fill="url(#SVGID_00000102527304058700199900000000857335056038082717_)"/></g><g><path d="m220.366 15.502v-9.473c0-3.329-2.699-6.028-6.028-6.028h-21.013c-3.329 0-6.028 2.699-6.028 6.028v8.267c0 28.632 23.211 51.843 51.843 51.843h8.267c3.329 0 6.028-2.699 6.028-6.028v-21.012c0-3.329-2.699-6.028-6.028-6.028h-9.473c-9.702-.001-17.568-7.866-17.568-17.569z" fill="url(#SVGID_00000022537806370563329620000017325329023098947234_)"/><path d="m239.14 66.14h8.267c3.329 0 6.028-2.699 6.028-6.028v-21.013c0-3.329-2.699-6.028-6.028-6.028h-9.473c-9.703 0-17.568-7.865-17.568-17.568v31.763c0 10.307 8.268 18.835 18.575 18.874z" fill="url(#SVGID_00000119809878918609810380000007044748402773059258_)"/></g><g><path d="m475.473 132.298 7.683 7.683c2.7 2.7 7.078 2.7 9.778 0l17.041-17.041c2.7-2.7 2.7-7.078 0-9.778l-6.705-6.705c-23.221-23.221-60.869-23.221-84.089 0l-6.705 6.705c-2.7 2.7-2.7 7.078 0 9.778l17.041 17.041c2.7 2.7 7.078 2.7 9.778 0l7.683-7.683c7.869-7.868 20.626-7.868 28.495 0z" fill="url(#SVGID_00000168799112950906337330000007521932851548839615_)"/><path d="m419.181 106.457-6.705 6.705c-2.7 2.7-2.7 7.078 0 9.778l17.041 17.041c2.7 2.7 7.078 2.7 9.778 0l7.683-7.683c7.869-7.869 20.627-7.869 28.495 0l-25.76-25.76c-8.359-8.359-21.98-8.57-30.371-.242-.054.054-.107.107-.161.161z" fill="url(#SVGID_00000145755421929037697790000016988505652939564208_)"/></g><g><path d="m337.547 329.09-9.241 9.241c-3.248 3.248-3.248 8.514 0 11.762l20.499 20.499c3.248 3.248 8.514 3.248 11.762 0l8.065-8.065c27.932-27.932 27.932-73.219 0-101.151l-8.065-8.065c-3.248-3.248-8.514-3.248-11.762 0l-20.499 20.499c-3.248 3.248-3.248 8.514 0 11.762l9.241 9.241c9.465 9.465 9.465 24.812 0 34.277z" fill="url(#SVGID_00000069366512890842882020000000284783117924145811_)"/><path d="m368.632 261.376-8.065-8.065c-3.248-3.248-8.514-3.248-11.762 0l-20.499 20.499c-3.248 3.248-3.248 8.514 0 11.762l9.241 9.241c9.465 9.465 9.465 24.812 0 34.277l30.987-30.987c10.055-10.055 10.309-26.44.291-36.533-.064-.065-.129-.129-.193-.194z" fill="url(#SVGID_00000111898544248707417580000004597426675131046813_)"/></g><path d="m486.562 181.948c1.513 6.829-2.65 13.681-9.44 15.361-20.073 4.968-39.537 12.531-58.329 22.665-19.113 10.309-36.426 19.765-49.305 26.827-6.74 3.7-13.804-4.415-9.167-10.552 9.22-12.225 23.658-27.059 45.002-38.685 17.289-9.422 39.264-18.944 65.443-25.397 7.08-1.745 14.219 2.662 15.796 9.781z" fill="url(#SVGID_00000062874934435470931720000015123352835437206158_)"/><path d="m271.259 22.131c-5.535 4.276-6.726 12.204-2.588 17.843 12.234 16.672 22.339 34.945 30.28 54.763 8.076 20.158 15.317 38.509 20.685 52.181 2.807 7.158 13.429 5.45 13.798-2.233.748-15.293-.84-35.933-9.786-58.531-7.244-18.309-18.022-39.696-33.995-61.418-4.319-5.874-12.623-7.062-18.394-2.605z" fill="url(#SVGID_00000144322919495942828680000014777106290239999928_)"/></g></svg>
