<svg xmlns="http://www.w3.org/2000/svg" version="1.1" xmlns:xlink="http://www.w3.org/1999/xlink" width="90" height="90" x="0" y="0" viewBox="0 0 600 600" style="enable-background:new 0 0 512 512" xml:space="preserve" class=""><g><path fill="#ffffff" d="M809.11 276.401C793.649 167.093 709.442 73.676 594.589 38.417c-29.576-9.078-60.525-13.682-91.994-13.682-75.506 0-149.309 26.252-207.818 73.916-.121.1-.244.197-.359.301-84.25 72.066-122.715 189.186-100.385 305.65 14.701 76.693 60.678 144.625 127.135 188.701-5.6 14.707-11.205 29.41-16.814 44.117-29.77 78.074-60.553 158.811-89.5 238.777-3.934 10.865-.146 22.422 9.207 28.75 4.273 3.188 9.424 4.924 14.707 4.924 4.701 0 9.352-1.373 13.445-3.971 27.797-17.637 54.957-35.434 81.025-53.098 3.701 12.102 7.566 24.076 11.355 35.816 6.84 21.189 13.906 43.08 19.664 64.746.727 6.391 3.973 12.215 9.148 16.254 4.428 3.646 10.02 5.645 15.885 5.645 10.816 0 20.301-6.502 24.021-16.313.043-.107 4.678-12.168 4.678-12.168 26.01-67.73 52.742-137.332 79.139-206.607 26.949 70.699 54.117 141.484 83.582 218.195.068.186.141.373.217.563 3.713 9.818 13.205 16.326 24.027 16.326 5.857 0 11.443-1.99 15.869-5.625 5.188-4.041 8.439-9.873 9.168-16.271 5.758-21.674 12.826-43.57 19.668-64.768 3.787-11.734 7.648-23.697 11.348-35.793 26.094 17.682 53.25 35.477 81.025 53.098 4.094 2.598 8.742 3.971 13.443 3.971h.002c5.283 0 10.434-1.738 14.707-4.924 9.355-6.328 13.141-17.885 9.207-28.75-29.215-80.703-60.289-162.182-90.338-240.977-5.635-14.779-11.27-29.557-16.896-44.336a317.383 317.383 0 0 0 22.059-16.412c85.549-69.69 130.648-186.688 114.894-298.071z" opacity="1" data-original="#ffffff" class=""></path><path fill="#1f178e" d="M789.722 279.146c-15.148-107.1-99.635-190.928-200.881-222.008-96.574-29.646-203.877-6.701-281.697 56.695-82.008 70.15-113.896 182.684-93.881 287.082 15.225 79.418 64.379 144.613 131.924 184.316-37.654 99.063-75.85 197.979-111.922 297.633-1.023 2.826.195 4.979 2.16 6.109 1.609 1.41 3.914 1.904 6.297.393 34.707-22.018 68.961-44.617 102.766-67.988 11.844 43.357 27.805 85.445 39.205 128.896-.115 1.758.693 3.164 1.973 4.066 2.891 2.646 8.23 1.17 9.438-2.619.016-.039.043-.074.059-.115 34.098-88.789 68.215-177.574 101.963-266.502 33.775 88.916 67.857 177.711 101.961 266.502.016.041.041.074.059.115 1.205 3.787 6.541 5.262 9.436 2.621 1.281-.902 2.09-2.311 1.975-4.068 11.4-43.451 27.359-85.541 39.205-128.896 33.805 23.371 68.055 45.971 102.764 67.988 2.381 1.512 4.688 1.018 6.297-.393 1.965-1.131 3.184-3.283 2.16-6.109-36.344-100.398-74.828-200.055-112.77-299.855a298.79 298.79 0 0 0 33.637-23.719c81.694-66.549 122.596-176.041 107.872-280.144z" opacity="1" data-original="#68182b" class=""></path><path fill="#5b5fff" d="M390.532 931.685c-11.643-40.584-26.443-80.229-37.078-121.15-.432-1.658-1.361-2.746-2.504-3.389-1.574-1.248-3.734-1.594-5.953-.053-31.23 21.725-62.889 42.719-94.9 63.24 34.072-93.508 69.832-186.422 105.201-279.438a300.495 300.495 0 0 0 37.172 16.809 292.885 292.885 0 0 0 114.836 18.131c-38.506 102.107-77.645 203.977-116.774 305.85zM744.147 870.333c-32.014-20.521-63.67-41.516-94.898-63.24-2.221-1.543-4.383-1.195-5.959.057-1.139.643-2.068 1.73-2.498 3.385-10.637 40.918-25.436 80.561-37.076 121.141-33.617-87.525-67.221-175.053-100.477-262.717 5.551-14.65 11.119-29.293 16.645-43.953 41.273-3.553 81.602-15.805 118.277-36.17 35.635 93.702 71.662 187.302 105.986 281.497z" opacity="1" data-original="#00edef" class=""></path><path fill="#374dde" d="M780.271 300.509c-7.6-107.703-86.732-199.189-189.242-230.66-94.762-29.089-198.57-10.746-275.744 52.123-118.727 101.566-132.438 305.039-16.613 414.787 81.652 77.367 212.891 102.328 315.313 52.49 108.944-53.012 174.827-167.74 166.286-288.74zM629.052 484.11c-22.596 18.219-48.486 32.588-76.791 39.723-85.014 21.43-180.066-11.031-225.578-88.424-51.313-87.252-16.473-208.32 66.789-262.822 80.191-52.49 199.592-40.652 260.525 37.168 63.863 81.562 53.803 205.969-24.945 274.355z" opacity="1" data-original="#ff7cc6" class=""></path><path fill="#5b5fff" d="M625.53 196.794c-77.738-65.875-198.516-58.758-264.635 20.268-65.936 78.801-63.324 203.945 24.521 265.828 71.07 50.064 167.584 47.836 235.494-6.92 79.851-69.344 88.038-208.487 4.62-279.176zm-14.986 266.207c-48.402 39.191-116.598 51.674-175.076 28.334-66.098-26.381-110.65-89.182-103.885-161.506 7.039-75.311 59.875-145.539 137.275-159.107 69.092-12.111 146.934 17.449 179.883 82.059 35.326 69.275 21.444 158.763-38.197 210.22z" opacity="1" data-original="#00edef" class=""></path><path fill="#fcc335" d="M613.642 217.993c-66.34-60.656-173.906-56.793-233.301 11.814-58.996 68.148-58.242 177.752 17.859 233.186 61.955 45.129 147.752 43.467 207.461-4.877 68.481-59.084 76.596-177.387 7.981-240.123zm-11.459 109.156c-10.133 12.066-21.99 22.822-33.484 33.619 3.061 15.648 6.945 31.852 7.451 47.727.234 7.281.031 17.139-6.902 21.623-7 4.529-16.035 2.156-23.176-.85-14.662-6.17-28.65-14.014-42.605-21.652-13.973 7.904-28.18 16.713-43.195 22.27-7.092 2.627-16.102 5.211-22.68-.043-6.414-5.123-6.842-14.762-6.27-22.299 1.178-15.498 4.148-30.93 6.924-46.24-12.232-11.424-25.832-22.816-35.738-36.273-4.264-5.789-9.145-13.896-5.412-21.209 3.891-7.623 13.211-10.617 21.041-12.283 14.705-3.133 29.742-4.945 44.668-6.855 7.469-15.857 14.496-32.682 24.654-46.971 4.09-5.76 9.744-10.512 17.105-10.113 7.662.418 13.611 8.33 17.213 14.262 8.289 13.646 14.955 28.361 21.787 42.793 16.256 1.932 33.609 3.053 49.1 7.979 6.279 1.998 16.225 5.533 17.451 13.299 1.3 8.24-2.739 15.029-7.932 21.216z" opacity="1" data-original="#fcc335" class=""></path><path fill="#374dde" d="M583.897 329.981c-5.891 5.926-11.904 11.742-17.953 17.508-8.18 7.807-9.105 12.211-6.943 24.316a1801.046 1801.046 0 0 1 4.25 24.699c.611 3.701 4.6 22.102-.914 24.387-5.709 2.363-16.061-3.93-20.738-6.189-8.592-4.152-17.031-8.682-25.424-13.26-7.67-4.186-13.41-6.576-24.557-.477a1793.55 1793.55 0 0 1-23.465 12.607c-4.025 2.125-18.525 11.24-23.502 7.264-4.154-3.318-1.697-15.252-1.248-19.557 1.109-10.625 3.061-21.244 5.008-31.797 2.439-13.258 1.568-12.871-8.373-22.408a1776.654 1776.654 0 0 1-15.314-14.887c-5.707-5.615-16.346-13.775-17.404-22.348-.9-7.283 31.68-11.309 49.061-13.098 12.605-1.301 14.422-2.217 19.377-12.496 3.35-6.938 6.74-13.852 10.176-20.746 4.002-8.031 8.102-18.471 15.609-23.924 5.914-4.297 21.145 27.045 28.73 43.486 5.504 11.936 7.162 12.295 19.344 13.961a1806.02 1806.02 0 0 1 25.271 3.666c5.426.822 21.695 1.941 24.123 8.301 2.295 6-11.731 17.586-15.114 20.992z" opacity="1" data-original="#ff7cc6" class=""></path><path fill="#112683" d="M780.271 300.509c-2.498-35.391-12.76-69.01-28.998-99.348.98 2.465 1.98 4.92 2.891 7.412 19.49 53.371 21.82 114.027 9.045 169.123-25.297 109.121-118.059 192.34-228.602 207.051-112.961 15.033-222.754-38.896-272.963-141.479-23.426-47.865-32.385-103.691-29.492-156.57 1.406-25.738 7.066-51.363 15.754-75.74-50.33 105.68-37.004 242.635 50.766 325.801 81.652 77.367 212.891 102.328 315.313 52.49 108.944-53.012 174.827-167.74 166.286-288.74z" opacity="1" data-original="#f75093" class=""></path><path fill="#112683" d="M583.897 329.981c2.928-2.949 13.82-12.029 15.203-18.305-29.477 20.871-57.996 42.777-90.969 58.379-2.418 1.145-34.492 17.182-36.883 10.238-1.914-5.564 3.154-14.771 5.123-19.779 3.611-9.193 14.232-28.875 4.18-37.369-5.541-4.682-14.604-2.52-20.82-.852-18.281 4.904-35.436 7.971-48.848-4.402 3.879 5.492 9.965 10.486 13.84 14.297a1791.243 1791.243 0 0 0 15.314 14.887c9.941 9.537 10.813 9.15 8.373 22.408-1.947 10.553-3.898 21.172-5.008 31.797-.449 4.305-2.906 16.238 1.248 19.557 4.977 3.977 19.477-5.139 23.502-7.264 7.85-4.146 15.674-8.344 23.465-12.607 11.146-6.1 16.887-3.709 24.557.477 8.393 4.578 16.832 9.107 25.424 13.26 4.678 2.26 15.029 8.553 20.738 6.189 5.514-2.285 1.525-20.686.914-24.387a1798.423 1798.423 0 0 0-4.25-24.699c-2.162-12.105-1.236-16.51 6.943-24.316 6.05-5.766 12.064-11.583 17.954-17.509z" opacity="1" data-original="#f75093" class=""></path><path fill="#112683" d="M307.257 385.942c-17.838-78.949 17.836-168.596 86.215-213.355 80.191-52.49 199.592-40.652 260.525 37.168 61.662 78.752 54.389 197.43-17.064 267.072 66.652-40.422 82.334-138.416 63.689-209.418-24.727-94.154-113.652-153.605-208.943-149.424-91.705 4.027-163.262 72.67-187.188 158.488-10.892 39.071-8.994 76.1 2.766 109.469z" opacity="1" data-original="#f75093" class=""></path><path fill="#f0a02b" d="M613.642 217.993c-13.49-12.332-28.697-21.951-44.846-28.947 8.869 6.348 17.426 13.09 24.908 21.197 22.785 24.686 32.34 57.443 35.811 90.141 6.273 59.145-16.816 124.002-69.645 155.217-38.58 22.795-87.174 20.414-126.398.758-43.33-21.713-70.146-62.779-77.752-109.93-5.844-36.223.789-73.801 16.693-106.652-50.785 68.456-46.713 170.404 25.787 223.216 61.955 45.129 147.752 43.467 207.461-4.877 68.481-59.084 76.596-177.387 7.981-240.123z" opacity="1" data-original="#f0a02b" class=""></path><path fill="#fde334" d="M400.103 259.208c11.582-5.609 21.471-14.508 32.01-21.82 5.633-3.908 11.432-7.5 17.18-11.223 5.682-3.678 9.533-9.115 15.414-12.791 2.941-1.842 1.875-6.801-1.818-6.705-15.947.406-26.541 2.666-39.361 12.861-11.854 9.424-23.307 21.35-28.338 35.898-1.043 3.01 2.491 4.954 4.913 3.78zM507.585 193.017c-7.018-2.879-12.15-2.879-19.121.113-2.416 1.035-5.082 2.518-6.988 4.361-1.021.984-2.322 1.91-3.051 3.152-.627 1.074-.605 2.033-1.555 2.881-2.742 2.447.74 6.08 3.662 4.744 1.258-.574 3.682-.035 5.201-.477 2.641-.764 5.342-1.422 7.998-2.172 5.402-1.523 9.652-3.734 14.705-6.094 3.135-1.465 1.651-5.483-.851-6.508z" opacity="1" data-original="#fde334" class=""></path><path fill="#122ca5" d="M502.991 65.351c-40.707-1.518-98.268 6.105-125.211 40.621-1.807 2.313-.246 6.143 3.045 5.23 39.424-10.916 73.533-24.66 115.461-25.139 42.703-.488 87.805 11.139 126.736 28.297 3.473 1.529 7.645-2.707 4.359-5.65-34.679-31.084-78.79-41.656-124.39-43.359zM652.731 127.435c1.463-4.637-2.777-8.438-6.857-10.316-3.086-1.422-9.854-2.383-10.277 2.578-.225 2.646 2.287 5.025 4.143 6.535 2.844 2.313 5.971 5.814 9.969 4.334 1.63-.194 2.882-1.247 3.022-3.131z" opacity="1" data-original="#ffbee1" class=""></path><path fill="#534fff" d="M385.417 482.89c71.07 50.064 167.584 47.836 235.494-6.92 75.326-65.412 86.838-192.912 17.881-266.494 10.748 15.346 19.73 31.941 26.5 49.385 22.195 57.178 14.24 121.752-18.08 173.418-66.607 106.482-243.375 99.369-304.873-8.807-29.41-51.736-24.434-118.791-2.68-175.322-42.746 77.638-31.248 180.494 45.758 234.74zM391.296 844.788c-5.318 10.563-11.738 20.127-18.807 29.152 6.205 19.195 12.482 38.363 18.043 57.744 39.129-101.873 78.268-203.742 116.773-305.85a292.885 292.885 0 0 1-114.836-18.131c-7.789-2.898-15.391-6.148-22.834-9.646 7.617 6.918 15.508 13.516 22.33 21.453 11.143 12.965 18.012 28.25 22.533 44.619 8.857 32.051 7.176 66.58 2.393 99.141-4.173 28.409-12.683 55.87-25.595 81.518zM612.878 861.493c-16.152-24.957-26.189-53.641-32.635-82.5-8.258-36.994-8.629-75.506-1.195-112.656 4.545-22.719 12.471-44.602 26.869-62.145-27.547 11.211-56.533 18.273-86.033 20.813-5.525 14.66-11.094 29.303-16.645 43.953 33.256 87.664 66.859 175.191 100.477 262.717 5.563-19.393 11.846-38.57 18.053-57.773-3.086-3.983-6.084-8.071-8.891-12.409z" opacity="1" data-original="#00b1b5" class=""></path><path fill="#8280ff" d="M250.097 870.333a3449.394 3449.394 0 0 0 35.662-23.207c-4.012-23.592 10.574-74.248 45.9-194.16-27.558 72.314-55.07 144.66-81.562 217.367zM650.124 620.243c52.238 169.52 51.471 193.313 41.121 215.451a3296.738 3296.738 0 0 0 52.902 34.639c-30.488-83.672-62.316-166.871-94.023-250.09z" opacity="1" data-original="#8afbfb" class=""></path><g fill="#68182b"><path d="M766.069 335.071c-.014-.348-.574-.461-.637-.086-12.553 76.527-45.512 146.621-101.592 201.018-.516.502.188 1.469.783 1.02 31.746-23.936 55.633-56.002 73.436-91.254 16.932-33.526 29.583-72.829 28.01-110.698zM332.407 138.911c53.471-43.561 124.443-64.21 192.871-64.646.928-.006.871-1.297 0-1.402-36.617-4.438-70.895-1.746-106.158 9.388-32.877 10.38-63.514 27.253-90.252 48.95-27.426 22.254-49.818 50.207-66.477 81.273-16.844 31.41-31.238 71.803-28.801 107.916.012.217.33.279.389.053 4.277-16.916 6.438-34.191 11.299-51.002 5.127-17.738 12.359-34.861 20.998-51.16 16.26-30.675 39.282-57.495 66.131-79.37zM232.472 329.575c-3.648 5.344-3.24 13.32-1.225 19.205.221.641 1.105.658 1.318 0 1.912-5.943.854-12.822.713-18.986-.011-.447-.568-.566-.806-.219z" fill="#1f178e" opacity="1" data-original="#68182b" class=""></path></g></g></svg>
