<svg width="107" height="107" viewBox="0 0 107 107" fill="none" xmlns="http://www.w3.org/2000/svg">
<path d="M72 48C74.2222 48 76.1111 47.2222 77.6667 45.6667C79.2222 44.1111 80 42.2222 80 40C80 37.7778 79.2222 35.8889 77.6667 34.3333C76.1111 32.7778 74.2222 32 72 32C69.7778 32 67.8889 32.7778 66.3333 34.3333C64.7778 35.8889 64 37.7778 64 40C64 42.2222 64.7778 44.1111 66.3333 45.6667C67.8889 47.2222 69.7778 48 72 48ZM34.6667 48C36.8889 48 38.7778 47.2222 40.3333 45.6667C41.8889 44.1111 42.6667 42.2222 42.6667 40C42.6667 37.7778 41.8889 35.8889 40.3333 34.3333C38.7778 32.7778 36.8889 32 34.6667 32C32.4444 32 30.5556 32.7778 29 34.3333C27.4444 35.8889 26.6667 37.7778 26.6667 40C26.6667 42.2222 27.4444 44.1111 29 45.6667C30.5556 47.2222 32.4444 48 34.6667 48ZM53.3333 61.3333C47.2889 61.3333 41.8 63.0445 36.8667 66.4667C31.9333 69.8889 28.3556 74.4 26.1333 80H34.9333C36.8889 76.7111 39.4889 74.1111 42.7333 72.2C45.9778 70.2889 49.5111 69.3333 53.3333 69.3333C57.1556 69.3333 60.6889 70.2889 63.9333 72.2C67.1778 74.1111 69.7778 76.7111 71.7333 80H80.5333C78.3111 74.4 74.7333 69.8889 69.8 66.4667C64.8667 63.0445 59.3778 61.3333 53.3333 61.3333ZM53.3333 106.667C45.9556 106.667 39.0222 105.267 32.5333 102.467C26.0444 99.6667 20.4 95.8667 15.6 91.0667C10.8 86.2667 7 80.6222 4.2 74.1333C1.4 67.6445 0 60.7111 0 53.3333C0 45.9556 1.4 39.0222 4.2 32.5333C7 26.0444 10.8 20.4 15.6 15.6C20.4 10.8 26.0444 7 32.5333 4.2C39.0222 1.4 45.9556 0 53.3333 0C60.7111 0 67.6445 1.4 74.1333 4.2C80.6222 7 86.2667 10.8 91.0667 15.6C95.8667 20.4 99.6667 26.0444 102.467 32.5333C105.267 39.0222 106.667 45.9556 106.667 53.3333C106.667 60.7111 105.267 67.6445 102.467 74.1333C99.6667 80.6222 95.8667 86.2667 91.0667 91.0667C86.2667 95.8667 80.6222 99.6667 74.1333 102.467C67.6445 105.267 60.7111 106.667 53.3333 106.667ZM53.3333 96C65.2444 96 75.3333 91.8667 83.6 83.6C91.8667 75.3333 96 65.2444 96 53.3333C96 41.4222 91.8667 31.3333 83.6 23.0667C75.3333 14.8 65.2444 10.6667 53.3333 10.6667C41.4222 10.6667 31.3333 14.8 23.0667 23.0667C14.8 31.3333 10.6667 41.4222 10.6667 53.3333C10.6667 65.2444 14.8 75.3333 23.0667 83.6C31.3333 91.8667 41.4222 96 53.3333 96Z" fill="#42C2FF"/>
</svg>
