<svg width="20" height="20" viewBox="0 0 20 20" fill="none" xmlns="http://www.w3.org/2000/svg">
<path d="M18.864 8.4882L16.5 8.1018C16.3616 7.6274 16.1724 7.1714 15.9356 6.7398L17.3156 4.773C17.4272 4.6142 17.408 4.3978 17.2708 4.2602L15.7152 2.7054C15.5764 2.567 15.358 2.549 15.1988 2.6638L13.2616 4.0562C12.826 3.8154 12.366 3.6242 11.8888 3.4854L11.4764 1.131C11.4428 0.939805 11.2768 0.799805 11.0824 0.799805H8.88238C8.68638 0.799805 8.51918 0.941805 8.48758 1.1354L8.10518 3.477C7.62518 3.615 7.16438 3.8042 6.73038 4.0418L4.79838 2.6618C4.63878 2.5478 4.42158 2.5662 4.28278 2.7042L2.72798 4.259C2.59078 4.3962 2.57158 4.6122 2.68318 4.771L4.04278 6.71621C3.80078 7.15421 3.60798 7.6178 3.46758 8.1002L1.13518 8.48861C0.942381 8.52061 0.800781 8.68781 0.800781 8.88301V11.083C0.800781 11.277 0.939981 11.443 1.13078 11.477L3.46318 11.8906C3.60278 12.3718 3.79558 12.8354 4.03838 13.2746L2.66198 15.1998C2.54838 15.3586 2.56638 15.5766 2.70438 15.7154L4.25958 17.2718C4.39678 17.409 4.61318 17.4282 4.77198 17.3166L6.71998 15.9522C7.15718 16.1926 7.61918 16.3834 8.09798 16.5218L8.48838 18.8662C8.51998 19.0586 8.68678 19.1998 8.88238 19.1998H11.0824C11.2764 19.1998 11.4424 19.0606 11.476 18.8698L11.894 16.5138C12.3736 16.3726 12.8332 16.1806 13.266 15.9398L15.228 17.3162C15.3872 17.4286 15.6032 17.409 15.7408 17.2718L17.296 15.7154C17.4344 15.5766 17.4524 15.3578 17.3376 15.1986L15.9384 13.2558C16.1756 12.8238 16.364 12.367 16.5012 11.8926L18.8684 11.477C19.06 11.4434 19.1992 11.277 19.1992 11.083V8.88301C19.1996 8.68701 19.0576 8.5198 18.864 8.4882ZM9.99998 12.7998C8.45358 12.7998 7.19998 11.5462 7.19998 9.9998C7.19998 8.4534 8.45358 7.1998 9.99998 7.1998C11.5464 7.1998 12.8 8.4534 12.8 9.9998C12.8 11.5462 11.5464 12.7998 9.99998 12.7998Z" fill="#E3E3E3"/>
</svg>
