<svg width="31" height="25" viewBox="0 0 31 25" fill="none" xmlns="http://www.w3.org/2000/svg">
<path d="M9.86351 0H1.40906C0.630835 0 0 0.658366 0 1.47056V10.294C0 11.1062 0.630835 11.7645 1.40906 11.7645H9.86351C10.6417 11.7645 11.2726 11.1062 11.2726 10.294V1.47056C11.2726 0.658366 10.6417 0 9.86351 0ZM9.30023 9.64275H2.32506V1.78569H9.30023V9.64275Z" fill="#42C2FF"/>
<path d="M29.5897 4.41211H15.4989C14.7207 4.41211 14.0898 5.07048 14.0898 5.88267C14.0898 6.69486 14.7207 7.35323 15.4989 7.35323H29.5897C30.3679 7.35323 30.9987 6.69486 30.9987 5.88267C30.9987 5.07054 30.3678 4.41211 29.5897 4.41211Z" fill="#42C2FF"/>
<path d="M29.5897 19.1172H15.4989C14.7207 19.1172 14.0898 19.7756 14.0898 20.5877C14.0898 21.3999 14.7207 22.0583 15.4989 22.0583H29.5897C30.3679 22.0583 30.9987 21.3999 30.9987 20.5877C30.9987 19.7756 30.3678 19.1172 29.5897 19.1172Z" fill="#42C2FF"/>
<path d="M8.87766 16.6015L4.18686 21.4382L2.42271 19.5265C1.88147 18.9425 0.98911 18.927 0.429562 19.4919C-0.129987 20.0567 -0.144818 20.988 0.396421 21.572L3.14973 24.5587C3.41229 24.8383 3.77086 24.9971 4.14597 24.9999H4.16288C4.53231 24.9987 4.88654 24.8461 5.14923 24.5749L10.8504 18.6926C11.4402 18.1629 11.5068 17.2343 10.9992 16.6187C10.4916 16.0032 9.60187 15.9336 9.01205 16.4634C8.96439 16.5062 8.91947 16.5524 8.87766 16.6015Z" fill="#42C2FF"/>
</svg>
