<svg xmlns="http://www.w3.org/2000/svg" version="1.1" xmlns:xlink="http://www.w3.org/1999/xlink" width="512" height="512" x="0" y="0" viewBox="0 0 55 55" style="enable-background:new 0 0 512 512" xml:space="preserve" class=""><rect width="55" height="55" fill="#114088" shape="square"></rect><g transform="matrix(0.6699999999999992,0,0,0.6699999999999992,9.075154838562028,9.07499425649645)"><path fill="#ff9f1c" d="M48.275 24.842a77.365 77.365 0 0 1-1.39 3.435c-.396.967-1.418 1.23-2.089.827-.774-.434-1.102-1.516-.72-2.417.848-2.005 1.654-3.924 2.216-5.939.803-2.742 1.186-6.215-.022-8.822-.922-1.962-2.81-3.425-5.037-3.924-1.982-.445-4.262-.18-6.776.774-2.148.788-4.645 2.272-7.465 3.065-3.435.965-6.553.445-8.77-1.463-1.414-1.225-2.57-3.224-3.796-3.224-.625.032-1.346.806-1.993 2.11-2.079 4.178-2.364 9.215-1.251 13.34.265.965-.18 1.972-1.008 2.27-.827.317-1.707-.223-1.972-1.167-1.434-5.228-.923-11.334 1.516-16.245C11.696 3.45 14.84 2.15 18 5.256c.672.672 1.4 1.626 2.089 2.216 1.442 1.24 3.69 1.548 6.172.848 2.245-.612 4.64-1.989 7.22-2.99 3.034-1.135 5.833-1.453 8.336-.89 3.16.7 5.843 2.862 7.21 5.768 2.073 4.476 1.022 10.054-.752 14.634z" opacity="1" data-original="#ff9f1c" class=""></path><path d="M10.174 24.873c-.827.318-1.707-.222-1.972-1.166a21.053 21.053 0 0 1-.445-2.004c1.885-1.11 2.173-3.406 2.81-4.995a18.923 18.923 0 0 0 .615 5.896c.265.965-.18 1.972-1.008 2.27zM48.275 24.81a77.365 77.365 0 0 1-1.39 3.435c-.395.966-1.416 1.23-2.089.828-.774-.435-1.102-1.517-.72-2.418.848-2.004 1.654-3.924 2.216-5.938.327 2.163 1.417 3.256 1.983 4.093z" fill="#000000" opacity="1" data-original="#000000" class=""></path><path fill="#28b6f4" d="M44.84 42.83c-.351.75-1.153 1.182-1.91 1.515-.288.125-.547.278-.844.384-1.886.665-5.145.466-7.243.01-1.132.047-2.273.057-3.386-.106-6.078-.804-8.447-7.042-6.312-12.816.288-.787-.115-1.698-.643-2.36-.798-1.006-2.216-.926-4.048-2.84a5.29 5.29 0 0 1-.393-.412c-.509-.595-.96-1.314-.912-2.092.039-.767.557-1.429 1.036-2.024.46-.556.94-1.17 1.42-1.736a23.636 23.636 0 0 0 2.187-2.897c.653-1.036 1.458-2.12 2.61-2.629 2.828-1.272 3.923-1.006 6.149-.93.948.06 1.103-.02 1.899.125 1.226.192 2.446.916 2.801 1.314 1.293 1.551.955.258 2.897 2.35a.42.42 0 0 0 .058.067c.096.115.125.173.153.355.283 2.98 2.035 1.882 4.826 3.665a.988.988 0 0 1 .374.441c.345.777.594 1.621.796 2.456-2.843 1.695-5.21.67-7.502 1.141-.57.092-.748.352-.748.864 0 .729.24 1.42.355 2.13.351 2.284.428 4.45.22 6.791-.232 2.626-.902 5.022-1.074 5.44l-.49 1.208c-.292.676-.252 1.192.452 1.4.4.105.687.051 2.1.02 1.494-.068.757.135 1.66-.317.69-.344 2.167-1.116 2.926-1.237.24-.029.82.274.585.72z" opacity="1" data-original="#28b6f4" class=""></path><path fill="#095da4" d="M31.304 23.51c-.182.805-2.682.101-4.317-.097-3.31-.373-3.918 1.163-4.96 2.283-.422.451-.978.854-1.573.921a5.29 5.29 0 0 1-.393-.412c-.509-.595-.96-1.314-.912-2.092.039-.767.557-1.429 1.036-2.024.46-.556.94-1.17 1.42-1.736a23.636 23.636 0 0 0 2.187-2.897c.653-1.036 1.458-2.12 2.61-2.629.575-.259 1.18-.498 1.793-.671-1.404 1.021-2.051 2.447-1.995 3.712.058 1.17.71 2.255 1.573 3.051 1.775 1.657 3.715 1.827 3.53 2.59z" opacity="1" data-original="#095da4" class=""></path><path fill="#19345d" d="M43.862 21.463c-.331.64-1.012 1.035-1.709 1.22-1.39.37-2.97.043-4.191.873-.195.132-.409.3-.637.244-.173-.042-.294-.211-.328-.386-.08-.413.32-1.632 1.25-2.423 1.104-.94 2.417-1.023 3.787-.464.544.221 1.053.517 1.56.811" opacity="1" data-original="#19345d"></path><path fill="#28b6f4" d="M22.401 19.365c-.115.46-.336.844-.489 1.295-.412 1.132-1.106 3.158-1.295 3.607h-.01a5.289 5.289 0 0 1-.345.748c0 .02-.01.029-.02.048-.373.681-.872 1.286-1.438 1.832-1.786 1.756-3.109 1.774-5.602 1.267-1.535-.341-3.117-.759-4.27-1.813-.939-.851-.74-1.506-.767-1.612.01-.326.135-.652.288-.95.269-.518.758-.873 1.036-1.371.326-.614.739-1.113 1.381-1.391 4.765-1.986 9.865-1.489 11.119-1.593.24-.01.403-.029.412-.067z" opacity="1" data-original="#28b6f4" class=""></path><path fill="#095da4" d="M20.617 24.267c-.407 1.792-.308 2.323-.863 3.348-.595 1.093-1.228 2.168-2.015 3.127-3.259 4.074-7.48 3.972-9.612 1.506-.413-.499-.49-.882-.345-1.515.105-.47.22-.921.307-1.382a9.43 9.43 0 0 0 .172-1.285c.06-1.011-.115-2.187-.115-3.195.104.009 6.381 1.372 12.461-.604h.01z" opacity="1" data-original="#095da4" class=""></path><path fill="#19345d" d="M22.401 19.365c-.115.46-.336.844-.489 1.295-.412 1.132-1.106 3.158-1.295 3.607-.407 1.792-.308 2.323-.863 3.348-.595 1.094-1.228 2.168-2.015 3.127-3.259 4.074-7.48 3.972-9.612 1.506-.413-.499-.49-.882-.345-1.515.105-.47.22-.921.307-1.382.115.144.268.25.45.298.538.144 1.056-.24 1.516-.547 2.9-1.946 7.094-1.756 9.392-4.509.019-.02.038-.048.057-.067 1.452-1.793 1.436-3.967 2.101-5.084.144.01.269 0 .384-.01.24-.01.403-.029.412-.067z" opacity="1" data-original="#19345d"></path><path d="M22.401 19.365c-.115.46-.336.844-.489 1.295-1.233 3.39-1.342 4.53-3.108 6.235-.596.586-1.244 1.09-2.034 1.353l-.192-1.103c.975-.532 1.775-1.07 2.264-1.458.173-.135.384-.24.547-.384.192-.163.336-.46.47-.672 1.648-2.574 1.761-4.592 2.13-5.199.24-.01.403-.029.412-.067z" fill="#000000" opacity="1" data-original="#000000" class=""></path><path fill="#19345d" d="M36.867 40.038c-.278 1.362-.544 2.715-1.765 3.06-2.577.76-5.584.048-7.77-1.497-2.465-1.755-4.106-4.489-5.036-7.377-.94-2.877-1.19-5.938-1.41-8.96.35-.63.399-1.359.575-2.043.173-.69.528-1.41 1.19-1.669.46-.182.978-.096 1.467-.01 2.12.375 4.279.787 6.409.49 1.215-.158 1.976-.402 3.06.278.633.384.93 1.151 1.19 1.803 1.685 4.177 2.7 13.115 2.09 15.925z" opacity="1" data-original="#19345d"></path><path d="M32.78 43.405c-1.963-.033-3.92-.723-5.448-1.804-2.465-1.755-4.106-4.489-5.036-7.377-.94-2.877-1.19-5.938-1.41-8.96.048-.086.086-.172.124-.258 4.018-2.376 6.894-2.312 10.207-.365 1.554.911 2.945 2.235 3.76 3.856 2.686 5.346 1.435 11.73-2.196 14.908z" fill="#000000" opacity="1" data-original="#000000" class=""></path><path fill="#28b6f4" d="m28.167 44.767-8.222 5.554-6.475-21.948 8.077-3.214c5.698-3.952 13.315.182 14.38 7.78.865 6.106-2.96 11.202-7.76 11.828z" opacity="1" data-original="#28b6f4" class=""></path><path fill="#095da4" d="M28.81 44.652c1.899-1.516 3.75-3.147 4.805-5.324 2.225-4.615.684-12.82-4.614-14.39-1.842-.537-3.943-.076-5.391 1.17-.633.538-1.151 1.238-1.305 2.044-.394 2.025 1.397 3.73 2.272 5.372a15.196 15.196 0 0 1 1.597 9.446c-.154.969-.056 1.304-.583 2.863-.063.187-.179.791-.34.9l-5.306 3.588-6.475-21.948 8.077-3.214c5.698-3.952 13.315.182 14.38 7.78.787 5.554-2.36 10.658-7.118 11.713z" opacity="1" data-original="#095da4" class=""></path><path d="M16.756 51.408c-.185.031-.37.052-.545.063-5.39.443-10.369-3.971-11.245-10.122-1.054-7.297 4.06-13.532 10.468-13.036 4.816.37 9.011 4.53 9.805 10.125.918 6.356-2.888 12.167-8.483 12.97z" fill="#000000" opacity="1" data-original="#000000" class=""></path><path fill="#d0dcee" d="M16.756 51.408c-.185.031-.37.052-.545.063-4.816-.361-9.012-4.53-9.805-10.125-1.002-6.937 3.572-12.701 9.028-13.033 4.816.37 9.011 4.53 9.805 10.125.918 6.356-2.888 12.167-8.483 12.97z" opacity="1" data-original="#d0dcee" class=""></path><path fill="#095da4" d="M16.007 51.408c-.185.031-.37.052-.545.063-4.816-.361-9.012-4.53-9.805-10.125-1.002-6.937 3.573-12.701 9.028-13.033 4.816.37 9.012 4.53 9.805 10.125.918 6.356-2.888 12.167-8.483 12.97z" opacity="1" data-original="#095da4" class=""></path><path fill="#f72f43" d="M46.69 38.973c-.208 2.912-1.26 4.23-4.671 4.681a23.21 23.21 0 0 1-4.317.192c-.75-.047-1.261-.269-1.285-1.141 0-1.09 2.258-6.268.94-14.179-.115-.652-.24-1.324-.183-1.986.068-.623.365-1.39.94-1.707.525-.3 1.886-.229 2.504-.202 3.283.096 4.83-.367 5.18-.354.154 0 .432.105.518.249.029.047.125.477.125.71.01.019.01.048.01.067 0 1.303.982 6.01.24 13.67z" opacity="1" data-original="#f72f43"></path><path fill="#e2212e" d="M46.652 39.366c-.258 2.378-1.094 3.82-4.633 4.288a23.21 23.21 0 0 1-4.317.192c-.75-.047-1.261-.269-1.285-1.141 0-1.09 2.258-6.268.94-14.179-.115-.652-.24-1.324-.183-1.986.068-.623.365-1.39.94-1.707.525-.3 1.886-.229 2.504-.202 3.283.096 4.83-.367 5.18-.354.154 0 .432.105.518.249.029.047.125.477.125.71a14.69 14.69 0 0 0-5.9 1.237c-.556.24-1.141.576-1.352 1.142-.269.69.125 1.477.652 1.995 1.218 1.218 3.178 1.583 3.943 3.214.547 1.19.115 2.657-.767 3.616-.737.804-2.103 1.562-2.303 2.84-.151 1 .473 2.15 2.024 2.715.538.201.979-.039 1.458-.298a6.373 6.373 0 0 0 2.456-2.33z" opacity="1" data-original="#e2212e" class=""></path><path fill="#095da4" d="M42.567 20.637c-1.117.55-2.515-.525-3.827 1.625-.601.975-.974 2.296-1.471 2.367-.268.03-.504-.206-.556-.463-.061-.258.01-.525.083-.782.329-1.194.586-2.418.596-3.663.02-1.235-.205-2.5-.792-3.59-.489-.909-1.182-1.58-1.842-1.976-.072-.041-.195-.083-.308-.134 1.238.19 2.446.918 2.798 1.317.196.226.37.453.607.628.216.617.391 1.286.937 1.625.421.247.905.216 1.41.165a.504.504 0 0 1 .153.35c.162 1.617.648 2.074 2.212 2.53z" opacity="1" data-original="#095da4" class=""></path><path d="M16.349 48.549a2.257 2.257 0 0 1-.41.045c-4.052.338-7.802-2.983-8.459-7.609-.814-5.044 2.738-10.18 7.874-9.8 3.623.284 6.77 3.404 7.373 7.61.712 4.987-2.363 9.182-6.378 9.754z" fill="#000000" opacity="1" data-original="#000000" class=""></path><path fill="#19345d" d="M22.809 40.857c-.265 3.914-2.874 7.18-6.46 7.692a2.257 2.257 0 0 1-.41.045c-4.052.338-7.802-2.983-8.459-7.609a5.3 5.3 0 0 1-.073-.84c.288-4.41 3.594-8.05 7.947-7.728 3.657.277 7.129 3.56 7.455 8.44z" opacity="1" data-original="#19345d"></path><path fill="#d0dcee" d="M15.615 45.247c-2.493.205-4.795-1.836-5.2-4.68-.487-3.375 1.877-6.257 4.84-6.028 2.227.171 4.167 2.094 4.534 4.682.466 3.228-1.677 5.874-4.174 6.026z" opacity="1" data-original="#d0dcee" class=""></path><path d="M15.742 44.353c-.071.012-.143.02-.21.024-2.088.172-4.016-1.538-4.355-3.92-.356-2.461 1.118-4.711 3.285-5.022.259-.037.518-.045.769-.026 1.864.144 3.49 1.754 3.796 3.921.356 2.462-1.118 4.712-3.285 5.023z" fill="#000000" opacity="1" data-original="#000000" class=""></path><path fill="#28b6f4" d="M40.986 36.503a3.709 3.709 0 0 1-2.61 1.077 1.16 1.16 0 0 1-1.166-1.158v-5.057c0-.64.518-1.159 1.167-1.159 3.264 0 4.921 3.956 2.609 6.297z" opacity="1" data-original="#28b6f4" class=""></path><path fill="#19345d" d="M41.351 33.893a2.605 2.605 0 0 1-2.605 2.606.82.82 0 0 1-.824-.82v-3.572a.82.82 0 0 1 .824-.819 2.605 2.605 0 0 1 2.605 2.605z" opacity="1" data-original="#19345d"></path><circle cx="41.459" cy="40.68" r="1.492" fill="#000000" opacity="1" data-original="#000000" class=""></circle><path fill="#095da4" d="M43.112 40.517c0 .814-.656 1.487-1.486 1.487a1.49 1.49 0 0 1-1.497-1.487c0-.859.721-1.496 1.497-1.496a1.49 1.49 0 0 1 1.486 1.496z" opacity="1" data-original="#095da4" class=""></path><path d="M33.165 20.814h-.048c-6.587-.387-6.523-.154-7.042-.528-.881-.654-.494-1.995.566-1.995l6.476.316c.355.02.671.202.873.48.531.76.041 1.726-.825 1.726z" fill="#000000" opacity="1" data-original="#000000" class=""></path><path fill="#19345d" d="M33.165 20.814h-.048c-6.587-.387-6.523-.154-7.042-.528-.528-.755-.05-1.736.825-1.736l6.476.316c.23.01.44.086.614.22.531.76.041 1.728-.825 1.728z" opacity="1" data-original="#19345d"></path><path fill="#f72f43" d="M14.727 23.106c-.024.49-.435.927-.844 1.2-1.66 1.105-3.863.468-5.718.431.01-.326.135-.652.288-.95.269-.518.758-.873 1.036-1.372.646-1.216 1.29-1.415 2.801-1.918 1.054.428 2.486 1.578 2.437 2.61z" opacity="1" data-original="#f72f43"></path><path fill="#e2212e" d="M13.883 24.305c-1.66 1.106-3.863.469-5.718.432.01-.326.135-.652.288-.95.269-.518.758-.873 1.036-1.371.646-1.217 1.29-1.416 2.801-1.92.307.126.595.28.873.471-1.276-.215-2.467.492-2.647.93-.163.395.18.707.613.451.154-.086.279-.23.432-.326.115-.067.307-.086.355.039.105.314-.673.348-1.209.7-.527.374-.64 1.03.039 1.352 1.02.525 2.208-.076 2.638-.076.2-.012.453.088.499.268z" opacity="1" data-original="#e2212e" class=""></path><ellipse cx="11.845" cy="23.572" rx="1.108" ry=".765" transform="rotate(-27.46 11.854 23.589)" fill="#000000" opacity="1" data-original="#000000" class=""></ellipse><path fill="#095da4" d="M12.914 23.404c0 .01-.01.028-.02.038-.182.45-.757.806-1.285.806-.556 0-.863-.374-.69-.844.159-.435.709-.854 1.304-.854.556 0 .863.384.69.854z" opacity="1" data-original="#095da4" class=""></path><ellipse cx="19.449" cy="19.858" rx="1.021" ry=".527" fill="#000000" opacity="1" data-original="#000000" class=""></ellipse><ellipse cx="15.766" cy="19.858" rx="1.021" ry=".527" fill="#000000" opacity="1" data-original="#000000" class=""></ellipse><ellipse cx="19.449" cy="19.695" fill="#19345d" rx="1.021" ry=".527" opacity="1" data-original="#19345d"></ellipse><ellipse cx="15.766" cy="19.695" fill="#19345d" rx="1.021" ry=".527" opacity="1" data-original="#19345d"></ellipse><path fill="#fb6822" d="M44.1 20.305c-.015.1-.217 1.386-.2 1.286-.05.361-.825.482-1.19.508-.603.009-1.118.013-1.823-.163-.029-.01-.058-.02-.086-.02-.138-.045-.605-.179-.797-.306-.278-.154-.44-.336-.422-.509l.211-1.266c0 .402 1.045.765 1.324.796.1.067 1.089.223 1.612.173.053.013.5-.013.777-.096.14 0 .552-.164.595-.403z" opacity="1" data-original="#fb6822" class=""></path><path fill="#fe8b2e" d="M44.1 20.295v.01c-.057.393-1.055.604-2.235.47-1.19-.134-2.12-.566-2.072-.969.057-.737 3.082-.66 4.087.115.153.125.24.25.22.374z" opacity="1" data-original="#fe8b2e"></path><path d="M40.32 35.216a1.88 1.88 0 0 1-1.322.547.588.588 0 0 1-.592-.588v-2.563c0-.325.263-.588.592-.588 1.655 0 2.495 2.006 1.323 3.192z" fill="#000000" opacity="1" data-original="#000000" class=""></path><path fill="#19345d" d="M43.103 40.642a1.477 1.477 0 0 1-1.477 1.362c-1.422 0-1.99-1.752-.998-2.59-.07.35.15.934.671 1.247.544.326 1.237.28 1.804-.019z" opacity="1" data-original="#19345d"></path><path fill="#f72f43" d="M35.602 14.34c-.76.066-1.428.312-1.723.675-.368-.07-1-.154-1.382-.104.249-.2.633-.432 1.078-.592.444-.16.587-.278 1.128-.251.216.01.753.19.899.272zM32.68 13.907c-.768.077-1.453.412-1.75.834-.365-.086-.998-.182-1.382-.125.376-.347.85-.608 1.324-.786.556.01 1.779.058 1.808.077zM24.512 47.233c8.572-5.34 4.842-18.774-3.857-20.347a36.32 36.32 0 0 1-.393-.058 5.116 5.116 0 0 0-.537-.057c-.992-.09-1.83.01-2.763.21a9.034 9.034 0 0 1 3.367-1.208c1.598-.246 3.409-.01 5.094.767.086.048.182.087.269.135 8.349 4.174 8.55 18.175-1.18 20.558z" opacity="1" data-original="#f72f43"></path><path fill="#e2212e" d="M30.133 39.203c-.23 1.228-.633 2.494-.307 3.703.058.202.134.403.202.595-1.286 1.842-3.204 3.166-5.516 3.732 8.914-5.522 4.527-19.755-4.787-20.462-.992-.09-1.83.01-2.763.21a9.034 9.034 0 0 1 4.5-1.304c.018.192.114.384.258.509.278.24.652.307 1.007.393 5.153 1.27 8.502 6.692 7.406 12.624z" opacity="1" data-original="#e2212e" class=""></path><path d="M22.68 25.754c-.672.374-1.382.777-2.025 1.132a36.32 36.32 0 0 1-.393-.058c.633-.355 1.353-.758 1.995-1.122.103.01-.018-.01.422.048zM25.692 26.675c-.7.383-1.478.834-2.197 1.237-.087-.048-.163-.096-.25-.134.74-.422 1.545-.873 2.178-1.238.086.048.182.087.269.135zM28.032 28.296c-.748.422-1.573.892-2.292 1.295l-.173-.173c.748-.431 1.592-.901 2.283-1.295.067.058.125.115.182.173zM29.855 30.426c-.787.44-1.64.93-2.37 1.343-.038-.068-.076-.135-.134-.202.768-.432 1.64-.93 2.37-1.333.048.067.086.124.134.192zM31.112 32.93c-.816.46-1.698.959-2.437 1.371a1.081 1.081 0 0 0-.077-.23c.787-.441 1.689-.96 2.427-1.372l.087.23zM31.84 36.153c-.834.47-1.755.988-2.513 1.41 0-.087-.01-.163-.019-.25.806-.46 1.756-.997 2.504-1.42l.029.26zM31.793 38.935c-.01.105-.029.201-.048.307-.902.508-1.87 1.055-2.61 1.477l.058-.317c.796-.45 1.775-.997 2.6-1.467zM30.69 42.407c-.068.144-.144.278-.221.413-1.084.614-2.245 1.266-3.012 1.698.115-.144.22-.298.316-.451.873-.499 2.015-1.142 2.917-1.66zM34.46 33.447l-.144.23-2.159 1.027c.096-.508-.105-1.87-.46-3.022a5.76 5.76 0 0 0-1.737-2.657l.135-.23.21.105c.692-.25 1.373-.489 2.063-.738 1.366 1.461 1.986 3.278 1.957 5.247z" fill="#000000" opacity="1" data-original="#000000" class=""></path><path fill="#19345d" d="m34.457 33.45-2.154 1.026c.09-.515-.113-1.873-.466-3.026a5.744 5.744 0 0 0-1.74-2.654l2.416-.863c1.434 1.528 2.071 3.61 1.944 5.517z" opacity="1" data-original="#19345d"></path><path d="m33.942 32.137-.95.72-1.084-2.955 1.266.048.768 2.187z" fill="#000000" opacity="1" data-original="#000000" class=""></path><path fill="#fe8b2e" d="m33.942 32.085-.95.72-1.084-2.955 1.266.048.768 2.187z" opacity="1" data-original="#fe8b2e"></path><path fill="#fb6822" d="m33.942 32.085-.95.72-1.084-2.955.854.029c-.083.743.26 1.67 1.036 1.794zM44.1 20.295v.01c-.057.393-1.055.604-2.235.47-2.12-.24-2.854-1.283-1.045-1.458 0 1.217 2.269 1.77 3.06.604.153.125.24.25.22.374z" opacity="1" data-original="#fb6822" class=""></path><path d="M40.868 20.574c-.35.375-.888.055-1.238.23l.163-.969c0 .269.432.547 1.075.739z" fill="#000000" opacity="1" data-original="#000000" class=""></path><path fill="#fe8b2e" d="m44.024 20.814-.125.777c-.048.402-1.055.613-2.245.48a5.619 5.619 0 0 1-1.093-.231c.038-.086.076-.173.124-.26.535-.96 1.661.147 2.907-.498.154-.086.288-.192.432-.269z" opacity="1" data-original="#fe8b2e"></path><path d="m40.503 20.44-.412 1.218c-.03-.02-.058-.03-.087-.048l.413-1.209c.029.02.057.029.086.038zM41.203 20.66l-.316 1.276c-.029-.01-.058-.02-.086-.02l.316-1.285c.029.02.058.02.086.029zM42.057 20.794l-.316 1.286c-.03 0-.058-.01-.087-.01h-.019l.326-1.285c.03 0 .067.01.096.01zM42.825 20.804l-.115 1.295h-.096l.115-1.295c.038.01.067 0 .096 0zM43.611 20.689l-.115 1.256c-.029.01-.057.02-.096.03l.106-1.267c.038 0 .077-.01.105-.02z" fill="#000000" opacity="1" data-original="#000000" class=""></path><path d="M42.56 20.866c-.734 0-1.718-.155-2.344-.494-.058-.03-.01-.12.047-.087 1.278.692 3.706.582 3.787.013 0-.068.1-.067.1-.003v.01c-.05.348-.704.56-1.59.56z" fill="#000000" opacity="1" data-original="#000000" class=""></path><path fill="#e2212e" d="M43.841 29.436c.32.102.54-.098.327-.458a1.49 1.49 0 0 0-.747-.628c-.331-.125-.433.277-.287.506.153.24.436.493.707.58zM43.238 27.562c.184.059.312-.057.189-.264a.858.858 0 0 0-.43-.361c-.192-.072-.25.159-.166.291a.85.85 0 0 0 .407.334z" opacity="1" data-original="#e2212e" class=""></path><path fill="#095da4" d="M31.605 16.472c-1.111.586-.602 1.248-.033.868a1.2 1.2 0 0 0 .463-.596c.102-.292-.12-.436-.43-.272zM32.939 16.634c-.214.235.01.506.323.297a.779.779 0 0 0 .3-.387c.098-.277-.234-.337-.623.09z" opacity="1" data-original="#095da4" class=""></path><path fill="#19345d" d="M12.895 23.442c-.183.45-.758.806-1.286.806-.962 0-.997-1.025-.02-1.545-.057.278.04.595.27.758.278.192.652.125.968.01.02-.01.048-.02.068-.029z" opacity="1" data-original="#19345d"></path><path fill="#095da4" d="M43.65 44c-.24.134-.48.24-.72.345-.288.125-.547.278-.844.384-1.886.665-5.145.466-7.243.01-1.132.047-2.273.057-3.386-.106 1.247-.365 2.437-1.065 3.732-1.036 2.166.059 3.509 2.008 8.46.403z" opacity="1" data-original="#095da4" class=""></path><path fill="#f2f8fd" d="M13.908 39.687c.293-.157.305-.523.227-.844-.113-.458-1.062-2.086-1.666-1.418-.68.754.695 2.66 1.44 2.262zM15.789 39.555c.197-.106.205-.352.152-.568-.076-.309-.714-1.404-1.12-.954-.459.507.467 1.79.968 1.522z" opacity="1" data-original="#f2f8fd"></path><path fill="#095da4" d="M27.31 35.416c.31.3.563.159.638-.194.121-.582-.184-1.164-.53-1.647-.333-.465-1.147-.706-.994.099.11.579.466 1.337.885 1.742zM26.396 32.292c.105-.018.164-.131.185-.236.081-.384-.12-.77-.35-1.089-.22-.308-.759-.467-.658.065.084.442.515 1.313.823 1.26z" opacity="1" data-original="#095da4" class=""></path><path d="M46.636 26.454a.05.05 0 0 1-.048-.04c-.341-1.842-.488-3.95-1.942-4.95-.054-.037.001-.119.057-.082 1.34.923 1.59 2.72 1.867 4.346.113.679.149.712.075.725l-.009.001zM24.734 16.068c.464-.542.992-1.081 1.712-1.347.847-.312 1.616-.583 2.467-.73.065-.017.082.088.017.097-.842.147-1.608.416-2.449.727-.698.258-1.216.786-1.67 1.317-.043.05-.12-.014-.077-.064z" fill="#000000" opacity="1" data-original="#000000" class=""></path><path fill="#ffca28" d="M49.17 22.19c-1.392-1.388-.68-3.733-.481-5.723.543-5.178-3.205-9.965-8.45-10.358-3.611-.258-6.972 1.657-10.343 3.023-3.372 1.366-7.518 2.086-10.366-.205-1.507-1.226-2.638-3.259-4.554-3.442-1.078-.096-2.157.484-2.848 1.345-1.476 1.826-.788 3.418-3.674 9.842-.212.46-.518 1.043-1.047 1.043-.01-3.582.774-7.185 2.313-10.283 1.968-3.988 5.101-5.333 8.282-2.205.775.772 1.316 1.54 2.083 2.216 1.445 1.237 3.696 1.549 6.177.85 2.337-.645 4.604-1.994 7.225-2.99 3.025-1.14 5.831-1.453 8.334-.893 3.15.699 5.842 2.86 7.203 5.765 1.719 3.68 1.29 8.122.146 12.015z" opacity="1" data-original="#ffca28"></path><path d="M49.561 11.418c-1.009-3.248-3.79-5.93-7.088-6.833a13.275 13.275 0 0 0-7.835.284c-.065.02-.093-.074-.033-.094a13.365 13.365 0 0 1 7.896-.285c3.328.91 6.137 3.619 7.156 6.899.019.064-.076.092-.096.03zM17.467 9.753c-1.271-1.177-1.773-2.563-2.794-2.563-.88 0-1.578.919-1.8 1.602-.02.06-.116.035-.096-.03.283-.867 1.102-1.739 2.012-1.667.97.083 1.534 1.462 2.747 2.584 3.407 3.16 5.642 2.416 5.642 2.647a.05.05 0 0 1-.048.05c-2.102.07-4.127-1.2-5.663-2.623zM45.957 42.077a.061.061 0 0 1-.019-.003.052.052 0 0 1-.028-.066c.975-2.43.84-2.928.932-7.192a.05.05 0 0 1 .05-.049h.001a.05.05 0 0 1 .05.05c-.09 4.083.054 4.748-.94 7.228a.05.05 0 0 1-.046.032z" fill="#000000" opacity="1" data-original="#000000" class=""></path></g></svg>