<svg xmlns="http://www.w3.org/2000/svg" version="1.1" xmlns:xlink="http://www.w3.org/1999/xlink" width="512" height="512" x="0" y="0" viewBox="0 0 1200 1200" style="enable-background:new 0 0 512 512" xml:space="preserve" class=""><rect width="1200" height="1200" fill="#1f50b0" shape="square"></rect><g transform="matrix(0.7499999999999999,0,0,0.7499999999999999,150.00012016296392,149.99979019165062)"><path fill="#ffffff" d="M1074.165 329.725c-10.972-4.974-23.772-7.27-35.124-8.868-.277-5.313-.525-11.439-2.574-16.645-12.537-29.971-49.613-28.327-74.943-33.479-89.27-15.248-201.946-26.255-286.305 6.654-43.967-3.866-89.984-7.646-137.162-11.272-10.631-43.596-65.366-51.69-156.781-53.86-47.705 2.071-119.793-2.7-120.361 59.034-26.906 9.001-52.752 20.104-78.994 31.632-30.772 14.411-76.123 30.394-81.35 74.17-7.319 153.833-11.93 318.679 2.545 484.214-1.803 105.813 153.166 82.229 210.035 64.622 44.129 39.911 101.141 61.703 162.326 61.703 57.757 2.118 111.838-25.859 162.195-49.648 85.479 16.981 152.824 29.073 224.098 40.782 31.54 5.313 67.715 11.902 99.566 6.641 53.838-12.053 108.744-39.381 136.154-101.244 6.311-17.659 5.667-33.641 6.305-50.085 4.398-103.058 2.123-193.787.484-290.036-.936-54.166-2.201-110.201-1.793-165.129.375-10.708 1.249-35.785-28.321-49.186z" opacity="1" data-original="#ffffff"></path><path fill="#68182b" d="M188.925 913.357c44.044 4.567 89.458-1.849 130.89-17.323 68.301 71.075 176.873 85.242 263.613 37.86 17.061-7.459 34.043-15.155 50.855-23.204 72.199 14.395 144.592 27.979 217.246 39.869 34.563 5.65 74.982 14.236 105.465 9.1 8.973-1.513 17.846-3.959 26.59-7.33 36.885-14.508 74.617-39.5 89.598-77.703 4.617-13.137 3.904-28.018 4.531-41.744 3.307-72.256 2.756-144.656 1.695-216.959-1.133-77.8-3.303-155.595-3.121-233.402.021-11.446 2.848-21.878-12.904-29.015-14.765-6.694-37.775-7.274-50.48-10.198-.42-9.799.875-19.738-.682-29.41-5.697-14.264-40.969-13.779-54.746-17.371-91.988-14.436-189.535-27.182-278.62 7.39-54.874-4.851-109.788-9.301-164.72-13.437-.604-8.092-.584-16.451-2.859-24.368-17.754-30.883-152.074-30.876-185.982-24.128-11.635 1.846-32.907 5.151-36.847 18.558-1.563 6.73-1.474 14.542-1.909 21.628-.531 8.572-.596 8.554-8.522 11.029-29.217 9.135-57.628 21.34-85.593 33.627-22.137 10.523-63.186 25.104-65.864 52.78-7.51 160.227-11.441 321.058 2.709 481.044-1.842 39.253 25.955 48.519 59.657 52.707z" opacity="1" data-original="#68182b"></path><path fill="#ffb578" d="M203.37 903.048c-19.788-1.398-43.788-2.998-57.931-18.66-2.538-3.442-3.428-7.609-3.84-11.873-.984-10.182 4.938-10.395 17.306-8.093 43.708 8.146 94.94 4.763 105.743-46.455 12.023 25.11 27.706 48.594 46.467 69.014-34.119 12.43-71.633 17.822-107.745 16.067zM268.776 592.567c.699-75.201-4.801-166.93 84.156-178.541 17.82-2.323 17.211 1.828 17.781 12.738 1.293 24.87 1.905 49.783 2.355 74.651-39.441 24.377-79.484 50.854-104.292 91.152z" opacity="1" data-original="#ffb578"></path><path fill="#ff801d" d="M649.887 883.421c20.561-22.191 36.575-48.258 45.855-77.104 15.977-47.219 5.332-99.203-13.679-143.889-34.007-81.484-102.411-157.817-193.403-171.137-21.209-2.968-43.145-2.414-64.68 1.16-16.672 2.769-16.611 2.197-1.152-5.702a703.113 703.113 0 0 1 33.049-15.806c45.609-22.966 100.569-21.526 147.528-2.926 72.875 30.538 121.513 101.463 143.99 175.143 16.727 57.118 22.967 125.728-6.221 179.405-10.775 19.811-19.064 27.688-42.05 41.102-14.618 8.531-29.532 16.576-44.63 24.252-12.218 6.213-13.713 5.334-4.607-4.498z" opacity="1" data-original="#ff801d"></path><path fill="#db9f6e" d="M762.574 654.653c-24.73-101.082-103.976-202.225-212.424-211.35-12.721-1.066-14.248-2.044-2.318-5.046 65.4-16.456 126.094-.798 177.266 46.307 73.195 65.681 137.768 205.089 77.49 296.097-11.001 15.289-24.801 28.536-39.709 40.416-13.065 10.404-11.534 8.068-6.285-3.899 22.186-50.586 19.167-109.75 5.98-162.525z" opacity="1" data-original="#db9f6e"></path><path fill="#ff8e5b" d="M908.664 849.344a7770.21 7770.21 0 0 1-2.318 67.044c-1.118 28.571-4.311 30.627-35.549 25.68-73.422-11.64-146.535-25.319-219.459-39.712 20.199-10.064 40.105-20.701 59.506-32.214 43.924-26.66 91.609-57.581 113.927-105.615 28.578 3.729 57.06 6.672 85.847 8.778-.555 25.348-1.188 50.698-1.954 76.039z" opacity="1" data-original="#ff8e5b"></path><path fill="#db9f6e" d="M911.459 728.346c-.121 7.605-.252 15.212-.398 22.819-.355 18.538-4.943 14.877-24.324 13.2-19.777-1.709-39.511-3.744-59.2-6.383 6.556-16.219 9.425-34.28 9.948-51.809 19.262 2.709 38.587 4.951 57.979 6.501 13.794 1.108 16.196 2.571 15.995 15.672z" opacity="1" data-original="#db9f6e"></path><path fill="#ffb578" d="M911.897 681.469c-.123 20.038 1.615 21.204-19.814 19.415-17.81-1.486-35.57-3.528-53.26-6.045a6.375 6.375 0 0 0-1.262-.054c-.314-14.266-2.018-28.52-4.775-42.511-23.409-113.385-115.919-234.866-241.237-232.147-37.31 1.767-74.543 14.007-109.104 27.372-33.76 13.171-66.678 28.791-97.992 47.112-.09-38.216-3.304-78.75-5.071-115.685 40.116-2.301 80.417 2.959 120.317 6.553 97.014 9.689 193.713 22.244 290.365 34.969 33.802 4.416 67.561 9.172 101.352 13.643 14.143 1.869 14.256 4.826 15.443 17.454 7.184 76.313 5.499 153.327 5.038 229.924z" opacity="1" data-original="#ffb578"></path><path fill="#ff8e5b" d="M1067.51 797.331c-.471 16.418-1.107 32.832-1.986 49.234-.686 12.791-1.729 23.838-8.203 35.151-21.508 35.268-67.795 63.253-110.686 67.797-17.145 1.819-30.057-1.497-29.296-19.909 2.134-52.074 3.677-104.179 4.778-156.285 5.098-.23 10.162-.795 15.149-1.938 49.759-13.908 93.747-45.311 131.397-79.956.128 35.306-.143 70.613-1.153 105.906z" opacity="1" data-original="#ff8e5b"></path><path fill="#db9f6e" d="M1068.429 657.871c.22 23.296-1.136 25.621-15.196 38.104-28.873 25.653-68.789 53.108-105.566 64.979-18.357 5.928-25.4 6.663-25.074-9.811.137-7.102.261-14.205.38-21.311.257-15.833.178-14.455 16.411-18.39 37.744-9.157 71.633-32.241 102.248-55.266 9.137-7.036 18.197-14.4 26.523-22.466.105 8.054.197 16.109.274 24.161z" opacity="1" data-original="#db9f6e"></path><path fill="#ffb578" d="M680.076 315.986c68.486-28.53 144.938-25.385 217.281-16.509 32.18 4.859 65.863 7.501 97.257 16.035 8.524 2.318 5.403 4.407.036 8.169-12.424 8.72-29.586 12.921-43.678 16.42-22.49 5.581-44.969 7.641-68.076 6.184-67.617-4.269-134.543-15.379-201.643-24.299-8.701-1.282-10.876-1.727-1.177-6z" opacity="1" data-original="#ffb578"></path><path fill="#db9f6e" d="M678.026 332.71c67.348 10.045 134.838 20.096 202.813 24.955 38.971 2.135 79.564-3.57 114.516-21.57 6.146-3.167 5.912-.727 5.898 3.633-.009 3.059 0 6.117.045 9.171.1 7.44-.91 8.761-7.623 12.945-22.408 13.969-50.762 19.154-76.438 22.507-29.919 3.4-60.62-.603-90.421-3.668-48.51-5.017-96.738-12.35-145.082-18.713-7.186-.844-11.02-3.639-11.416-9.753-.27-4.223-.477-8.452-.523-12.685-.09-7.996-.113-8.072 8.231-6.822z" opacity="1" data-original="#db9f6e"></path><path fill="#ffb578" d="M309.573 257.899c39.215-15.293 132.262-6.699 166.842 1.662 4.723 1.207 10.285 2.557 15.217 4.746 10.252 4.543 9 8.484-.074 12.01-36.505 14.205-129.874 7.324-161.898.768-2.16-.466-13.452-3.242-21.529-6.67-12.873-5.453-7.355-9.08 1.442-12.516z" opacity="1" data-original="#ffb578"></path><path fill="#db9f6e" d="M297.713 286.788c.248-7.016.432-7.749 7.437-4.985 40.157 15.849 147.839 19.808 189.074 5.88 6.786-2.291 8.312-1.821 8.567 6.555.18 6.13.162 12.361-.406 18.428-.871 9.297-2.717 12.838-12.475 16.157-38.328 10.76-79.445 6.997-118.752 5.086-18.949-1.478-38.668-3.114-56.752-9.343-1.054-.364-2.338-.792-3.707-1.295-7.389-2.713-11.79-9.404-12.577-16.719-.694-6.495-.637-13.201-.409-19.764z" opacity="1" data-original="#db9f6e"></path><path fill="#ff8e5b" d="M147.997 364.571c5.526-4.416 11.994-8.172 15.433-10.385 26.943-15.92 56.9-27.296 85.982-38.613 10.182-3.963 20.458-7.684 30.865-10.987 7.26-2.303 6.224.011 6.664 5.179.654 7.771 2.807 15.464 10.338 19.395 17.875 11.93 43.383 13.456 64.264 15.433 36.262 2.206 119.844 10.29 147.367-13.618 5.963-8.052 4.223-19.469 5.295-28.974 49.416 3.72 98.818 7.737 148.189 12.032-1.165 1.438-2.529 2.434-2.715 4.652-1.744 11.738-2.387 24.564-1.088 36.557.932 8.689 3.573 15.229 13.213 16.953 6.877 1.228 18.25 1.988 23.98 3.17 54.795 7.408 109.531 15.631 164.689 19.879 44.247 4.897 90.461-.148 131.119-19.047 8.557-3.982 21.32-10.222 21.48-21.283 14.197 2.254 28.875 3.889 42.555 8.086 10.357 3.166 9.287 9.784 2.33 16.119-36.057 29.36-99.867 50.422-146.453 46.203-33.199-4.027-66.307-9.021-99.453-13.456-93.358-12.429-186.77-24.58-280.42-34.62-48.816-4.759-97.828-11.111-146.945-10.245-11.871.564-21.727 5.192-33.016 8.675-44.737 13.82-92.465 20.252-139.244 20.261-20.998-.466-43.867-.175-63.533-8.343-9.092-3.779-16.277-10.743-.896-23.023z" opacity="1" data-original="#ff8e5b"></path><path fill="#db9f6e" d="M132.32 534.674c1.01-42.806 2.687-85.589 4.569-128.362.454-10.254.314-10.83 10.44-7.347 55.407 19.077 141.839 4.677 195.611-8.761 5.413-1.298 9.645-2.764 12.968-4.023 9.903-3.75 11.725-5.664 12.624 4.183.142 1.543.261 3.378.385 5.536.699 12.175.813 9.474-12.329 10.929-24.823 2.753-48.902 11.521-65.576 31.167-36.945 46.529-26.604 110.764-29.305 166.281-10.824 19.51-19.094 40.694-22.596 62.794-3.768 24.138-2.508 49.206 1.231 73.259 3.56 22.893 10.241 45.633 19.615 67.355-2.938 15.387-8.511 30.968-21.063 41.013-21.373 15.403-48.344 13.81-73.887 9.312-24.054-4.229-25.596-11.72-27.822-45.162-6.155-92.568-7.046-185.439-4.865-278.174z" opacity="1" data-original="#db9f6e"></path><path fill="#ff8e5b" d="M691.852 749.785c-6.206-80.198-50.375-157.399-112.995-207.192-106.802-87.033-279.405-28.485-321.696 99.758-40.386 135.646 66.916 305.977 213.482 308.018 53.718.317 107.672-20.17 148.973-54.467 42.753-35.501 75.499-89.001 72.236-146.117zm-49.473 50.069c-23.611 80.349-114.455 131.711-195.492 115.421-113.082-24.164-189.938-166.097-146.689-273.413 48.475-107.268 190.107-129.388 270.447-43.702 48.164 49.142 91.562 131.882 71.734 201.694z" opacity="1" data-original="#ff8e5b"></path><path fill="#db9f6e" d="M471.872 906.728c-112.714-5.388-194.824-139.687-167.155-244.524 9.998-31.832 31.1-60.068 58.747-78.726-14.095 19.777-23.955 42.688-27.254 66.687-14.874 121.387 94.633 263.611 224.597 233.295-27.022 15.758-58.366 24.332-88.935 23.268z" opacity="1" data-original="#db9f6e"></path><path fill="#8edbff" d="M635.807 772.604c-1.57 19.235-7.514 37.159-16.699 53.248-17.861 31.277-34.085 42.973-69.057 48.324-48.611 7.438-98.633-9.246-134.694-44.998-60.567-56.785-92.722-160.809-47.116-233.006 14.844-23.502 30.807-31.754 51.285-36.018 12.652-2.631 25.574-3.773 38.307-3.359 16.98.549 33.457 4.551 48.912 11.113-69.787-6.701-136.512 47.465-133.357 119.638 1.947 90.533 87.771 181.42 181.801 148.3 36.951-11.795 68.283-39.688 80.729-76.462.174 4.408.199 8.818-.111 13.22z" opacity="1" data-original="#8edbff"></path><path fill="#ceffff" d="M623.076 701.093c-15.266-41.722-41.487-79.609-75.334-108.129-20.187-14.597-49.536-27.518-95.033-11.027-49.11 16.986-81.006 70.381-71.011 121.656 11.454 86.999 96.983 161.666 184.538 120.727 17.057-7.584 32.064-18.871 43.668-32.826 25.72-30.929 25.021-58.032 13.172-90.401zm-132.039 100.51c-57.852-11.356-97.236-83.776-75.258-138.343 23.289-53.824 96.703-66.061 136.762-23.415 22.906 23.134 40.244 55.44 39.404 88.618-4.21 47.919-54.758 81.592-100.908 73.14z" opacity="1" data-original="#ceffff"></path><path fill="#efefea" d="M501.624 791.36c-38.126-1.992-67.435-36.527-77.023-71.189-16.525-49.457 20.672-97.457 72.466-94.728 47.018 3.24 84.072 58.499 83.367 103.021-3.334 37.908-42.5 64.793-78.81 62.896z" opacity="1" data-original="#efefea"></path><path fill="#ffb578" d="M1067.557 593.995c-1.039-62.793-2.525-125.58-2.713-188.384-.045-14.304 1.543-16.933-9.486-9.323-8.102 5.586-17.16 10.086-25.318 14.008-31.917 15.021-67.338 26.363-102.807 26.774-9.626.112-10.223.808-9.213 12.303 6.707 76.345 6.092 153.163 5.525 229.793-.157 21.61 1.842 25.131 24.124 17.874 35.994-11.717 78.339-40.448 106.15-65.771 17.835-16.235 14.138-12.972 13.738-37.274zm-14.295-46.837c-.514 14.433-1.414 27.72-9.52 40.159-12.853 21.735-63.92 58.546-78.645 21.635-5.54-38.358-5.025-77.688-3.219-116.389 1.521-15.568 13.436-27.664 25.924-35.949 17.307-12.586 58.043-26.346 63.878 4.353 2.254 28.624 2.219 57.489 1.582 86.191z" opacity="1" data-original="#ffb578"></path><path fill="#ff801d" d="M1038.573 572.516c-8.013 19.113-32.396 40.854-53.935 40.289-9.807-.805-9.637-12.234-10.035-19.662-2.811-33.447-3.162-67.076-1.213-100.58 2.218-21.075 43.715-44.873 63.006-36.951 2.168 1.139 3.254 3.279 3.799 5.58 1.031 9.597 1.129 19.363 1.409 29.003.442 15.01.647 30.035.429 45.052-.169 11.925.946 25.959-3.46 37.269z" opacity="1" data-original="#ff801d"></path><path fill="#ef6200" d="M599.149 539.222c-14.029-10.392-29.854-19.835-46.607-26.999 59.191 30.914 104.025 89.111 129.522 150.205 19.011 44.686 29.655 96.67 13.679 143.889-9.28 28.846-25.295 54.912-45.855 77.104-9.106 9.832-7.611 10.711 4.607 4.498 15.098-7.676 30.012-15.721 44.63-24.252a285.577 285.577 0 0 0 7.522-4.533c-1.424-13.816.467-28.318 2.797-42.678 3.719-22.934 6.277-46.227 5.277-69.481-1.752-40.679-18.844-82.677-38.354-117.894-19.299-34.836-45.17-66.123-77.218-89.859zM1038.918 571.448c-6.703 7.771-14.383 14.452-23.846 18.379-24.326 10.092-30.008-17.657-32.01-35.127-1.799-15.687-1.373-31.635-.701-47.379.544-12.764 1.5-25.443 5.646-36.762-7.994 6.647-13.824 14.486-14.617 22.004-1.949 33.504-1.598 67.133 1.213 100.58.398 7.428.229 18.857 10.035 19.662 21.538.564 45.922-21.176 53.935-40.289.136-.346.22-.717.345-1.068z" opacity="1" data-original="#ef6200"></path><path fill="#facb1a" d="M455.877 470.944a703.113 703.113 0 0 0-33.049 15.806c-15.459 7.899-15.52 8.471 1.152 5.702a229.713 229.713 0 0 1 21.592-2.514c12.268-8.272 28.308-12.567 41.543-16.156 24.585-6.665 48.317-9.357 73.604-4.437 50.863 9.894 97.58 42.692 129.672 82.513 29.666 36.813 47.73 81.833 59.219 127.301 6.759 26.75 10.508 53.523 9.861 81.15-.045 1.91-.141 3.818-.213 5.729 5.846-40.799-.605-84.435-11.863-122.878-22.477-73.68-71.115-144.604-143.989-175.142-46.959-18.6-101.919-20.04-147.529 2.926zM1033.198 528.042c-.396-10.891.074-36.12-1.073-51.066-.813-10.654-2.503-14.885-12.833-6.906-15.398 11.871-14.279 36.094-13.688 55.701.24 7.988-2.471 41.599 11.733 41.291 19.903-.432 16.345-25.649 15.861-39.02z" opacity="1" data-original="#facb1a"></path><path fill="#a9cddd" d="M414.545 727.557c-6.615-21.191-6.949-43.98 1.234-64.297 23.289-53.824 96.703-66.061 136.762-23.415 21.354 21.565 37.85 51.099 39.313 81.878 2.233-34.249-21.516-73.682-44.242-93.891-36.676-32.611-94.393-26.293-123.645 13.227-19.391 26.194-20.961 58.63-9.422 86.498z" opacity="1" data-original="#a9cddd"></path><path fill="#a9cddd" d="M617.485 740.493c-3.873 45.563-41.104 78.166-84.633 85.568-42.676 7.26-82.414-13.075-109.883-44.576-15.746-18.058-27.652-39.132-35.5-61.717-2.73-7.854-5.188-16.385-7.063-25.139.304 2.988.71 5.979 1.293 8.963 11.454 86.999 96.983 161.666 184.538 120.727 17.057-7.584 32.064-18.871 43.668-32.826 25.72-30.928 25.021-58.031 13.172-90.4-5.68-15.521-12.885-30.504-21.425-44.679 3.144 6.892 6.094 13.872 8.446 21.12 6.557 20.211 9.185 41.797 7.387 62.959z" opacity="1" data-original="#a9cddd"></path><path fill="#e9fffb" d="M404.914 624.245c23.543-30.076 66.182-46.658 103.51-38.228 24.214 5.466 45.295 22.638 63.379 38.903 10.244 9.216 19.77 19.173 28.684 29.651-14.234-23.188-32.041-44.163-52.744-61.608-20.187-14.597-49.536-27.518-95.033-11.027-40.408 13.977-69.102 52.609-72.455 94.424 4.742-18.721 12.443-36.508 24.659-52.115z" opacity="1" data-original="#e9fffb"></path><path fill="#73b9d5" d="M404.54 605.973c25.426-26.628 63.331-41.797 102.204-38.064-15.455-6.563-31.932-10.564-48.912-11.113-12.733-.414-25.654.729-38.307 3.359-20.479 4.264-36.441 12.516-51.285 36.018-10.783 17.068-17.171 35.926-19.912 55.508 12.804-20.322 32.037-36.286 56.212-45.708z" opacity="1" data-original="#73b9d5"></path><path fill="#a6f4ff" d="M415.357 829.178c36.062 35.752 86.083 52.437 134.694 44.998 34.972-5.352 51.195-17.047 69.057-48.324 9.186-16.089 15.129-34.013 16.699-53.248.311-4.402.285-8.813.109-13.22-6.129 18.11-16.855 34.052-30.559 46.993-.797 1.322-1.59 2.645-2.424 3.919-17.416 26.638-48.367 42.095-79.25 46.11-32.597 4.237-66.122-7.784-94.279-23.262-10.502-5.772-20.119-12.393-29.061-19.712 4.778 5.563 9.78 10.842 15.014 15.746z" opacity="1" data-original="#a6f4ff"></path><path fill="#d3d3c9" d="M547.42 650.792c13.189 20.875 23.306 44.637 21.238 69.315-2.457 29.339-23.422 52.003-51.957 57.724-32.768 6.572-59.498-14.514-75.215-41.297-13.913-23.708-16.191-50.575-10.879-76.506-10.153 16.983-13.266 38.42-6.007 60.143 9.589 34.662 38.897 69.197 77.023 71.189 36.31 1.896 75.476-24.988 78.81-62.896.421-26.498-12.538-56.797-33.013-77.672z" opacity="1" data-original="#d3d3c9"></path><path fill="#f7f7f5" d="M455.219 663.295c-16.971 22.46-2.755 60.354 23.008 68.632 24.641 7.917 51.551-12.107 55.945-36.004 9.986-54.307-54.166-65.441-78.953-32.628z" opacity="1" data-original="#f7f7f5"></path><g fill="#c98450"><path d="M238.895 848.697c12.553-10.045 18.125-25.626 21.063-41.013-9.374-21.723-16.056-44.463-19.615-67.355-3.739-24.053-4.999-49.121-1.231-73.259 3.502-22.1 11.771-43.284 22.596-62.794 2.701-55.518-7.641-119.752 29.305-166.281 7.322-8.629 16.123-15.055 25.738-19.898-23.903 7.054-42.342 24.076-53.531 48.546-7.344 16.06-11.041 33.671-13.457 51.073-3.174 22.89-2.363 45.453-9.642 67.697-8.055 24.606-19.493 46.969-22.763 72.986-3.762 29.93-.178 60.332 1.963 90.236 1.982 27.701-2.924 55.35-24.033 74.951-13.365 12.408-29.91 20.341-45.469 29.687 3.695 2.132 8.564 3.571 15.189 4.735 25.543 4.499 52.514 6.092 73.887-9.311zM919.43 375.257c-26.252 4.445-54.031.706-80.317-1.583-34.964-3.047-69.853-7.065-104.68-11.39-17.69-2.194-49.174-2.669-64.396-16.845.093 2.26.135 4.521.279 6.777.396 6.114 4.23 8.909 11.416 9.753 48.344 6.363 96.572 13.696 145.082 18.713 29.801 3.065 60.502 7.068 90.421 3.668 25.677-3.353 54.03-8.538 76.438-22.507 6.713-4.185 7.723-5.505 7.623-12.945-.014-.889-.006-1.779-.014-2.669-9.23 5.927-19.255 10.225-29.988 14.375-16.744 6.479-34.155 11.653-51.864 14.653zM310.699 323.27c1.369.503 2.653.931 3.707 1.295 18.084 6.229 37.803 7.865 56.752 9.343 39.307 1.911 80.424 5.674 118.752-5.086 9.758-3.319 11.604-6.86 12.475-16.157.058-.629.051-1.272.101-1.904-12.202 8.471-26.177 14.025-43.069 15.928-18.789 2.115-38.108 2.435-56.992 2.491-31.271.092-81.348-.499-104.604-26.44.082 1.275.167 2.551.302 3.813.786 7.313 5.188 14.004 12.576 16.717zM1002.762 718.776c-19.287 11.545-59.727 34.02-79.885 16.291-.09 5.359-.182 10.72-.285 16.076-.326 16.474 6.717 15.738 25.074 9.811 36.777-11.871 76.693-39.326 105.566-64.979 13.535-12.015 15.291-14.675 15.207-35.63-15.349 24.904-40.544 43.385-65.677 58.431zM471.872 906.728c30.568 1.063 61.913-7.511 88.935-23.269-27.244 6.354-53.568 5.047-78.056-1.982-7.007.756-14.05 1.237-21.117 1.31-34.157.347-69.618-9.726-99.483-28.155 29.486 29.927 67.451 50.077 109.721 52.096zM784.11 722.95c-2.731-32.582-11.629-64.492-24.299-94.543-7.049-16.719-15.633-32.643-25.426-47.773 12.508 23.732 22.037 48.877 28.189 74.02 13.187 52.775 16.205 111.938-5.98 162.524-5.249 11.968-6.78 14.304 6.285 3.899 5.932-4.727 11.676-9.684 17.152-14.887 7.936-26.289 6.344-56.252 4.079-83.24zM886.737 764.366c19.381 1.677 23.969 5.338 24.324-13.2.072-3.73.131-7.461.195-11.189-8.324 8.619-23.301 9.831-36.605 8.94-11.357-.758-32.43-2.438-40.643-12.65-1.561 7.449-3.658 14.758-6.472 21.717 19.69 2.638 39.423 4.673 59.201 6.382z" fill="#c98450" opacity="1" data-original="#c98450"></path></g><path fill="#f9c6a0" d="M217.535 432.098c-5.227.369-10.452.445-15.627.14-11.335-.675-22.859-1.978-34.107.187-17.266 3.323-16.516 28.611-16.656 41.856-.339 32.189.851 64.249.008 96.452-.988 37.62-1.728 75.389-.559 113.014.877 28.119.4 56.072-.527 84.151-.215 6.48-2.18 33.75 9.761 33.39 8.013-.242 12.356-18.742 14.11-24.154 5.871-18.104 9.6-36.978 13.082-55.662 2.515-13.484 5.074-26.671 4.075-40.455-1.081-14.908-6.162-29.08-5.298-44.168.951-16.631 9.651-31.053 17.115-45.43 5.264-10.14 8.916-20.69 10.058-32.086 1.538-15.352-2.058-31.522-3.27-46.809-1.231-15.541.313-31.203 5.522-45.927 2.382-6.73 6.221-12.88 10.713-18.614 17.736-22.633 3.839-16.75-8.4-15.885zM880.838 357.665c-67.975-4.859-135.465-14.91-202.813-24.955-2.137-.319-3.711-.547-4.889-.582 7.807 3.453 16.379 5.336 24.627 7.211a780.504 780.504 0 0 0 46.493 9.109c13.528 2.225 27.228 3.607 40.841 5.179 38.139 4.407 76.461 8.988 114.813 11.075 19.617 1.07 38.71-3.264 57.309-9.19 13.398-4.271 27.021-10.241 37.879-19.292-34.893 17.897-75.385 23.575-114.26 21.445zM336.521 648.356c3.54-23.336 13.204-45.6 26.943-64.878-27.647 18.657-48.749 46.894-58.747 78.726-12.855 48.711-1.986 103.765 24.612 149.312a315.724 315.724 0 0 1-10.483-70.466c-1.113-32.274 4.234-64.37 17.675-92.694zM309.424 283.354c5.615 3.732 12.312 6.26 18.277 8.488 19.598 7.317 41.074 9.275 61.773 10.944 22.62 1.823 45.002 1.124 67.489-1.757 15.246-1.951 30.58-4.438 45.854-3.815-.016-.991.004-1.99-.025-2.978-.256-8.376-1.781-8.846-8.567-6.555-39.854 13.462-141.762 10.212-184.801-4.327zM643.317 459.706c35.046 10.166 66.83 28.928 93.961 53.117 25.586 22.813 46.424 50.703 63.424 80.348 2.527 4.406 4.906 8.897 7.215 13.424-18.865-48.166-49.951-92.537-82.818-122.03-51.172-47.104-111.865-62.763-177.266-46.307-11.93 3.002-10.402 3.979 2.318 5.046 12.43 1.045 24.456 3.355 36.082 6.679a494 494 0 0 1 4.992.376c17.705 1.403 35.036 4.398 52.092 9.347zM911.463 726.716c-13.26-17.35-52.434-7.834-74.504-11.301-.057.717-.113 1.437-.178 2.156 9.451 1.713 22.839.02 28.654.033 16.66.036 36.648.074 45.967 13.98.018-1.08.039-2.159.057-3.238.008-.576.004-1.099.004-1.63zM939.383 711.443c-13.758 3.335-15.793 2.894-16.252 12.307 11.025-7.325 30.398-10.308 39.638-13.417 19.923-6.711 38.407-17.295 56.01-28.629 17.614-11.34 35.062-26.102 45.459-44.352-7.226 6.65-14.872 12.871-22.606 18.825-30.616 23.025-64.505 46.109-102.249 55.266z" opacity="1" data-original="#f9c6a0"></path><path fill="#ff564d" d="M148.895 387.593c19.666 8.168 42.535 7.877 63.533 8.343 46.779-.009 94.507-6.44 139.244-20.261 11.289-3.482 21.145-8.11 33.016-8.675 49.117-.866 98.129 5.486 146.945 10.245 93.65 10.04 187.062 22.191 280.42 34.62 33.146 4.435 66.254 9.429 99.453 13.456 46.586 4.219 110.396-16.843 146.453-46.203.342-.311.656-.623.969-.936-1.594.841-3.203 1.68-4.762 2.525-16.031 8.695-32.523 16.503-49.59 22.943-32.658 12.32-65.594 15.097-100.162 12.621-67.721-4.848-135.32-15.923-202.729-24.049-65.09-7.846-130.152-15.908-195.316-23.119-33.504-3.706-67.512-9.078-101.256-9.343-22.947-.183-45.009 5.673-67.127 11.09-37.926 9.29-75.818 14.646-114.891 15.726-18.864.521-39.842 1.29-58.184-3.652-16.105-4.34-9.024-18.106.201-29.687-.555.323-1.129.62-1.684.948-3.438 2.213-9.906 5.969-15.433 10.385-15.379 12.281-8.194 19.245.9 23.023zM470.643 950.368c53.718.317 107.672-20.17 148.973-54.467 42.754-35.5 75.5-89 72.236-146.116-2.669-34.481-12.39-68.391-27.543-99.823 10.67 29.021 17.373 59.383 18.258 90.892 1.815 64.552-29.984 120.299-81.721 157.456-47.698 34.256-111.67 50.945-169.513 38.43-63.415-13.719-119.237-63.923-149.786-119.631-12.742-23.238-21.309-48.15-29.264-73.293 18.67 106.619 107.186 205.003 218.36 206.552zM757.688 843.507c4.213-4.461 8.586-9.068 12.92-13.831-18.862 15.188-39.693 28.286-59.764 40.467-19.4 11.513-39.307 22.149-59.506 32.214 72.924 14.393 146.037 28.072 219.459 39.712 31.238 4.947 34.431 2.892 35.549-25.68.402-10.317.71-20.638 1.07-30.958-.473 1.071-.918 2.142-1.496 3.207-4.025 7.416-10.353 13.117-17.42 17.52-12.299 7.664-27.844 9.158-41.961 9.591-34.415 1.054-69.662-4.36-103.133-12.082-6.635-1.529-13.039-3.97-18.022-8.75-8.983-8.619.281-20.669 6.314-27.356 7.922-8.785 17.875-15.455 25.99-24.054zM1065.524 846.565c.531-9.881.949-19.766 1.318-29.652-6.805 22.927-16.65 44.65-33.09 63.596-19.277 22.222-51.777 42.963-81.619 44.695-19.084 1.107-28.864-9.73-33.785-24.008-.35 9.467-.619 18.941-1.009 28.408-.761 18.412 12.151 21.729 29.296 19.909 42.891-4.544 89.178-32.529 110.686-67.797 6.474-11.313 7.517-22.36 8.203-35.151z" opacity="1" data-original="#ff564d"></path><path fill="#ff564d" d="M609.346 631.608c-14.133-24.617-31.805-46.207-54.277-63.666-39.817-30.933-91.402-42.818-140.641-32.317-49.053 10.463-90.959 43.631-113.375 88.226-31.405 62.482-20.059 139.023 19.23 195.33-32.16-53.673-43.037-120.368-20.086-177.318 48.475-107.268 190.107-129.388 270.447-43.702 35.787 36.517 68.922 91.579 75.463 146.106-.07-10.523-1.219-21.191-3.449-31.933-5.941-28.606-18.859-55.549-33.312-80.726z" opacity="1" data-original="#ff564d"></path><path fill="#fbc471" d="M872.242 785.981c-18.684-1.65-37.652-.064-45.15 19.377-3.695 9.577-4.441 19.514-9.873 28.5-5.834 9.653-17.026 15.771-25.958 22.162-9.946 7.115-24.665 19.789-19.97 33.796 3.238 9.663 18.616 10.511 26.773 10.976 40.193 2.289 83.24 2.766 89.455-28.67 1.709-8.631 4.346-51.463 5.338-57.504 3.198-19.441-4.247-27.195-20.615-28.637zM1025.808 755.877c-12.524 9.634-27.024 16.926-41.712 22.169-14.037 5.011-36.953 3.129-42.579 20.666-4.747 14.799-3.353 32.317-3.71 47.781-.254 11.008-.686 27.01 7.201 35.909 9.174 10.347 22.773 5.222 33.825.946 20.463-7.917 39.161-21.629 53.702-37.947 14.909-16.732 18.637-37.592 18.674-59.332.011-5.742.453-12.516.465-19.398.039-25.685-7.074-25.248-25.866-10.794zM426.31 515.932c27.917-5.031 56.77-4.268 84.291 2.596 29.946 7.465 55.481 24.488 78.701 44.256 25.573 21.77 47.48 47.22 68.11 73.736-19.73-36.244-46.744-68.632-78.556-93.928-106.802-87.033-279.405-28.485-321.696 99.758-.791 2.66-1.428 5.356-2.106 8.044 8.709-19.997 20.071-38.875 33.554-55.983 34.153-43.338 83.941-68.786 137.702-78.479z" opacity="1" data-original="#fbc471"></path><path fill="#ff9750" d="M1049.039 576.423c5.795-11.762 6.995-25.788 7.787-38.689 1.545-25.135 1.834-51.945-.754-77.005-4.072-39.417-56.07-22.37-75.982-5.591-10.832 9.128-15.203 18.717-16.576 30.072 3.902-12.051 13.852-21.67 24.289-28.596 17.307-12.586 58.043-26.346 63.878 4.353 2.253 28.624 2.218 57.489 1.581 86.191-.367 10.306-.981 20.018-4.223 29.265zM404.084 278.124c-21.854-1.145-44.893-.9-66.174-6.506-5.889-1.549-22.975-6.363-29.182-13.379-8.283 3.336-13.049 6.9-.6 12.176 8.077 3.428 19.369 6.204 21.529 6.67 32.025 6.557 125.394 13.438 161.898-.768 6.533-2.538 8.979-5.293 6.031-8.331-27.378 15.179-63.177 11.728-93.502 10.138zM681.812 322.062c66.913 8.907 133.656 19.966 201.085 24.223 23.107 1.457 45.586-.603 68.076-6.184 12.932-3.212 28.404-7.057 40.471-14.4-1.219.337-2.438.684-3.656 1.009-15.084 4.048-30.013 8.404-45.574 10.228-32.338 3.789-65.887.124-98.122-2.978-31.98-3.076-63.972-5.994-95.935-9.273-20.194-2.071-45.36-7.527-66.345-2.625zM370.713 426.764c-.455-8.727-.184-13.119-9.167-13.341 1.835 8.927 1.126 18.868 1.219 27.391.187 17.259-2.147 31.302-11.635 46.093-16.348 25.493-42.102 43.736-59.358 68.762a107.268 107.268 0 0 0-10.604 19.422c24.648-30.813 58.473-53.017 91.9-73.675-.45-24.868-1.062-49.781-2.355-74.652zM911.897 681.469c.035-5.417.08-10.839.119-16.258-6.176 6.458-14.986 10.225-25.24 9.626-14.557-.85-25.576-12.617-33.287-23.797-13.955-20.24-19.988-44.982-28.988-67.562-21.727-54.519-56.707-103.454-105.605-136.849-50.164-34.257-117.648-38.844-174.742-21.949-12.209 3.613-24.591 8.248-36.795 13.674 27.252-9.404 55.693-16.879 84.19-18.228 125.318-2.719 217.828 118.763 241.237 232.147 2.758 13.991 4.461 28.245 4.775 42.511a6.378 6.378 0 0 1 1.262.054c17.689 2.517 35.45 4.559 53.26 6.045 21.429 1.79 19.691.624 19.814-19.414zM269.183 827.018c.889 5.715 2.422 11.48 4.766 17.451 4.91 12.502 12.561 29.674-1.835 39.298-10.989 7.344-27.314 8.74-40.02 10.271-25.88 3.124-67.996 4.567-89.438-15.567.594 2.109 1.455 4.115 2.783 5.916 14.143 15.662 38.143 17.262 57.931 18.66 36.111 1.756 73.626-3.637 107.745-16.067-16.487-17.946-30.593-38.259-41.932-59.962z" opacity="1" data-original="#ff9750"></path><path fill="#ff9750" d="M1053.82 631.269c17.834-16.235 14.138-12.973 13.737-37.274-.047-2.894-.104-5.787-.153-8.682-8.471 19.869-22.616 36.298-41.399 49.968-18.025 13.118-66.914 46.224-84.863 19.003-9.627-14.596-6.424-39.455-6.121-56.09.363-19.769-.746-39.541-2.248-59.25-1.258-16.51-3.373-32.953-6.514-49.211-1.523-7.877-3.574-15.984-6.945-23.403 5.244 70.759 4.756 141.875 4.232 212.836-.157 21.61 1.842 25.131 24.124 17.874 35.993-11.717 78.338-40.448 106.15-65.771z" opacity="1" data-original="#ff9750"></path><path fill="#ffc9a1" d="M949.307 314.8c-17.448-3.347-57.639-11.804-101.633-15.023-24.129-1.768-49.512-1.937-66.586-.063-34.463 3.778-18.682 11.921 6.4 16.411 19.9 3.562 131.301 18.54 163.475 5.619 10.531-4.229 7.156-5.256-1.656-6.944zM448.262 261.146c-23.566-4.521-67.236-9.069-94.482-6.497-16.43 1.555-18.25 7.307-2.323 10.723 25.754 5.522 72.583 7.779 97.205 5.295 17.519-1.77 16.914-6.198-.4-9.521zM324.009 438.247c-8.513 5.383-21.711 17.996-28.949 38.447-4.896 13.836-8.118 38.938-1.286 38.402 6.826-.535 13.463-6.9 18.495-11.008 9.173-7.48 19.042-14.843 26.332-24.225 6.073-7.813 6.867-17.258 7.228-26.756.66-17.456-9.477-22.661-21.82-14.86zM497.817 405.373c-13.201-1.671-26.469-2.988-39.73-4.063-11.973-.969-24.914-3.071-36.846-1.074-12.392 2.07-17.275 8.569-19.352 20.736-1.594 9.348-2.41 24.666 3.346 32.902 4.041 5.781 13.243.564 17.551-1.749 14.549-7.813 28.521-15.421 44.016-21.413 9.654-3.733 19.4-7.191 29.094-10.778 11.737-4.339 17.676-12.569 1.921-14.561zM885.629 524.249c-.758-11.203-1.84-22.502-3.344-33.636-1.016-7.506-2.115-17.353-7.609-23.21-10.615-11.309-28.182-13.254-42.741-15.066-8.394-1.044-16.798-2.168-25.21-3.27-24.679-3.236-31.883-3.045-12.346 20.188 6.801 8.087 12.727 17.003 18.225 26.112 14.311 23.71 25.49 49.019 34.561 75.152 5.787 16.674 8.291 45.231 23.913 56.531 11.675 8.446 14.697-11.374 15.806-19.089 3.935-27.397.605-56.267-1.255-83.712z" opacity="1" data-original="#ffc9a1"></path></g></svg>