<svg xmlns="http://www.w3.org/2000/svg" version="1.1" xmlns:xlink="http://www.w3.org/1999/xlink" width="512" height="512" x="0" y="0" viewBox="0 0 512 512" style="enable-background:new 0 0 512 512" xml:space="preserve" class=""><rect width="512" height="512" fill="#5eb3dc" shape="square"></rect><g transform="matrix(0.7899999999999999,0,0,0.7899999999999999,53.76009853363041,53.75999078750618)"><path d="M458.92 97.972c-15.395-26.333-91.809-5.803-125.906 4.923-13.858-6.208-32.287-12.095-53.715-17.609-21.381-5.707-40.331-9.616-55.453-11.005-24.457-26.088-80.978-81.434-107.295-66.048-26.136 15.28-17.394 78.33-11.891 106.843-20.718 20.49-32.923 45.678-38.919 68.552-5.185 19.779-8.006 40.152-8.446 61.148-.856 40.981 21.868 78.578 58.662 96.635 28.417 13.932 57.63 24.831 87.638 32.697 30.008 7.866 60.811 12.698 92.408 14.496a104.92 104.92 0 0 0 25.929-1.752l-53.725 68.908c10.695 36.996 120.695 42.747 133.624-18.901 4.474-21.336.8-52.451-22.822-75.83l-4.211-1.742a105.822 105.822 0 0 0 19.727-26.118c9.916-18.513 17.451-37.65 22.635-57.429 5.994-22.868 7.714-50.798-.282-78.809 18.745-22.131 57.328-72.813 42.042-98.959z" style="" fill="#b1b9c6" data-original="#b1b9c6" class=""></path><path d="M99.251 116.131C92.507 81.166 85.425 20.034 113.763 3.466c13.689-8.002 33.447-2.181 60.401 17.799 20.371 15.099 40.441 35.116 53.691 49.249l-8.039 7.537c-46.252-49.334-84.76-74.269-100.491-65.071-16.175 9.457-19.634 47.238-9.253 101.064l-10.821 2.087zM421.078 200.483l-8.412-7.12c35.42-41.846 50.931-76.47 41.49-92.619-9.212-15.755-54.998-12.915-119.488 7.411l-3.313-10.511c18.451-5.815 45.736-13.413 70.939-16.583 33.294-4.188 53.372.431 61.375 14.121 16.543 28.296-19.584 78.12-42.591 105.301z" style="" fill="#678490" data-original="#678490" class=""></path><path d="M421.276 141.93s1.374 8.559-.329 17.301c-1.556 8.085-7.934 12.896-14.865 13.785a149.442 149.442 0 0 0-38.4-48.216c1.306-4.266 4.221-8.029 8.565-10.293 17.447-9.117 40.546-17.825 52.862-8.595 21.447 16.097-7.833 36.018-7.833 36.018zM127.775 64.999s-5.395 6.784-8.201 15.238c-2.609 7.809.588 15.13 6.192 19.305a149.426 149.426 0 0 1 57.114-23.18c.954-4.358.26-9.068-2.415-13.171-10.731-16.503-26.589-35.422-41.849-33.42-26.585 3.506-10.841 35.228-10.841 35.228z" style="" fill="#ffffff" data-original="#ffffff"></path><path d="M301.974 394.283c-2.091 0-4.183-.059-6.281-.178-31.817-1.811-63.272-6.746-93.494-14.667-30.223-7.922-60.055-19.051-88.667-33.079-18.985-9.317-34.8-23.775-45.735-41.811-10.916-18.004-16.452-38.712-16.01-59.886.446-21.293 3.348-42.298 8.625-62.43 6.037-23.032 22.859-65.63 67.688-92.144l5.61 9.485c-41.435 24.507-57.03 64.058-62.638 85.453-5.058 19.296-7.839 39.438-8.267 59.866-.398 19.078 4.587 37.731 14.415 53.942 9.842 16.232 24.076 29.244 41.165 37.631 27.953 13.704 57.092 24.577 86.608 32.313 29.514 7.736 60.24 12.555 91.324 14.325 19.009 1.073 37.792-3.282 54.329-12.6 16.517-9.305 30.011-23.114 39.022-39.935 9.648-18.013 17.104-36.93 22.162-56.224 5.608-21.395 11.419-63.51-12.668-105.191l9.542-5.514c26.059 45.096 19.823 90.468 13.786 113.5-5.276 20.13-13.051 39.858-23.108 58.633-10.001 18.669-24.984 33.999-43.327 44.333a110.04 110.04 0 0 1-54.081 14.178z" style="" fill="#678490" data-original="#678490" class=""></path><path d="M307.166 260.743c3.239-12.359-2.96-24.69-13.845-27.544-10.886-2.853-22.337 4.852-25.576 17.211-3.239 12.358 2.96 24.69 13.846 27.543 10.885 2.853 22.336-4.852 25.575-17.21zM158.233 221.705c3.239-12.359-2.959-24.69-13.845-27.543-10.886-2.853-22.337 4.852-25.576 17.21-3.239 12.358 2.96 24.69 13.846 27.543 10.885 2.854 22.336-4.852 25.575-17.21z" style="" fill="#605c5d" data-original="#605c5d"></path><path d="M329.148 305.399c-.463 0-.932-.059-1.401-.181l-31.145-8.164a5.51 5.51 0 1 1 2.794-10.66l31.145 8.164a5.51 5.51 0 0 1-1.393 10.841zM315.807 333.171a5.487 5.487 0 0 1-3.157-.997l-23.007-16.117a5.51 5.51 0 0 1-1.352-7.674 5.508 5.508 0 0 1 7.674-1.352l23.008 16.117a5.51 5.51 0 0 1-3.166 10.023zM111.607 248.379c-.463 0-.932-.059-1.401-.181l-31.145-8.164a5.509 5.509 0 1 1 2.794-10.66L113 237.537a5.51 5.51 0 0 1-1.393 10.842zM78.446 270.955a5.51 5.51 0 0 1-.534-10.995l27.956-2.758a5.51 5.51 0 0 1 1.082 10.968l-27.956 2.758a5.63 5.63 0 0 1-.548.027z" style="" fill="#91a2b5" data-original="#91a2b5"></path><path d="M285.774 216.456c-.463 0-.933-.059-1.401-.182l-16.338-4.283a5.51 5.51 0 0 1 2.794-10.66l16.338 4.283a5.51 5.51 0 0 1-1.393 10.842zM178.226 188.267c-.463 0-.933-.059-1.401-.182l-16.338-4.283a5.51 5.51 0 0 1 2.794-10.66l16.338 4.283a5.51 5.51 0 0 1-1.393 10.842z" style="" fill="#ffffff" data-original="#ffffff"></path><path d="M246.936 246.669a5.51 5.51 0 0 0-7.482 2.177 11.813 11.813 0 0 1-13.37 5.735 11.78 11.78 0 0 1-7.228-5.482 11.761 11.761 0 0 1-1.234-8.978l1.003-3.826 3.417.896a5.512 5.512 0 0 0 2.794-10.66l-17.494-4.586a5.51 5.51 0 0 0-2.794 10.66l3.417.896-1.003 3.826c-1.656 6.316-8.143 10.105-14.457 8.452a11.819 11.819 0 0 1-8.849-11.559 5.509 5.509 0 0 0-5.452-5.567l-.058-.001a5.512 5.512 0 0 0-5.509 5.453c-.109 10.487 6.912 19.671 17.074 22.334 6.703 1.756 13.505.336 18.804-3.326.256.524.533 1.041.83 1.549a22.727 22.727 0 0 0 13.946 10.579c1.938.508 3.893.753 5.823.753a22.81 22.81 0 0 0 20.001-11.843 5.513 5.513 0 0 0-2.179-7.482z" style="" fill="#678490" data-original="#678490" class=""></path><path d="M428.804 168.602a430.161 430.161 0 0 0-7.152-5.349c2.772-45.912-39.972-94.361-104.388-119.257.264-.718.51-1.447.708-2.201 3.586-13.683-5.549-27.931-20.404-31.824s-29.805 4.041-33.392 17.724a23.812 23.812 0 0 0-.463 2.265c-68.962-9.99-130.462 11.736-150 53.843-1.856.238-3.712.487-5.568.75-13.326 1.888-23.902 12.1-26.583 25.289a555.636 555.636 0 0 0-7.583 47.827c124.23-33.315 256.82 1.439 348.735 91.409a555.634 555.634 0 0 0 16.852-45.397c4.131-12.81-.076-26.897-10.762-35.079z" style="" fill="#00d4d7" data-original="#ffff9d" class="" opacity="1"></path><path d="M432.153 164.227a443.345 443.345 0 0 0-4.89-3.686c.484-23.006-9.31-46.598-28.464-68.43-18.62-21.221-44.46-38.935-74.955-51.423 1.263-7.35-.306-14.875-4.519-21.444-4.601-7.175-11.834-12.357-20.365-14.593-16.878-4.423-33.958 4.113-39.36 19.198-33.027-4.115-64.491-1.264-91.279 8.306-27.585 9.853-47.65 25.921-58.253 46.576-.899.122-1.798.238-2.697.365-15.51 2.197-28.052 14.112-31.21 29.647a563.797 563.797 0 0 0-7.659 48.3 5.511 5.511 0 0 0 6.902 5.946c60.03-16.098 123.539-16.278 183.661-.52 60.121 15.759 115.377 47.068 159.792 90.544a5.512 5.512 0 0 0 8.931-1.796 563.345 563.345 0 0 0 17.019-45.847c4.87-15.086-.216-31.621-12.654-41.143zm-169.23-128.81a5.513 5.513 0 0 0 6.232-4.594 17.5 17.5 0 0 1 .347-1.726c2.809-10.719 14.772-16.902 26.664-13.785 5.849 1.533 10.779 5.043 13.883 9.882 3.012 4.696 3.932 10.097 2.592 15.209-.129.494-.297 1.01-.544 1.674a5.51 5.51 0 0 0 3.178 7.061c56.976 22.019 96.615 63.308 100.646 103.245-41.821-29.088-88.016-50.378-137.599-63.375-50.724-13.294-102.614-17.291-154.492-11.926 22.654-33.572 77.784-50.544 139.093-41.665zm171.397 166.57a554.441 554.441 0 0 1-13.621 37.533c-44.74-41.895-99.49-72.154-158.839-87.71a369.438 369.438 0 0 0-93.642-12.048 369.712 369.712 0 0 0-87.798 10.566 554.804 554.804 0 0 1 6.541-39.389c2.231-10.975 11.055-19.386 21.957-20.931 55.889-7.918 111.946-4.667 166.61 9.661 54.664 14.328 105.107 38.993 149.927 73.308 8.74 6.694 12.305 18.352 8.865 29.01z" style="" fill="#02bec1" data-original="#ffcc6b" class="" opacity="1"></path><ellipse cx="91.378" cy="429.934" rx="41.709" ry="61.703" style="" transform="rotate(-1.812 91.475 429.998)" fill="#b1b9c6" data-original="#b1b9c6" class=""></ellipse><path d="M92.407 497.13c-12.612.001-24.498-6.861-33.583-19.42-8.882-12.279-14.082-28.715-14.641-46.275-.559-17.561 3.585-34.292 11.669-47.111 8.51-13.495 20.368-21.155 33.389-21.569 13.003-.422 25.342 6.476 34.692 19.403 8.883 12.28 14.082 28.713 14.641 46.274.559 17.561-3.585 34.292-11.669 47.112-8.51 13.495-20.367 21.155-33.389 21.569-.37.011-.741.017-1.109.017zm-2.082-123.372c-.245 0-.489.004-.735.012-9.249.294-17.921 6.13-24.418 16.433-6.922 10.978-10.466 25.497-9.976 40.883.49 15.385 4.949 29.65 12.556 40.165 7.139 9.869 16.166 15.138 25.413 14.847 19.95-.635 35.379-26.347 34.394-57.316-.49-15.385-4.949-29.65-12.555-40.165-6.949-9.606-15.688-14.859-24.679-14.859z" style="" fill="#678490" data-original="#678490" class=""></path><path d="m73.488 350.789 10.103-6.911c18.238-12.476 37.638-20.882 45.738-10.206 4.773 6.288 1.762 13.566-3.661 20.078l14.015 20.487c9.096 13.297 5.695 31.427-7.602 40.523l-10.103 6.912c-13.277 9.082-31.427 5.695-40.523-7.602l-15.582-22.777c-9.083-13.276-5.662-31.421 7.615-40.504z" style="" fill="#b1b9c6" data-original="#b1b9c6" class=""></path><path d="M133.718 330.341c-11.326-14.926-35.2-3.354-53.235 8.982l.006.008-.003.002-10.103 6.912c-7.636 5.224-12.784 13.111-14.496 22.208-1.713 9.101.22 18.319 5.444 25.955l12.211 17.85a5.502 5.502 0 0 0 4.553 2.399 5.511 5.511 0 0 0 4.543-8.622l-12.212-17.85c-3.56-5.204-4.878-11.488-3.709-17.694 1.168-6.207 4.68-11.587 9.888-15.15l10.103-6.912c.026-.018.045-.042.071-.06 19.006-12.987 33.624-17.346 38.16-11.367 1.152 1.519 1.497 3.045 1.117 4.949-1.709 8.562-16.774 20.164-25.866 25.464l5.539 9.526c.277-.161 6.867-4.012 13.89-9.725 10.002-8.139 15.804-15.91 17.242-23.098.999-4.987-.088-9.751-3.143-13.777z" style="" fill="#678490" data-original="#678490" class=""></path><path d="m96.653 386.937 14.2 96.439c2.176 14.781 15.923 24.999 30.704 22.823l200.894-29.581c14.781-2.176 24.999-15.923 22.823-30.704l-14.2-96.439c-2.176-14.781-15.923-24.999-30.704-22.823l-5.935.874a27.052 27.052 0 0 1-27.771-13.96l-6.168-11.48a27.052 27.052 0 0 0-27.771-13.96l-79.578 11.717a27.053 27.053 0 0 0-22.569 21.373l-2.597 12.771a27.053 27.053 0 0 1-22.569 21.373l-5.936.874c-14.782 2.176-25 15.922-22.823 30.703z" style="" fill="#777677" data-original="#777677" class=""></path><path d="M137.596 512c-15.875 0-29.814-11.658-32.194-27.821l-14.2-96.439c-2.615-17.763 9.708-34.343 27.471-36.958l5.936-.874c8.947-1.317 16.17-8.157 17.972-17.019l2.597-12.771c2.724-13.396 13.641-23.734 27.165-25.726l79.578-11.717c13.525-1.993 26.959 4.762 33.428 16.804l6.168 11.481c4.28 7.966 13.168 12.434 22.114 11.117l5.935-.874c8.608-1.266 17.188.893 24.169 6.081 6.981 5.189 11.523 12.785 12.79 21.39l14.2 96.438c2.615 17.764-9.708 34.343-27.471 36.959L142.36 511.65c-1.6.236-3.193.35-4.764.35zm-35.492-125.865 14.2 96.439c1.73 11.752 12.7 19.903 24.45 18.174l200.894-29.581c11.751-1.73 19.904-12.699 18.174-24.45l-14.2-96.438a21.398 21.398 0 0 0-8.461-14.151 21.383 21.383 0 0 0-15.989-4.022l-5.935.874c-13.527 1.993-26.958-4.761-33.428-16.804l-6.168-11.481c-4.28-7.967-13.171-12.435-22.115-11.117l-79.578 11.717c-8.947 1.318-16.17 8.157-17.972 17.02l-2.597 12.771c-2.724 13.396-13.641 23.734-27.165 25.726l-5.936.874c-11.751 1.729-19.903 12.698-18.174 24.449z" style="" fill="#605c5d" data-original="#605c5d"></path><path d="M181.878 329.739a5.51 5.51 0 0 1-.796-10.963l69.498-10.233a5.511 5.511 0 0 1 1.605 10.903l-69.498 10.233c-.271.04-.542.06-.809.06z" style="" fill="#605c5d" data-original="#605c5d"></path><path d="M365.566 415.918c-33.137 4.984-109.204-1.138-97.358 39.842 10.695 36.996 120.695 42.747 133.624-18.901 3.729-17.78 1.798-42.351-12.619-63.577 0 0-18.006 41.805-23.647 42.636z" style="" fill="#b1b9c6" data-original="#b1b9c6" class=""></path><path d="M328.218 488.973c-28.572 0-59.189-10.53-65.304-31.683-2.663-9.211-1.683-17.195 2.913-23.729 11.945-16.985 45.084-19.091 74.322-20.95 9.225-.586 17.939-1.141 24.597-2.142a5.51 5.51 0 1 1 1.638 10.898c-7.125 1.071-16.068 1.64-25.536 2.242-24.098 1.532-57.103 3.631-66.007 16.292-2.615 3.718-3.053 8.405-1.34 14.329 4.143 14.335 29.881 24.714 58.59 23.651 27.046-1.01 58.152-12.614 64.347-42.153 4.292-20.464-2.664-52.363-24.263-73.74a5.51 5.51 0 1 1 7.753-7.833c25.534 25.272 32.049 61.173 27.296 83.835-3.362 16.032-13.102 29.251-28.166 38.229-12.807 7.632-28.906 12.015-46.555 12.674-1.421.054-2.851.08-4.285.08z" style="" fill="#678490" data-original="#678490" class=""></path><circle cx="229.001" cy="403.103" r="57.792" style="" transform="rotate(-19.898 228.99 403.123)" fill="#777677" data-original="#777677" class=""></circle><path d="M228.868 466.418c-13.502 0-26.595-4.308-37.63-12.51-13.57-10.087-22.401-24.855-24.864-41.583-5.085-34.533 18.873-66.763 53.406-71.849 34.535-5.083 66.764 18.873 71.849 53.405 2.463 16.729-1.736 33.415-11.823 46.985s-24.855 22.4-41.583 24.863a64.115 64.115 0 0 1-9.355.689zm.244-115.607a53.05 53.05 0 0 0-7.726.568c-13.816 2.034-26.013 9.327-34.344 20.535s-11.799 24.989-9.764 38.805c2.035 13.816 9.327 26.013 20.535 34.344s24.989 11.799 38.805 9.764c13.816-2.034 26.013-9.327 34.344-20.535s11.799-24.989 9.765-38.805c-2.034-13.816-9.327-26.013-20.535-34.344-9.114-6.773-19.93-10.332-31.08-10.332z" style="" fill="#605c5d" data-original="#605c5d"></path><circle cx="229.001" cy="403.103" r="31.205" style="" transform="rotate(-17.397 229.01 403.11)" fill="#ddfcfc" data-original="#ddfcfc" class=""></circle><path d="M228.978 439.822c-17.899 0-33.617-13.145-36.301-31.37-2.949-20.029 10.947-38.723 30.976-41.673 9.701-1.428 19.38 1.006 27.251 6.857 7.871 5.85 12.992 14.416 14.421 24.118 1.429 9.703-1.006 19.381-6.857 27.251-5.85 7.871-14.416 12.993-24.118 14.421-1.805.267-3.6.396-5.372.396zm-25.398-32.976c2.064 14.017 15.146 23.739 29.164 21.678 6.79-1 12.785-4.584 16.879-10.092s5.798-12.281 4.798-19.071c-2.064-14.017-15.152-23.743-29.164-21.678-14.016 2.063-23.741 15.146-21.677 29.163z" style="" fill="#605c5d" data-original="#605c5d"></path><path d="M128.17 390.648a5.51 5.51 0 0 1-.796-10.962l15.611-2.299a5.51 5.51 0 0 1 1.605 10.903l-15.611 2.299c-.271.04-.542.059-.809.059z" style="" fill="#00d4d7" data-original="#00d4d7" class="" opacity="1"></path></g></svg>