<svg width="28" height="26" viewBox="0 0 28 26" fill="none" xmlns="http://www.w3.org/2000/svg">
<path d="M22.5625 7.08301V5.93301C22.5625 4.32286 22.5625 3.51778 22.2491 2.90279C21.9736 2.36181 21.5337 1.92199 20.9928 1.64637C20.3778 1.33301 19.5726 1.33301 17.9625 1.33301H5.6C3.98984 1.33301 3.18477 1.33301 2.56978 1.64637C2.0288 1.92199 1.58899 2.36181 1.31336 2.90279C1 3.51778 1 4.32286 1 5.93301V7.08301M1 7.08301V19.733C1 21.3432 1 22.1483 1.31336 22.7633C1.58899 23.3042 2.0288 23.7441 2.56978 24.0196C3.18477 24.333 3.98984 24.333 5.6 24.333H22.275C23.8851 24.333 24.6903 24.333 25.3053 24.0196C25.8462 23.7441 26.2861 23.3042 26.5616 22.7633C26.875 22.1483 26.875 21.3432 26.875 19.733V11.683C26.875 10.0729 26.875 9.26778 26.5616 8.65279C26.2861 8.11181 25.8462 7.67199 25.3053 7.39637C24.6903 7.08301 23.8851 7.08301 22.275 7.08301H1ZM26.875 12.833H24C22.4121 12.833 21.125 14.1201 21.125 15.708C21.125 17.2959 22.4121 18.583 24 18.583H26.875" stroke="#42C2FF" stroke-width="2" stroke-linecap="round" stroke-linejoin="round"/>
</svg>
